# Generated from blockbench/amulets/blackened_heart/blackened_heart.bbmodel; do not hand-edit.
mtllib black_heart.mtl
usemtl amulet
v 0.6679379 0.7278844 0.3712924
vt 0.0625000 0.1875000
v 0.5000000 0.8958223 0.3712924
vt 0.1875000 0.1875000
v 0.3320621 0.7278844 0.3712924
vt 0.1875000 0.0625000
v 0.5000000 0.5599466 0.3712924
vt 0.0625000 0.0625000
f 1/1 2/2 3/3 4/4
v 0.5000000 0.8958223 0.4775424
vt 0.3125000 0.1875000
v 0.6679379 0.7278844 0.4775424
vt 0.4375000 0.1875000
v 0.5000000 0.5599466 0.4775424
vt 0.4375000 0.0625000
v 0.3320621 0.7278844 0.4775424
vt 0.3125000 0.0625000
f 5/5 6/6 7/7 8/8
v 0.5000000 0.8958223 0.3712924
vt 0.3125000 0.1875000
v 0.5000000 0.8958223 0.4775424
vt 0.4375000 0.1875000
v 0.3320621 0.7278844 0.4775424
vt 0.4375000 0.0625000
v 0.3320621 0.7278844 0.3712924
vt 0.3125000 0.0625000
f 9/9 10/10 11/11 12/12
v 0.6679379 0.7278844 0.4775424
vt 0.3125000 0.1875000
v 0.6679379 0.7278844 0.3712924
vt 0.4375000 0.1875000
v 0.5000000 0.5599466 0.3712924
vt 0.4375000 0.0625000
v 0.5000000 0.5599466 0.4775424
vt 0.3125000 0.0625000
f 13/13 14/14 15/15 16/16
v 0.3320621 0.7278844 0.3712924
vt 0.3125000 0.1875000
v 0.3320621 0.7278844 0.4775424
vt 0.4375000 0.1875000
v 0.5000000 0.5599466 0.4775424
vt 0.4375000 0.0625000
v 0.5000000 0.5599466 0.3712924
vt 0.3125000 0.0625000
f 17/17 18/18 19/19 20/20
v 0.5000000 0.8958223 0.3712924
vt 0.0625000 0.1875000
v 0.6679379 0.7278844 0.3712924
vt 0.1875000 0.1875000
v 0.6679379 0.7278844 0.4775424
vt 0.1875000 0.0625000
v 0.5000000 0.8958223 0.4775424
vt 0.0625000 0.0625000
f 21/21 22/22 23/23 24/24
v 0.5000000 0.5599466 0.3712924
vt 0.3125000 0.1875000
v 0.3320621 0.7278844 0.3712924
vt 0.4375000 0.1875000
v 0.1818019 0.5776242 0.3712924
vt 0.4375000 0.0625000
v 0.3497398 0.4096864 0.3712924
vt 0.3125000 0.0625000
f 25/25 26/26 27/27 28/28
v 0.3320621 0.7278844 0.4775424
vt 0.5625000 0.1875000
v 0.5000000 0.5599466 0.4775424
vt 0.6875000 0.1875000
v 0.3497398 0.4096864 0.4775424
vt 0.6875000 0.0625000
v 0.1818019 0.5776242 0.4775424
vt 0.5625000 0.0625000
f 29/29 30/30 31/31 32/32
v 0.3320621 0.7278844 0.3712924
vt 0.5625000 0.1875000
v 0.3320621 0.7278844 0.4775424
vt 0.6875000 0.1875000
v 0.1818019 0.5776242 0.4775424
vt 0.6875000 0.0625000
v 0.1818019 0.5776242 0.3712924
vt 0.5625000 0.0625000
f 33/33 34/34 35/35 36/36
v 0.5000000 0.5599466 0.4775424
vt 0.5625000 0.1875000
v 0.5000000 0.5599466 0.3712924
vt 0.6875000 0.1875000
v 0.3497398 0.4096864 0.3712924
vt 0.6875000 0.0625000
v 0.3497398 0.4096864 0.4775424
vt 0.5625000 0.0625000
f 37/37 38/38 39/39 40/40
v 0.1818019 0.5776242 0.3712924
vt 0.5625000 0.1875000
v 0.1818019 0.5776242 0.4775424
vt 0.6875000 0.1875000
v 0.3497398 0.4096864 0.4775424
vt 0.6875000 0.0625000
v 0.3497398 0.4096864 0.3712924
vt 0.5625000 0.0625000
f 41/41 42/42 43/43 44/44
v 0.3320621 0.7278844 0.3712924
vt 0.5625000 0.1875000
v 0.5000000 0.5599466 0.3712924
vt 0.6875000 0.1875000
v 0.5000000 0.5599466 0.4775424
vt 0.6875000 0.0625000
v 0.3320621 0.7278844 0.4775424
vt 0.5625000 0.0625000
f 45/45 46/46 47/47 48/48
v 0.8181981 0.5776242 0.3712924
vt 0.3125000 0.1875000
v 0.6679379 0.7278844 0.3712924
vt 0.4375000 0.1875000
v 0.5000000 0.5599466 0.3712924
vt 0.4375000 0.0625000
v 0.6502602 0.4096864 0.3712924
vt 0.3125000 0.0625000
f 49/49 50/50 51/51 52/52
v 0.6679379 0.7278844 0.4775424
vt 0.5625000 0.1875000
v 0.8181981 0.5776242 0.4775424
vt 0.6875000 0.1875000
v 0.6502602 0.4096864 0.4775424
vt 0.6875000 0.0625000
v 0.5000000 0.5599466 0.4775424
vt 0.5625000 0.0625000
f 53/53 54/54 55/55 56/56
v 0.6679379 0.7278844 0.3712924
vt 0.5625000 0.1875000
v 0.6679379 0.7278844 0.4775424
vt 0.6875000 0.1875000
v 0.5000000 0.5599466 0.4775424
vt 0.6875000 0.0625000
v 0.5000000 0.5599466 0.3712924
vt 0.5625000 0.0625000
f 57/57 58/58 59/59 60/60
v 0.8181981 0.5776242 0.4775424
vt 0.5625000 0.1875000
v 0.8181981 0.5776242 0.3712924
vt 0.6875000 0.1875000
v 0.6502602 0.4096864 0.3712924
vt 0.6875000 0.0625000
v 0.6502602 0.4096864 0.4775424
vt 0.5625000 0.0625000
f 61/61 62/62 63/63 64/64
v 0.5000000 0.5599466 0.3712924
vt 0.5625000 0.1875000
v 0.5000000 0.5599466 0.4775424
vt 0.6875000 0.1875000
v 0.6502602 0.4096864 0.4775424
vt 0.6875000 0.0625000
v 0.6502602 0.4096864 0.3712924
vt 0.5625000 0.0625000
f 65/65 66/66 67/67 68/68
v 0.6679379 0.7278844 0.3712924
vt 0.5625000 0.1875000
v 0.8181981 0.5776242 0.3712924
vt 0.6875000 0.1875000
v 0.8181981 0.5776242 0.4775424
vt 0.6875000 0.0625000
v 0.6679379 0.7278844 0.4775424
vt 0.5625000 0.0625000
f 69/69 70/70 71/71 72/72
v 0.5441942 0.6660126 0.3600424
vt 0.0625000 0.6875000
v 0.4359184 0.7742883 0.3600424
vt 0.1875000 0.6875000
v 0.2414641 0.5798339 0.3600424
vt 0.1875000 0.5625000
v 0.3497398 0.4715582 0.3600424
vt 0.0625000 0.5625000
f 73/73 74/74 75/75 76/76
v 0.4359184 0.7742883 0.3787924
vt 0.0625000 0.6875000
v 0.5441942 0.6660126 0.3787924
vt 0.1875000 0.6875000
v 0.3497398 0.4715582 0.3787924
vt 0.1875000 0.5625000
v 0.2414641 0.5798339 0.3787924
vt 0.0625000 0.5625000
f 77/77 78/78 79/79 80/80
v 0.4359184 0.7742883 0.3600424
vt 0.0625000 0.6875000
v 0.4359184 0.7742883 0.3787924
vt 0.1875000 0.6875000
v 0.2414641 0.5798339 0.3787924
vt 0.1875000 0.5625000
v 0.2414641 0.5798339 0.3600424
vt 0.0625000 0.5625000
f 81/81 82/82 83/83 84/84
v 0.5441942 0.6660126 0.3787924
vt 0.0625000 0.6875000
v 0.5441942 0.6660126 0.3600424
vt 0.1875000 0.6875000
v 0.3497398 0.4715582 0.3600424
vt 0.1875000 0.5625000
v 0.3497398 0.4715582 0.3787924
vt 0.0625000 0.5625000
f 85/85 86/86 87/87 88/88
v 0.2414641 0.5798339 0.3600424
vt 0.0625000 0.6875000
v 0.2414641 0.5798339 0.3787924
vt 0.1875000 0.6875000
v 0.3497398 0.4715582 0.3787924
vt 0.1875000 0.5625000
v 0.3497398 0.4715582 0.3600424
vt 0.0625000 0.5625000
f 89/89 90/90 91/91 92/92
v 0.4359184 0.7742883 0.3600424
vt 0.0625000 0.6875000
v 0.5441942 0.6660126 0.3600424
vt 0.1875000 0.6875000
v 0.5441942 0.6660126 0.3787924
vt 0.1875000 0.5625000
v 0.4359184 0.7742883 0.3787924
vt 0.0625000 0.5625000
f 93/93 94/94 95/95 96/96
v 0.7585359 0.5798339 0.3600424
vt 0.0625000 0.6875000
v 0.5640816 0.7742883 0.3600424
vt 0.1875000 0.6875000
v 0.4558058 0.6660126 0.3600424
vt 0.1875000 0.5625000
v 0.6502602 0.4715582 0.3600424
vt 0.0625000 0.5625000
f 97/97 98/98 99/99 100/100
v 0.5640816 0.7742883 0.3787924
vt 0.0625000 0.6875000
v 0.7585359 0.5798339 0.3787924
vt 0.1875000 0.6875000
v 0.6502602 0.4715582 0.3787924
vt 0.1875000 0.5625000
v 0.4558058 0.6660126 0.3787924
vt 0.0625000 0.5625000
f 101/101 102/102 103/103 104/104
v 0.5640816 0.7742883 0.3600424
vt 0.0625000 0.6875000
v 0.5640816 0.7742883 0.3787924
vt 0.1875000 0.6875000
v 0.4558058 0.6660126 0.3787924
vt 0.1875000 0.5625000
v 0.4558058 0.6660126 0.3600424
vt 0.0625000 0.5625000
f 105/105 106/106 107/107 108/108
v 0.7585359 0.5798339 0.3787924
vt 0.0625000 0.6875000
v 0.7585359 0.5798339 0.3600424
vt 0.1875000 0.6875000
v 0.6502602 0.4715582 0.3600424
vt 0.1875000 0.5625000
v 0.6502602 0.4715582 0.3787924
vt 0.0625000 0.5625000
f 109/109 110/110 111/111 112/112
v 0.4558058 0.6660126 0.3600424
vt 0.0625000 0.6875000
v 0.4558058 0.6660126 0.3787924
vt 0.1875000 0.6875000
v 0.6502602 0.4715582 0.3787924
vt 0.1875000 0.5625000
v 0.6502602 0.4715582 0.3600424
vt 0.0625000 0.5625000
f 113/113 114/114 115/115 116/116
v 0.5640816 0.7742883 0.3600424
vt 0.0625000 0.6875000
v 0.7585359 0.5798339 0.3600424
vt 0.1875000 0.6875000
v 0.7585359 0.5798339 0.3787924
vt 0.1875000 0.5625000
v 0.5640816 0.7742883 0.3787924
vt 0.0625000 0.5625000
f 117/117 118/118 119/119 120/120
v 0.3674175 0.6041407 0.3487924
vt 0.5625000 0.6875000
v 0.3232233 0.6483349 0.3487924
vt 0.6875000 0.6875000
v 0.2503029 0.5754145 0.3487924
vt 0.6875000 0.5625000
v 0.2944971 0.5312203 0.3487924
vt 0.5625000 0.5625000
f 121/121 122/122 123/123 124/124
v 0.3232233 0.6483349 0.3631674
vt 0.3125000 0.6875000
v 0.3674175 0.6041407 0.3631674
vt 0.4375000 0.6875000
v 0.2944971 0.5312203 0.3631674
vt 0.4375000 0.5625000
v 0.2503029 0.5754145 0.3631674
vt 0.3125000 0.5625000
f 125/125 126/126 127/127 128/128
v 0.3232233 0.6483349 0.3487924
vt 0.3125000 0.6875000
v 0.3232233 0.6483349 0.3631674
vt 0.4375000 0.6875000
v 0.2503029 0.5754145 0.3631674
vt 0.4375000 0.5625000
v 0.2503029 0.5754145 0.3487924
vt 0.3125000 0.5625000
f 129/129 130/130 131/131 132/132
v 0.3674175 0.6041407 0.3631674
vt 0.3125000 0.6875000
v 0.3674175 0.6041407 0.3487924
vt 0.4375000 0.6875000
v 0.2944971 0.5312203 0.3487924
vt 0.4375000 0.5625000
v 0.2944971 0.5312203 0.3631674
vt 0.3125000 0.5625000
f 133/133 134/134 135/135 136/136
v 0.2503029 0.5754145 0.3487924
vt 0.3125000 0.6875000
v 0.2503029 0.5754145 0.3631674
vt 0.4375000 0.6875000
v 0.2944971 0.5312203 0.3631674
vt 0.4375000 0.5625000
v 0.2944971 0.5312203 0.3487924
vt 0.3125000 0.5625000
f 137/137 138/138 139/139 140/140
v 0.3232233 0.6483349 0.3487924
vt 0.3125000 0.6875000
v 0.3674175 0.6041407 0.3487924
vt 0.4375000 0.6875000
v 0.3674175 0.6041407 0.3631674
vt 0.4375000 0.5625000
v 0.3232233 0.6483349 0.3631674
vt 0.3125000 0.5625000
f 141/141 142/142 143/143 144/144
v 0.7496971 0.5754145 0.3487924
vt 0.5625000 0.6875000
v 0.6767767 0.6483349 0.3487924
vt 0.6875000 0.6875000
v 0.6325825 0.6041407 0.3487924
vt 0.6875000 0.5625000
v 0.7055029 0.5312203 0.3487924
vt 0.5625000 0.5625000
f 145/145 146/146 147/147 148/148
v 0.6767767 0.6483349 0.3631674
vt 0.3125000 0.6875000
v 0.7496971 0.5754145 0.3631674
vt 0.4375000 0.6875000
v 0.7055029 0.5312203 0.3631674
vt 0.4375000 0.5625000
v 0.6325825 0.6041407 0.3631674
vt 0.3125000 0.5625000
f 149/149 150/150 151/151 152/152
v 0.6767767 0.6483349 0.3487924
vt 0.3125000 0.6875000
v 0.6767767 0.6483349 0.3631674
vt 0.4375000 0.6875000
v 0.6325825 0.6041407 0.3631674
vt 0.4375000 0.5625000
v 0.6325825 0.6041407 0.3487924
vt 0.3125000 0.5625000
f 153/153 154/154 155/155 156/156
v 0.7496971 0.5754145 0.3631674
vt 0.3125000 0.6875000
v 0.7496971 0.5754145 0.3487924
vt 0.4375000 0.6875000
v 0.7055029 0.5312203 0.3487924
vt 0.4375000 0.5625000
v 0.7055029 0.5312203 0.3631674
vt 0.3125000 0.5625000
f 157/157 158/158 159/159 160/160
v 0.6325825 0.6041407 0.3487924
vt 0.3125000 0.6875000
v 0.6325825 0.6041407 0.3631674
vt 0.4375000 0.6875000
v 0.7055029 0.5312203 0.3631674
vt 0.4375000 0.5625000
v 0.7055029 0.5312203 0.3487924
vt 0.3125000 0.5625000
f 161/161 162/162 163/163 164/164
v 0.6767767 0.6483349 0.3487924
vt 0.3125000 0.6875000
v 0.7496971 0.5754145 0.3487924
vt 0.4375000 0.6875000
v 0.7496971 0.5754145 0.3631674
vt 0.4375000 0.5625000
v 0.6767767 0.6483349 0.3631674
vt 0.3125000 0.5625000
f 165/165 166/166 167/167 168/168
v 0.4624350 0.6151893 0.3400424
vt 0.5625000 0.6875000
v 0.4116117 0.6660126 0.3400424
vt 0.6875000 0.6875000
v 0.3519495 0.6063504 0.3400424
vt 0.6875000 0.5625000
v 0.4027728 0.5555271 0.3400424
vt 0.5625000 0.5625000
f 169/169 170/170 171/171 172/172
v 0.4116117 0.6660126 0.3631674
vt 0.0625000 0.6875000
v 0.4624350 0.6151893 0.3631674
vt 0.1875000 0.6875000
v 0.4027728 0.5555271 0.3631674
vt 0.1875000 0.5625000
v 0.3519495 0.6063504 0.3631674
vt 0.0625000 0.5625000
f 173/173 174/174 175/175 176/176
v 0.4116117 0.6660126 0.3400424
vt 0.0625000 0.6875000
v 0.4116117 0.6660126 0.3631674
vt 0.1875000 0.6875000
v 0.3519495 0.6063504 0.3631674
vt 0.1875000 0.5625000
v 0.3519495 0.6063504 0.3400424
vt 0.0625000 0.5625000
f 177/177 178/178 179/179 180/180
v 0.4624350 0.6151893 0.3631674
vt 0.0625000 0.6875000
v 0.4624350 0.6151893 0.3400424
vt 0.1875000 0.6875000
v 0.4027728 0.5555271 0.3400424
vt 0.1875000 0.5625000
v 0.4027728 0.5555271 0.3631674
vt 0.0625000 0.5625000
f 181/181 182/182 183/183 184/184
v 0.3519495 0.6063504 0.3400424
vt 0.0625000 0.6875000
v 0.3519495 0.6063504 0.3631674
vt 0.1875000 0.6875000
v 0.4027728 0.5555271 0.3631674
vt 0.1875000 0.5625000
v 0.4027728 0.5555271 0.3400424
vt 0.0625000 0.5625000
f 185/185 186/186 187/187 188/188
v 0.4116117 0.6660126 0.3400424
vt 0.0625000 0.6875000
v 0.4624350 0.6151893 0.3400424
vt 0.1875000 0.6875000
v 0.4624350 0.6151893 0.3631674
vt 0.1875000 0.5625000
v 0.4116117 0.6660126 0.3631674
vt 0.0625000 0.5625000
f 189/189 190/190 191/191 192/192
v 0.6480505 0.6063504 0.3400424
vt 0.3125000 0.6875000
v 0.5883883 0.6660126 0.3400424
vt 0.4375000 0.6875000
v 0.5375650 0.6151893 0.3400424
vt 0.4375000 0.5625000
v 0.5972272 0.5555271 0.3400424
vt 0.3125000 0.5625000
f 193/193 194/194 195/195 196/196
v 0.5883883 0.6660126 0.3631674
vt 0.0625000 0.6875000
v 0.6480505 0.6063504 0.3631674
vt 0.1875000 0.6875000
v 0.5972272 0.5555271 0.3631674
vt 0.1875000 0.5625000
v 0.5375650 0.6151893 0.3631674
vt 0.0625000 0.5625000
f 197/197 198/198 199/199 200/200
v 0.5883883 0.6660126 0.3400424
vt 0.0625000 0.6875000
v 0.5883883 0.6660126 0.3631674
vt 0.1875000 0.6875000
v 0.5375650 0.6151893 0.3631674
vt 0.1875000 0.5625000
v 0.5375650 0.6151893 0.3400424
vt 0.0625000 0.5625000
f 201/201 202/202 203/203 204/204
v 0.6480505 0.6063504 0.3631674
vt 0.0625000 0.6875000
v 0.6480505 0.6063504 0.3400424
vt 0.1875000 0.6875000
v 0.5972272 0.5555271 0.3400424
vt 0.1875000 0.5625000
v 0.5972272 0.5555271 0.3631674
vt 0.0625000 0.5625000
f 205/205 206/206 207/207 208/208
v 0.5375650 0.6151893 0.3400424
vt 0.0625000 0.6875000
v 0.5375650 0.6151893 0.3631674
vt 0.1875000 0.6875000
v 0.5972272 0.5555271 0.3631674
vt 0.1875000 0.5625000
v 0.5972272 0.5555271 0.3400424
vt 0.0625000 0.5625000
f 209/209 210/210 211/211 212/212
v 0.5883883 0.6660126 0.3400424
vt 0.0625000 0.6875000
v 0.6480505 0.6063504 0.3400424
vt 0.1875000 0.6875000
v 0.6480505 0.6063504 0.3631674
vt 0.1875000 0.5625000
v 0.5883883 0.6660126 0.3631674
vt 0.0625000 0.5625000
f 213/213 214/214 215/215 216/216
v 0.5176777 0.6394961 0.3481674
vt 0.0625000 0.6875000
v 0.4845320 0.6726417 0.3481674
vt 0.1875000 0.6875000
v 0.4226602 0.6107699 0.3481674
vt 0.1875000 0.5625000
v 0.4558058 0.5776242 0.3481674
vt 0.0625000 0.5625000
f 217/217 218/218 219/219 220/220
v 0.4845320 0.6726417 0.3644174
vt 0.0625000 0.6875000
v 0.5176777 0.6394961 0.3644174
vt 0.1875000 0.6875000
v 0.4558058 0.5776242 0.3644174
vt 0.1875000 0.5625000
v 0.4226602 0.6107699 0.3644174
vt 0.0625000 0.5625000
f 221/221 222/222 223/223 224/224
v 0.4845320 0.6726417 0.3481674
vt 0.0625000 0.6875000
v 0.4845320 0.6726417 0.3644174
vt 0.1875000 0.6875000
v 0.4226602 0.6107699 0.3644174
vt 0.1875000 0.5625000
v 0.4226602 0.6107699 0.3481674
vt 0.0625000 0.5625000
f 225/225 226/226 227/227 228/228
v 0.5176777 0.6394961 0.3644174
vt 0.0625000 0.6875000
v 0.5176777 0.6394961 0.3481674
vt 0.1875000 0.6875000
v 0.4558058 0.5776242 0.3481674
vt 0.1875000 0.5625000
v 0.4558058 0.5776242 0.3644174
vt 0.0625000 0.5625000
f 229/229 230/230 231/231 232/232
v 0.4226602 0.6107699 0.3481674
vt 0.0625000 0.6875000
v 0.4226602 0.6107699 0.3644174
vt 0.1875000 0.6875000
v 0.4558058 0.5776242 0.3644174
vt 0.1875000 0.5625000
v 0.4558058 0.5776242 0.3481674
vt 0.0625000 0.5625000
f 233/233 234/234 235/235 236/236
v 0.4845320 0.6726417 0.3481674
vt 0.0625000 0.6875000
v 0.5176777 0.6394961 0.3481674
vt 0.1875000 0.6875000
v 0.5176777 0.6394961 0.3644174
vt 0.1875000 0.5625000
v 0.4845320 0.6726417 0.3644174
vt 0.0625000 0.5625000
f 237/237 238/238 239/239 240/240
v 0.5773398 0.6107699 0.3481674
vt 0.0625000 0.6875000
v 0.5154680 0.6726417 0.3481674
vt 0.1875000 0.6875000
v 0.4823223 0.6394961 0.3481674
vt 0.1875000 0.5625000
v 0.5441942 0.5776242 0.3481674
vt 0.0625000 0.5625000
f 241/241 242/242 243/243 244/244
v 0.5154680 0.6726417 0.3644174
vt 0.0625000 0.6875000
v 0.5773398 0.6107699 0.3644174
vt 0.1875000 0.6875000
v 0.5441942 0.5776242 0.3644174
vt 0.1875000 0.5625000
v 0.4823223 0.6394961 0.3644174
vt 0.0625000 0.5625000
f 245/245 246/246 247/247 248/248
v 0.5154680 0.6726417 0.3481674
vt 0.0625000 0.6875000
v 0.5154680 0.6726417 0.3644174
vt 0.1875000 0.6875000
v 0.4823223 0.6394961 0.3644174
vt 0.1875000 0.5625000
v 0.4823223 0.6394961 0.3481674
vt 0.0625000 0.5625000
f 249/249 250/250 251/251 252/252
v 0.5773398 0.6107699 0.3644174
vt 0.0625000 0.6875000
v 0.5773398 0.6107699 0.3481674
vt 0.1875000 0.6875000
v 0.5441942 0.5776242 0.3481674
vt 0.1875000 0.5625000
v 0.5441942 0.5776242 0.3644174
vt 0.0625000 0.5625000
f 253/253 254/254 255/255 256/256
v 0.4823223 0.6394961 0.3481674
vt 0.0625000 0.6875000
v 0.4823223 0.6394961 0.3644174
vt 0.1875000 0.6875000
v 0.5441942 0.5776242 0.3644174
vt 0.1875000 0.5625000
v 0.5441942 0.5776242 0.3481674
vt 0.0625000 0.5625000
f 257/257 258/258 259/259 260/260
v 0.5154680 0.6726417 0.3481674
vt 0.0625000 0.6875000
v 0.5773398 0.6107699 0.3481674
vt 0.1875000 0.6875000
v 0.5773398 0.6107699 0.3644174
vt 0.1875000 0.5625000
v 0.5154680 0.6726417 0.3644174
vt 0.0625000 0.5625000
f 261/261 262/262 263/263 264/264
v 0.5441942 0.7544009 0.3581674
vt 0.8125000 0.4375000
v 0.5000000 0.7985951 0.3581674
vt 0.9375000 0.4375000
v 0.4558058 0.7544009 0.3581674
vt 0.9375000 0.3125000
v 0.5000000 0.7102068 0.3581674
vt 0.8125000 0.3125000
f 265/265 266/266 267/267 268/268
v 0.5000000 0.7985951 0.3731674
vt 0.8125000 0.4375000
v 0.5441942 0.7544009 0.3731674
vt 0.9375000 0.4375000
v 0.5000000 0.7102068 0.3731674
vt 0.9375000 0.3125000
v 0.4558058 0.7544009 0.3731674
vt 0.8125000 0.3125000
f 269/269 270/270 271/271 272/272
v 0.5000000 0.7985951 0.3581674
vt 0.8125000 0.4375000
v 0.5000000 0.7985951 0.3731674
vt 0.9375000 0.4375000
v 0.4558058 0.7544009 0.3731674
vt 0.9375000 0.3125000
v 0.4558058 0.7544009 0.3581674
vt 0.8125000 0.3125000
f 273/273 274/274 275/275 276/276
v 0.5441942 0.7544009 0.3731674
vt 0.8125000 0.4375000
v 0.5441942 0.7544009 0.3581674
vt 0.9375000 0.4375000
v 0.5000000 0.7102068 0.3581674
vt 0.9375000 0.3125000
v 0.5000000 0.7102068 0.3731674
vt 0.8125000 0.3125000
f 277/277 278/278 279/279 280/280
v 0.4558058 0.7544009 0.3581674
vt 0.8125000 0.4375000
v 0.4558058 0.7544009 0.3731674
vt 0.9375000 0.4375000
v 0.5000000 0.7102068 0.3731674
vt 0.9375000 0.3125000
v 0.5000000 0.7102068 0.3581674
vt 0.8125000 0.3125000
f 281/281 282/282 283/283 284/284
v 0.5000000 0.7985951 0.3581674
vt 0.8125000 0.4375000
v 0.5441942 0.7544009 0.3581674
vt 0.9375000 0.4375000
v 0.5441942 0.7544009 0.3731674
vt 0.9375000 0.3125000
v 0.5000000 0.7985951 0.3731674
vt 0.8125000 0.3125000
f 285/285 286/286 287/287 288/288
v 0.3099651 0.5820436 0.3462924
vt 0.8125000 0.6875000
v 0.2834485 0.6085602 0.3462924
vt 0.9375000 0.6875000
v 0.2503029 0.5754145 0.3462924
vt 0.9375000 0.5625000
v 0.2768194 0.5488980 0.3462924
vt 0.8125000 0.5625000
f 289/289 290/290 291/291 292/292
v 0.2834485 0.6085602 0.3562924
vt 0.8125000 0.6875000
v 0.3099651 0.5820436 0.3562924
vt 0.9375000 0.6875000
v 0.2768194 0.5488980 0.3562924
vt 0.9375000 0.5625000
v 0.2503029 0.5754145 0.3562924
vt 0.8125000 0.5625000
f 293/293 294/294 295/295 296/296
v 0.2834485 0.6085602 0.3462924
vt 0.8125000 0.6875000
v 0.2834485 0.6085602 0.3562924
vt 0.9375000 0.6875000
v 0.2503029 0.5754145 0.3562924
vt 0.9375000 0.5625000
v 0.2503029 0.5754145 0.3462924
vt 0.8125000 0.5625000
f 297/297 298/298 299/299 300/300
v 0.3099651 0.5820436 0.3562924
vt 0.8125000 0.6875000
v 0.3099651 0.5820436 0.3462924
vt 0.9375000 0.6875000
v 0.2768194 0.5488980 0.3462924
vt 0.9375000 0.5625000
v 0.2768194 0.5488980 0.3562924
vt 0.8125000 0.5625000
f 301/301 302/302 303/303 304/304
v 0.2503029 0.5754145 0.3462924
vt 0.8125000 0.6875000
v 0.2503029 0.5754145 0.3562924
vt 0.9375000 0.6875000
v 0.2768194 0.5488980 0.3562924
vt 0.9375000 0.5625000
v 0.2768194 0.5488980 0.3462924
vt 0.8125000 0.5625000
f 305/305 306/306 307/307 308/308
v 0.2834485 0.6085602 0.3462924
vt 0.8125000 0.6875000
v 0.3099651 0.5820436 0.3462924
vt 0.9375000 0.6875000
v 0.3099651 0.5820436 0.3562924
vt 0.9375000 0.5625000
v 0.2834485 0.6085602 0.3562924
vt 0.8125000 0.5625000
f 309/309 310/310 311/311 312/312
v 0.7496971 0.5754145 0.3462924
vt 0.5625000 0.6875000
v 0.7165515 0.6085602 0.3462924
vt 0.6875000 0.6875000
v 0.6900349 0.5820436 0.3462924
vt 0.6875000 0.5625000
v 0.7231806 0.5488980 0.3462924
vt 0.5625000 0.5625000
f 313/313 314/314 315/315 316/316
v 0.7165515 0.6085602 0.3562924
vt 0.5625000 0.6875000
v 0.7496971 0.5754145 0.3562924
vt 0.6875000 0.6875000
v 0.7231806 0.5488980 0.3562924
vt 0.6875000 0.5625000
v 0.6900349 0.5820436 0.3562924
vt 0.5625000 0.5625000
f 317/317 318/318 319/319 320/320
v 0.7165515 0.6085602 0.3462924
vt 0.5625000 0.6875000
v 0.7165515 0.6085602 0.3562924
vt 0.6875000 0.6875000
v 0.6900349 0.5820436 0.3562924
vt 0.6875000 0.5625000
v 0.6900349 0.5820436 0.3462924
vt 0.5625000 0.5625000
f 321/321 322/322 323/323 324/324
v 0.7496971 0.5754145 0.3562924
vt 0.5625000 0.6875000
v 0.7496971 0.5754145 0.3462924
vt 0.6875000 0.6875000
v 0.7231806 0.5488980 0.3462924
vt 0.6875000 0.5625000
v 0.7231806 0.5488980 0.3562924
vt 0.5625000 0.5625000
f 325/325 326/326 327/327 328/328
v 0.6900349 0.5820436 0.3462924
vt 0.5625000 0.6875000
v 0.6900349 0.5820436 0.3562924
vt 0.6875000 0.6875000
v 0.7231806 0.5488980 0.3562924
vt 0.6875000 0.5625000
v 0.7231806 0.5488980 0.3462924
vt 0.5625000 0.5625000
f 329/329 330/330 331/331 332/332
v 0.7165515 0.6085602 0.3462924
vt 0.5625000 0.6875000
v 0.7496971 0.5754145 0.3462924
vt 0.6875000 0.6875000
v 0.7496971 0.5754145 0.3562924
vt 0.6875000 0.5625000
v 0.7165515 0.6085602 0.3562924
vt 0.5625000 0.5625000
f 333/333 334/334 335/335 336/336
v 0.3828854 0.4428320 0.3562924
vt 0.0625000 0.4375000
v 0.2149476 0.6107699 0.3562924
vt 0.1875000 0.4375000
v 0.1818019 0.5776242 0.3562924
vt 0.1875000 0.3125000
v 0.3497398 0.4096864 0.3562924
vt 0.0625000 0.3125000
f 337/337 338/338 339/339 340/340
v 0.2149476 0.6107699 0.4812924
vt 0.8125000 0.1875000
v 0.3828854 0.4428320 0.4812924
vt 0.9375000 0.1875000
v 0.3497398 0.4096864 0.4812924
vt 0.9375000 0.0625000
v 0.1818019 0.5776242 0.4812924
vt 0.8125000 0.0625000
f 341/341 342/342 343/343 344/344
v 0.2149476 0.6107699 0.3562924
vt 0.8125000 0.1875000
v 0.2149476 0.6107699 0.4812924
vt 0.9375000 0.1875000
v 0.1818019 0.5776242 0.4812924
vt 0.9375000 0.0625000
v 0.1818019 0.5776242 0.3562924
vt 0.8125000 0.0625000
f 345/345 346/346 347/347 348/348
v 0.3828854 0.4428320 0.4812924
vt 0.8125000 0.1875000
v 0.3828854 0.4428320 0.3562924
vt 0.9375000 0.1875000
v 0.3497398 0.4096864 0.3562924
vt 0.9375000 0.0625000
v 0.3497398 0.4096864 0.4812924
vt 0.8125000 0.0625000
f 349/349 350/350 351/351 352/352
v 0.1818019 0.5776242 0.3562924
vt 0.0625000 0.4375000
v 0.1818019 0.5776242 0.4812924
vt 0.1875000 0.4375000
v 0.3497398 0.4096864 0.4812924
vt 0.1875000 0.3125000
v 0.3497398 0.4096864 0.3562924
vt 0.0625000 0.3125000
f 353/353 354/354 355/355 356/356
v 0.2149476 0.6107699 0.3562924
vt 0.8125000 0.1875000
v 0.3828854 0.4428320 0.3562924
vt 0.9375000 0.1875000
v 0.3828854 0.4428320 0.4812924
vt 0.9375000 0.0625000
v 0.2149476 0.6107699 0.4812924
vt 0.8125000 0.0625000
f 357/357 358/358 359/359 360/360
v 0.8181981 0.5776242 0.3562924
vt 0.0625000 0.4375000
v 0.7850524 0.6107699 0.3562924
vt 0.1875000 0.4375000
v 0.6171146 0.4428320 0.3562924
vt 0.1875000 0.3125000
v 0.6502602 0.4096864 0.3562924
vt 0.0625000 0.3125000
f 361/361 362/362 363/363 364/364
v 0.7850524 0.6107699 0.4812924
vt 0.8125000 0.1875000
v 0.8181981 0.5776242 0.4812924
vt 0.9375000 0.1875000
v 0.6502602 0.4096864 0.4812924
vt 0.9375000 0.0625000
v 0.6171146 0.4428320 0.4812924
vt 0.8125000 0.0625000
f 365/365 366/366 367/367 368/368
v 0.7850524 0.6107699 0.3562924
vt 0.8125000 0.1875000
v 0.7850524 0.6107699 0.4812924
vt 0.9375000 0.1875000
v 0.6171146 0.4428320 0.4812924
vt 0.9375000 0.0625000
v 0.6171146 0.4428320 0.3562924
vt 0.8125000 0.0625000
f 369/369 370/370 371/371 372/372
v 0.8181981 0.5776242 0.4812924
vt 0.0625000 0.4375000
v 0.8181981 0.5776242 0.3562924
vt 0.1875000 0.4375000
v 0.6502602 0.4096864 0.3562924
vt 0.1875000 0.3125000
v 0.6502602 0.4096864 0.4812924
vt 0.0625000 0.3125000
f 373/373 374/374 375/375 376/376
v 0.6171146 0.4428320 0.3562924
vt 0.8125000 0.1875000
v 0.6171146 0.4428320 0.4812924
vt 0.9375000 0.1875000
v 0.6502602 0.4096864 0.4812924
vt 0.9375000 0.0625000
v 0.6502602 0.4096864 0.3562924
vt 0.8125000 0.0625000
f 377/377 378/378 379/379 380/380
v 0.7850524 0.6107699 0.3562924
vt 0.8125000 0.1875000
v 0.8181981 0.5776242 0.3562924
vt 0.9375000 0.1875000
v 0.8181981 0.5776242 0.4812924
vt 0.9375000 0.0625000
v 0.7850524 0.6107699 0.4812924
vt 0.8125000 0.0625000
f 381/381 382/382 383/383 384/384
v 0.4314990 0.7698689 0.3531674
vt 0.5625000 0.1875000
v 0.4027728 0.7985951 0.3531674
vt 0.6875000 0.1875000
v 0.2149476 0.6107699 0.3531674
vt 0.6875000 0.0625000
v 0.2436738 0.5820436 0.3531674
vt 0.5625000 0.0625000
f 385/385 386/386 387/387 388/388
v 0.4027728 0.7985951 0.4831674
vt 0.5625000 0.1875000
v 0.4314990 0.7698689 0.4831674
vt 0.6875000 0.1875000
v 0.2436738 0.5820436 0.4831674
vt 0.6875000 0.0625000
v 0.2149476 0.6107699 0.4831674
vt 0.5625000 0.0625000
f 389/389 390/390 391/391 392/392
v 0.4027728 0.7985951 0.3531674
vt 0.5625000 0.1875000
v 0.4027728 0.7985951 0.4831674
vt 0.6875000 0.1875000
v 0.2149476 0.6107699 0.4831674
vt 0.6875000 0.0625000
v 0.2149476 0.6107699 0.3531674
vt 0.5625000 0.0625000
f 393/393 394/394 395/395 396/396
v 0.4314990 0.7698689 0.4831674
vt 0.5625000 0.1875000
v 0.4314990 0.7698689 0.3531674
vt 0.6875000 0.1875000
v 0.2436738 0.5820436 0.3531674
vt 0.6875000 0.0625000
v 0.2436738 0.5820436 0.4831674
vt 0.5625000 0.0625000
f 397/397 398/398 399/399 400/400
v 0.2149476 0.6107699 0.3531674
vt 0.5625000 0.1875000
v 0.2149476 0.6107699 0.4831674
vt 0.6875000 0.1875000
v 0.2436738 0.5820436 0.4831674
vt 0.6875000 0.0625000
v 0.2436738 0.5820436 0.3531674
vt 0.5625000 0.0625000
f 401/401 402/402 403/403 404/404
v 0.4027728 0.7985951 0.3531674
vt 0.5625000 0.1875000
v 0.4314990 0.7698689 0.3531674
vt 0.6875000 0.1875000
v 0.4314990 0.7698689 0.4831674
vt 0.6875000 0.0625000
v 0.4027728 0.7985951 0.4831674
vt 0.5625000 0.0625000
f 405/405 406/406 407/407 408/408
v 0.7850524 0.6107699 0.3531674
vt 0.5625000 0.1875000
v 0.5972272 0.7985951 0.3531674
vt 0.6875000 0.1875000
v 0.5685010 0.7698689 0.3531674
vt 0.6875000 0.0625000
v 0.7563262 0.5820436 0.3531674
vt 0.5625000 0.0625000
f 409/409 410/410 411/411 412/412
v 0.5972272 0.7985951 0.4831674
vt 0.5625000 0.1875000
v 0.7850524 0.6107699 0.4831674
vt 0.6875000 0.1875000
v 0.7563262 0.5820436 0.4831674
vt 0.6875000 0.0625000
v 0.5685010 0.7698689 0.4831674
vt 0.5625000 0.0625000
f 413/413 414/414 415/415 416/416
v 0.5972272 0.7985951 0.3531674
vt 0.5625000 0.1875000
v 0.5972272 0.7985951 0.4831674
vt 0.6875000 0.1875000
v 0.5685010 0.7698689 0.4831674
vt 0.6875000 0.0625000
v 0.5685010 0.7698689 0.3531674
vt 0.5625000 0.0625000
f 417/417 418/418 419/419 420/420
v 0.7850524 0.6107699 0.4831674
vt 0.5625000 0.1875000
v 0.7850524 0.6107699 0.3531674
vt 0.6875000 0.1875000
v 0.7563262 0.5820436 0.3531674
vt 0.6875000 0.0625000
v 0.7563262 0.5820436 0.4831674
vt 0.5625000 0.0625000
f 421/421 422/422 423/423 424/424
v 0.5685010 0.7698689 0.3531674
vt 0.5625000 0.1875000
v 0.5685010 0.7698689 0.4831674
vt 0.6875000 0.1875000
v 0.7563262 0.5820436 0.4831674
vt 0.6875000 0.0625000
v 0.7563262 0.5820436 0.3531674
vt 0.5625000 0.0625000
f 425/425 426/426 427/427 428/428
v 0.5972272 0.7985951 0.3531674
vt 0.5625000 0.1875000
v 0.7850524 0.6107699 0.3531674
vt 0.6875000 0.1875000
v 0.7850524 0.6107699 0.4831674
vt 0.6875000 0.0625000
v 0.5972272 0.7985951 0.4831674
vt 0.5625000 0.0625000
f 429/429 430/430 431/431 432/432
v 0.4867417 0.5466883 0.3275424
vt 0.5625000 0.1875000
v 0.3806757 0.6527543 0.3275424
vt 0.6875000 0.1875000
v 0.3519495 0.6240281 0.3275424
vt 0.6875000 0.0625000
v 0.4580155 0.5179621 0.3275424
vt 0.5625000 0.0625000
f 433/433 434/434 435/435 436/436
v 0.3806757 0.6527543 0.3587924
vt 0.5625000 0.1875000
v 0.4867417 0.5466883 0.3587924
vt 0.6875000 0.1875000
v 0.4580155 0.5179621 0.3587924
vt 0.6875000 0.0625000
v 0.3519495 0.6240281 0.3587924
vt 0.5625000 0.0625000
f 437/437 438/438 439/439 440/440
v 0.3806757 0.6527543 0.3275424
vt 0.5625000 0.1875000
v 0.3806757 0.6527543 0.3587924
vt 0.6875000 0.1875000
v 0.3519495 0.6240281 0.3587924
vt 0.6875000 0.0625000
v 0.3519495 0.6240281 0.3275424
vt 0.5625000 0.0625000
f 441/441 442/442 443/443 444/444
v 0.4867417 0.5466883 0.3587924
vt 0.5625000 0.1875000
v 0.4867417 0.5466883 0.3275424
vt 0.6875000 0.1875000
v 0.4580155 0.5179621 0.3275424
vt 0.6875000 0.0625000
v 0.4580155 0.5179621 0.3587924
vt 0.5625000 0.0625000
f 445/445 446/446 447/447 448/448
v 0.3519495 0.6240281 0.3275424
vt 0.5625000 0.1875000
v 0.3519495 0.6240281 0.3587924
vt 0.6875000 0.1875000
v 0.4580155 0.5179621 0.3587924
vt 0.6875000 0.0625000
v 0.4580155 0.5179621 0.3275424
vt 0.5625000 0.0625000
f 449/449 450/450 451/451 452/452
v 0.3806757 0.6527543 0.3275424
vt 0.5625000 0.1875000
v 0.4867417 0.5466883 0.3275424
vt 0.6875000 0.1875000
v 0.4867417 0.5466883 0.3587924
vt 0.6875000 0.0625000
v 0.3806757 0.6527543 0.3587924
vt 0.5625000 0.0625000
f 453/453 454/454 455/455 456/456
v 0.6480505 0.6240281 0.3275424
vt 0.5625000 0.1875000
v 0.6193243 0.6527543 0.3275424
vt 0.6875000 0.1875000
v 0.5132583 0.5466883 0.3275424
vt 0.6875000 0.0625000
v 0.5419845 0.5179621 0.3275424
vt 0.5625000 0.0625000
f 457/457 458/458 459/459 460/460
v 0.6193243 0.6527543 0.3587924
vt 0.5625000 0.1875000
v 0.6480505 0.6240281 0.3587924
vt 0.6875000 0.1875000
v 0.5419845 0.5179621 0.3587924
vt 0.6875000 0.0625000
v 0.5132583 0.5466883 0.3587924
vt 0.5625000 0.0625000
f 461/461 462/462 463/463 464/464
v 0.6193243 0.6527543 0.3275424
vt 0.5625000 0.1875000
v 0.6193243 0.6527543 0.3587924
vt 0.6875000 0.1875000
v 0.5132583 0.5466883 0.3587924
vt 0.6875000 0.0625000
v 0.5132583 0.5466883 0.3275424
vt 0.5625000 0.0625000
f 465/465 466/466 467/467 468/468
v 0.6480505 0.6240281 0.3587924
vt 0.5625000 0.1875000
v 0.6480505 0.6240281 0.3275424
vt 0.6875000 0.1875000
v 0.5419845 0.5179621 0.3275424
vt 0.6875000 0.0625000
v 0.5419845 0.5179621 0.3587924
vt 0.5625000 0.0625000
f 469/469 470/470 471/471 472/472
v 0.5132583 0.5466883 0.3275424
vt 0.5625000 0.1875000
v 0.5132583 0.5466883 0.3587924
vt 0.6875000 0.1875000
v 0.5419845 0.5179621 0.3587924
vt 0.6875000 0.0625000
v 0.5419845 0.5179621 0.3275424
vt 0.5625000 0.0625000
f 473/473 474/474 475/475 476/476
v 0.6193243 0.6527543 0.3275424
vt 0.5625000 0.1875000
v 0.6480505 0.6240281 0.3275424
vt 0.6875000 0.1875000
v 0.6480505 0.6240281 0.3587924
vt 0.6875000 0.0625000
v 0.6193243 0.6527543 0.3587924
vt 0.5625000 0.0625000
f 477/477 478/478 479/479 480/480
v 0.4911612 0.8251116 0.3531674
vt 0.0625000 0.1875000
v 0.4602252 0.8560475 0.3531674
vt 0.1875000 0.1875000
v 0.4027728 0.7985951 0.3531674
vt 0.1875000 0.0625000
v 0.4337087 0.7676592 0.3531674
vt 0.0625000 0.0625000
f 481/481 482/482 483/483 484/484
v 0.4602252 0.8560475 0.4831674
vt 0.0625000 0.1875000
v 0.4911612 0.8251116 0.4831674
vt 0.1875000 0.1875000
v 0.4337087 0.7676592 0.4831674
vt 0.1875000 0.0625000
v 0.4027728 0.7985951 0.4831674
vt 0.0625000 0.0625000
f 485/485 486/486 487/487 488/488
v 0.4602252 0.8560475 0.3531674
vt 0.0625000 0.1875000
v 0.4602252 0.8560475 0.4831674
vt 0.1875000 0.1875000
v 0.4027728 0.7985951 0.4831674
vt 0.1875000 0.0625000
v 0.4027728 0.7985951 0.3531674
vt 0.0625000 0.0625000
f 489/489 490/490 491/491 492/492
v 0.4911612 0.8251116 0.4831674
vt 0.0625000 0.1875000
v 0.4911612 0.8251116 0.3531674
vt 0.1875000 0.1875000
v 0.4337087 0.7676592 0.3531674
vt 0.1875000 0.0625000
v 0.4337087 0.7676592 0.4831674
vt 0.0625000 0.0625000
f 493/493 494/494 495/495 496/496
v 0.4027728 0.7985951 0.3531674
vt 0.0625000 0.1875000
v 0.4027728 0.7985951 0.4831674
vt 0.1875000 0.1875000
v 0.4337087 0.7676592 0.4831674
vt 0.1875000 0.0625000
v 0.4337087 0.7676592 0.3531674
vt 0.0625000 0.0625000
f 497/497 498/498 499/499 500/500
v 0.4602252 0.8560475 0.3531674
vt 0.0625000 0.1875000
v 0.4911612 0.8251116 0.3531674
vt 0.1875000 0.1875000
v 0.4911612 0.8251116 0.4831674
vt 0.1875000 0.0625000
v 0.4602252 0.8560475 0.4831674
vt 0.0625000 0.0625000
f 501/501 502/502 503/503 504/504
v 0.5972272 0.7985951 0.3531674
vt 0.0625000 0.1875000
v 0.5397748 0.8560475 0.3531674
vt 0.1875000 0.1875000
v 0.5088388 0.8251116 0.3531674
vt 0.1875000 0.0625000
v 0.5662913 0.7676592 0.3531674
vt 0.0625000 0.0625000
f 505/505 506/506 507/507 508/508
v 0.5397748 0.8560475 0.4831674
vt 0.0625000 0.1875000
v 0.5972272 0.7985951 0.4831674
vt 0.1875000 0.1875000
v 0.5662913 0.7676592 0.4831674
vt 0.1875000 0.0625000
v 0.5088388 0.8251116 0.4831674
vt 0.0625000 0.0625000
f 509/509 510/510 511/511 512/512
v 0.5397748 0.8560475 0.3531674
vt 0.0625000 0.1875000
v 0.5397748 0.8560475 0.4831674
vt 0.1875000 0.1875000
v 0.5088388 0.8251116 0.4831674
vt 0.1875000 0.0625000
v 0.5088388 0.8251116 0.3531674
vt 0.0625000 0.0625000
f 513/513 514/514 515/515 516/516
v 0.5972272 0.7985951 0.4831674
vt 0.0625000 0.1875000
v 0.5972272 0.7985951 0.3531674
vt 0.1875000 0.1875000
v 0.5662913 0.7676592 0.3531674
vt 0.1875000 0.0625000
v 0.5662913 0.7676592 0.4831674
vt 0.0625000 0.0625000
f 517/517 518/518 519/519 520/520
v 0.5088388 0.8251116 0.3531674
vt 0.0625000 0.1875000
v 0.5088388 0.8251116 0.4831674
vt 0.1875000 0.1875000
v 0.5662913 0.7676592 0.4831674
vt 0.1875000 0.0625000
v 0.5662913 0.7676592 0.3531674
vt 0.0625000 0.0625000
f 521/521 522/522 523/523 524/524
v 0.5397748 0.8560475 0.3531674
vt 0.0625000 0.1875000
v 0.5972272 0.7985951 0.3531674
vt 0.1875000 0.1875000
v 0.5972272 0.7985951 0.4831674
vt 0.1875000 0.0625000
v 0.5397748 0.8560475 0.4831674
vt 0.0625000 0.0625000
f 525/525 526/526 527/527 528/528
v 0.2781125 0.4877122 0.3920626
vt 0.3125000 0.4375000
v 0.2554525 0.5199133 0.3920626
vt 0.4375000 0.4375000
v 0.1710779 0.4605386 0.4045625
vt 0.4375000 0.3125000
v 0.1937380 0.4283375 0.4045625
vt 0.3125000 0.3125000
f 529/529 530/530 531/531 532/532
v 0.2593870 0.5226821 0.4317722
vt 0.3125000 0.4375000
v 0.2820471 0.4904809 0.4317722
vt 0.4375000 0.4375000
v 0.1976725 0.4311062 0.4442721
vt 0.4375000 0.3125000
v 0.1750125 0.4633074 0.4442721
vt 0.3125000 0.3125000
f 533/533 534/534 535/535 536/536
v 0.2554525 0.5199133 0.3920626
vt 0.5625000 0.9375000
v 0.2593870 0.5226821 0.4317722
vt 0.6875000 0.9375000
v 0.1750125 0.4633074 0.4442721
vt 0.6875000 0.8125000
v 0.1710779 0.4605386 0.4045625
vt 0.5625000 0.8125000
f 537/537 538/538 539/539 540/540
v 0.2820471 0.4904809 0.4317722
vt 0.0625000 0.4375000
v 0.2781125 0.4877122 0.3920626
vt 0.1875000 0.4375000
v 0.1937380 0.4283375 0.4045625
vt 0.1875000 0.3125000
v 0.1976725 0.4311062 0.4442721
vt 0.0625000 0.3125000
f 541/541 542/542 543/543 544/544
v 0.1710779 0.4605386 0.4045625
vt 0.5625000 0.4375000
v 0.1750125 0.4633074 0.4442721
vt 0.6875000 0.4375000
v 0.1976725 0.4311062 0.4442721
vt 0.6875000 0.3125000
v 0.1937380 0.4283375 0.4045625
vt 0.5625000 0.3125000
f 545/545 546/546 547/547 548/548
v 0.2554525 0.5199133 0.3920626
vt 0.0625000 0.4375000
v 0.2781125 0.4877122 0.3920626
vt 0.1875000 0.4375000
v 0.2820471 0.4904809 0.4317722
vt 0.1875000 0.3125000
v 0.2593870 0.5226821 0.4317722
vt 0.0625000 0.3125000
f 549/549 550/550 551/551 552/552
v 0.2031512 0.4329344 0.4080175
vt 0.3125000 0.4375000
v 0.1638865 0.4358792 0.4080175
vt 0.4375000 0.4375000
v 0.1545115 0.3108790 0.4955177
vt 0.4375000 0.3125000
v 0.1937762 0.3079341 0.4955177
vt 0.3125000 0.3125000
f 553/553 554/554 555/555 556/556
v 0.1655988 0.4587104 0.4408170
vt 0.3125000 0.4375000
v 0.2048635 0.4557656 0.4408170
vt 0.4375000 0.4375000
v 0.1954885 0.3307653 0.5283172
vt 0.4375000 0.3125000
v 0.1562238 0.3337102 0.5283172
vt 0.3125000 0.3125000
f 557/557 558/558 559/559 560/560
v 0.1638865 0.4358792 0.4080175
vt 0.5625000 0.9375000
v 0.1655988 0.4587104 0.4408170
vt 0.6875000 0.9375000
v 0.1562238 0.3337102 0.5283172
vt 0.6875000 0.8125000
v 0.1545115 0.3108790 0.4955177
vt 0.5625000 0.8125000
f 561/561 562/562 563/563 564/564
v 0.2048635 0.4557656 0.4408170
vt 0.0625000 0.4375000
v 0.2031512 0.4329344 0.4080175
vt 0.1875000 0.4375000
v 0.1937762 0.3079341 0.4955177
vt 0.1875000 0.3125000
v 0.1954885 0.3307653 0.5283172
vt 0.0625000 0.3125000
f 565/565 566/566 567/567 568/568
v 0.1545115 0.3108790 0.4955177
vt 0.5625000 0.4375000
v 0.1562238 0.3337102 0.5283172
vt 0.6875000 0.4375000
v 0.1954885 0.3307653 0.5283172
vt 0.6875000 0.3125000
v 0.1937762 0.3079341 0.4955177
vt 0.5625000 0.3125000
f 569/569 570/570 571/571 572/572
v 0.1638865 0.4358792 0.4080175
vt 0.0625000 0.4375000
v 0.2031512 0.4329344 0.4080175
vt 0.1875000 0.4375000
v 0.2048635 0.4557656 0.4408170
vt 0.1875000 0.3125000
v 0.1655988 0.4587104 0.4408170
vt 0.0625000 0.3125000
f 573/573 574/574 575/575 576/576
v 0.1972091 0.3174893 0.4950874
vt 0.3125000 0.4375000
v 0.1602618 0.3038771 0.4950874
vt 0.4375000 0.4375000
v 0.2040118 0.1851272 0.5763374
vt 0.4375000 0.3125000
v 0.2409590 0.1987394 0.5763374
vt 0.3125000 0.3125000
f 577/577 578/578 579/579 580/580
v 0.1527910 0.3241552 0.5287473
vt 0.3125000 0.4375000
v 0.1897382 0.3377673 0.5287473
vt 0.4375000 0.4375000
v 0.2334882 0.2190174 0.6099973
vt 0.4375000 0.3125000
v 0.1965409 0.2054053 0.6099973
vt 0.3125000 0.3125000
f 581/581 582/582 583/583 584/584
v 0.1602618 0.3038771 0.4950874
vt 0.5625000 0.9375000
v 0.1527910 0.3241552 0.5287473
vt 0.6875000 0.9375000
v 0.1965409 0.2054053 0.6099973
vt 0.6875000 0.8125000
v 0.2040118 0.1851272 0.5763374
vt 0.5625000 0.8125000
f 585/585 586/586 587/587 588/588
v 0.1897382 0.3377673 0.5287473
vt 0.0625000 0.4375000
v 0.1972091 0.3174893 0.4950874
vt 0.1875000 0.4375000
v 0.2409590 0.1987394 0.5763374
vt 0.1875000 0.3125000
v 0.2334882 0.2190174 0.6099973
vt 0.0625000 0.3125000
f 589/589 590/590 591/591 592/592
v 0.2040118 0.1851272 0.5763374
vt 0.5625000 0.4375000
v 0.1965409 0.2054053 0.6099973
vt 0.6875000 0.4375000
v 0.2334882 0.2190174 0.6099973
vt 0.6875000 0.3125000
v 0.2409590 0.1987394 0.5763374
vt 0.5625000 0.3125000
f 593/593 594/594 595/595 596/596
v 0.1602618 0.3038771 0.4950874
vt 0.0625000 0.4375000
v 0.1972091 0.3174893 0.4950874
vt 0.1875000 0.4375000
v 0.1897382 0.3377673 0.5287473
vt 0.1875000 0.3125000
v 0.1527910 0.3241552 0.5287473
vt 0.0625000 0.3125000
f 597/597 598/598 599/599 600/600
v 0.2341709 0.2158691 0.5742084
vt 0.3125000 0.4375000
v 0.2143309 0.1818578 0.5742084
vt 0.4375000 0.4375000
v 0.3268312 0.1162326 0.6179585
vt 0.4375000 0.3125000
v 0.3466711 0.1502439 0.6179585
vt 0.3125000 0.3125000
f 601/601 602/602 603/603 604/604
v 0.2033289 0.1882757 0.6121262
vt 0.3125000 0.4375000
v 0.2231688 0.2222869 0.6121262
vt 0.4375000 0.4375000
v 0.3356691 0.1566618 0.6558763
vt 0.4375000 0.3125000
v 0.3158291 0.1226505 0.6558763
vt 0.3125000 0.3125000
f 605/605 606/606 607/607 608/608
v 0.2143309 0.1818578 0.5742084
vt 0.5625000 0.9375000
v 0.2033289 0.1882757 0.6121262
vt 0.6875000 0.9375000
v 0.3158291 0.1226505 0.6558763
vt 0.6875000 0.8125000
v 0.3268312 0.1162326 0.6179585
vt 0.5625000 0.8125000
f 609/609 610/610 611/611 612/612
v 0.2231688 0.2222869 0.6121262
vt 0.0625000 0.4375000
v 0.2341709 0.2158691 0.5742084
vt 0.1875000 0.4375000
v 0.3466711 0.1502439 0.6179585
vt 0.1875000 0.3125000
v 0.3356691 0.1566618 0.6558763
vt 0.0625000 0.3125000
f 613/613 614/614 615/615 616/616
v 0.3268312 0.1162326 0.6179585
vt 0.5625000 0.4375000
v 0.3158291 0.1226505 0.6558763
vt 0.6875000 0.4375000
v 0.3356691 0.1566618 0.6558763
vt 0.6875000 0.3125000
v 0.3466711 0.1502439 0.6179585
vt 0.5625000 0.3125000
f 617/617 618/618 619/619 620/620
v 0.2143309 0.1818578 0.5742084
vt 0.0625000 0.4375000
v 0.2341709 0.2158691 0.5742084
vt 0.1875000 0.4375000
v 0.2231688 0.2222869 0.6121262
vt 0.1875000 0.3125000
v 0.2033289 0.1882757 0.6121262
vt 0.0625000 0.3125000
f 621/621 622/622 623/623 624/624
v 0.3345381 0.1559451 0.6170021
vt 0.3125000 0.4375000
v 0.3316294 0.1166777 0.6170021
vt 0.4375000 0.4375000
v 0.5003797 0.1041777 0.6326271
vt 0.4375000 0.3125000
v 0.5032884 0.1434451 0.6326271
vt 0.3125000 0.3125000
f 625/625 626/626 627/627 628/628
v 0.3279616 0.1169494 0.6568326
vt 0.3125000 0.4375000
v 0.3308703 0.1562168 0.6568326
vt 0.4375000 0.4375000
v 0.4996206 0.1437168 0.6724576
vt 0.4375000 0.3125000
v 0.4967119 0.1044494 0.6724576
vt 0.3125000 0.3125000
f 629/629 630/630 631/631 632/632
v 0.3316294 0.1166777 0.6170021
vt 0.5625000 0.9375000
v 0.3279616 0.1169494 0.6568326
vt 0.6875000 0.9375000
v 0.4967119 0.1044494 0.6724576
vt 0.6875000 0.8125000
v 0.5003797 0.1041777 0.6326271
vt 0.5625000 0.8125000
f 633/633 634/634 635/635 636/636
v 0.3308703 0.1562168 0.6568326
vt 0.0625000 0.4375000
v 0.3345381 0.1559451 0.6170021
vt 0.1875000 0.4375000
v 0.5032884 0.1434451 0.6326271
vt 0.1875000 0.3125000
v 0.4996206 0.1437168 0.6724576
vt 0.0625000 0.3125000
f 637/637 638/638 639/639 640/640
v 0.5003797 0.1041777 0.6326271
vt 0.5625000 0.4375000
v 0.4967119 0.1044494 0.6724576
vt 0.6875000 0.4375000
v 0.4996206 0.1437168 0.6724576
vt 0.6875000 0.3125000
v 0.5032884 0.1434451 0.6326271
vt 0.5625000 0.3125000
f 641/641 642/642 643/643 644/644
v 0.3316294 0.1166777 0.6170021
vt 0.0625000 0.4375000
v 0.3345381 0.1559451 0.6170021
vt 0.1875000 0.4375000
v 0.3308703 0.1562168 0.6568326
vt 0.1875000 0.3125000
v 0.3279616 0.1169494 0.6568326
vt 0.0625000 0.3125000
f 645/645 646/646 647/647 648/648
v 0.4967116 0.1434451 0.6326271
vt 0.3125000 0.4375000
v 0.4996203 0.1041777 0.6326271
vt 0.4375000 0.4375000
v 0.6683706 0.1166777 0.6170021
vt 0.4375000 0.3125000
v 0.6654619 0.1559451 0.6170021
vt 0.3125000 0.3125000
f 649/649 650/650 651/651 652/652
v 0.5032881 0.1044494 0.6724576
vt 0.3125000 0.4375000
v 0.5003794 0.1437168 0.6724576
vt 0.4375000 0.4375000
v 0.6691297 0.1562168 0.6568326
vt 0.4375000 0.3125000
v 0.6720384 0.1169494 0.6568326
vt 0.3125000 0.3125000
f 653/653 654/654 655/655 656/656
v 0.4996203 0.1041777 0.6326271
vt 0.5625000 0.9375000
v 0.5032881 0.1044494 0.6724576
vt 0.6875000 0.9375000
v 0.6720384 0.1169494 0.6568326
vt 0.6875000 0.8125000
v 0.6683706 0.1166777 0.6170021
vt 0.5625000 0.8125000
f 657/657 658/658 659/659 660/660
v 0.5003794 0.1437168 0.6724576
vt 0.0625000 0.4375000
v 0.4967116 0.1434451 0.6326271
vt 0.1875000 0.4375000
v 0.6654619 0.1559451 0.6170021
vt 0.1875000 0.3125000
v 0.6691297 0.1562168 0.6568326
vt 0.0625000 0.3125000
f 661/661 662/662 663/663 664/664
v 0.6683706 0.1166777 0.6170021
vt 0.5625000 0.4375000
v 0.6720384 0.1169494 0.6568326
vt 0.6875000 0.4375000
v 0.6691297 0.1562168 0.6568326
vt 0.6875000 0.3125000
v 0.6654619 0.1559451 0.6170021
vt 0.5625000 0.3125000
f 665/665 666/666 667/667 668/668
v 0.4996203 0.1041777 0.6326271
vt 0.0625000 0.4375000
v 0.4967116 0.1434451 0.6326271
vt 0.1875000 0.4375000
v 0.5003794 0.1437168 0.6724576
vt 0.1875000 0.3125000
v 0.5032881 0.1044494 0.6724576
vt 0.0625000 0.3125000
f 669/669 670/670 671/671 672/672
v 0.6533289 0.1502439 0.6179585
vt 0.3125000 0.4375000
v 0.6731688 0.1162326 0.6179585
vt 0.4375000 0.4375000
v 0.7856691 0.1818578 0.5742084
vt 0.4375000 0.3125000
v 0.7658291 0.2158691 0.5742084
vt 0.3125000 0.3125000
f 673/673 674/674 675/675 676/676
v 0.6841709 0.1226505 0.6558763
vt 0.3125000 0.4375000
v 0.6643309 0.1566618 0.6558763
vt 0.4375000 0.4375000
v 0.7768312 0.2222869 0.6121262
vt 0.4375000 0.3125000
v 0.7966711 0.1882757 0.6121262
vt 0.3125000 0.3125000
f 677/677 678/678 679/679 680/680
v 0.6731688 0.1162326 0.6179585
vt 0.5625000 0.9375000
v 0.6841709 0.1226505 0.6558763
vt 0.6875000 0.9375000
v 0.7966711 0.1882757 0.6121262
vt 0.6875000 0.8125000
v 0.7856691 0.1818578 0.5742084
vt 0.5625000 0.8125000
f 681/681 682/682 683/683 684/684
v 0.6643309 0.1566618 0.6558763
vt 0.0625000 0.4375000
v 0.6533289 0.1502439 0.6179585
vt 0.1875000 0.4375000
v 0.7658291 0.2158691 0.5742084
vt 0.1875000 0.3125000
v 0.7768312 0.2222869 0.6121262
vt 0.0625000 0.3125000
f 685/685 686/686 687/687 688/688
v 0.7856691 0.1818578 0.5742084
vt 0.5625000 0.4375000
v 0.7966711 0.1882757 0.6121262
vt 0.6875000 0.4375000
v 0.7768312 0.2222869 0.6121262
vt 0.6875000 0.3125000
v 0.7658291 0.2158691 0.5742084
vt 0.5625000 0.3125000
f 689/689 690/690 691/691 692/692
v 0.6731688 0.1162326 0.6179585
vt 0.0625000 0.4375000
v 0.6533289 0.1502439 0.6179585
vt 0.1875000 0.4375000
v 0.6643309 0.1566618 0.6558763
vt 0.1875000 0.3125000
v 0.6841709 0.1226505 0.6558763
vt 0.0625000 0.3125000
f 693/693 694/694 695/695 696/696
v 0.7590410 0.1987394 0.5763374
vt 0.3125000 0.4375000
v 0.7959882 0.1851272 0.5763374
vt 0.4375000 0.4375000
v 0.8397382 0.3038771 0.4950874
vt 0.4375000 0.3125000
v 0.8027909 0.3174893 0.4950874
vt 0.3125000 0.3125000
f 697/697 698/698 699/699 700/700
v 0.8034591 0.2054053 0.6099973
vt 0.3125000 0.4375000
v 0.7665118 0.2190174 0.6099973
vt 0.4375000 0.4375000
v 0.8102618 0.3377673 0.5287473
vt 0.4375000 0.3125000
v 0.8472090 0.3241552 0.5287473
vt 0.3125000 0.3125000
f 701/701 702/702 703/703 704/704
v 0.7959882 0.1851272 0.5763374
vt 0.5625000 0.9375000
v 0.8034591 0.2054053 0.6099973
vt 0.6875000 0.9375000
v 0.8472090 0.3241552 0.5287473
vt 0.6875000 0.8125000
v 0.8397382 0.3038771 0.4950874
vt 0.5625000 0.8125000
f 705/705 706/706 707/707 708/708
v 0.7665118 0.2190174 0.6099973
vt 0.0625000 0.4375000
v 0.7590410 0.1987394 0.5763374
vt 0.1875000 0.4375000
v 0.8027909 0.3174893 0.4950874
vt 0.1875000 0.3125000
v 0.8102618 0.3377673 0.5287473
vt 0.0625000 0.3125000
f 709/709 710/710 711/711 712/712
v 0.8397382 0.3038771 0.4950874
vt 0.5625000 0.4375000
v 0.8472090 0.3241552 0.5287473
vt 0.6875000 0.4375000
v 0.8102618 0.3377673 0.5287473
vt 0.6875000 0.3125000
v 0.8027909 0.3174893 0.4950874
vt 0.5625000 0.3125000
f 713/713 714/714 715/715 716/716
v 0.7959882 0.1851272 0.5763374
vt 0.0625000 0.4375000
v 0.7590410 0.1987394 0.5763374
vt 0.1875000 0.4375000
v 0.7665118 0.2190174 0.6099973
vt 0.1875000 0.3125000
v 0.8034591 0.2054053 0.6099973
vt 0.0625000 0.3125000
f 717/717 718/718 719/719 720/720
v 0.8062238 0.3079341 0.4955177
vt 0.3125000 0.4375000
v 0.8454885 0.3108790 0.4955177
vt 0.4375000 0.4375000
v 0.8361135 0.4358792 0.4080175
vt 0.4375000 0.3125000
v 0.7968488 0.4329344 0.4080175
vt 0.3125000 0.3125000
f 721/721 722/722 723/723 724/724
v 0.8437762 0.3337102 0.5283172
vt 0.3125000 0.4375000
v 0.8045115 0.3307653 0.5283172
vt 0.4375000 0.4375000
v 0.7951365 0.4557656 0.4408170
vt 0.4375000 0.3125000
v 0.8344012 0.4587104 0.4408170
vt 0.3125000 0.3125000
f 725/725 726/726 727/727 728/728
v 0.8454885 0.3108790 0.4955177
vt 0.5625000 0.9375000
v 0.8437762 0.3337102 0.5283172
vt 0.6875000 0.9375000
v 0.8344012 0.4587104 0.4408170
vt 0.6875000 0.8125000
v 0.8361135 0.4358792 0.4080175
vt 0.5625000 0.8125000
f 729/729 730/730 731/731 732/732
v 0.8045115 0.3307653 0.5283172
vt 0.0625000 0.4375000
v 0.8062238 0.3079341 0.4955177
vt 0.1875000 0.4375000
v 0.7968488 0.4329344 0.4080175
vt 0.1875000 0.3125000
v 0.7951365 0.4557656 0.4408170
vt 0.0625000 0.3125000
f 733/733 734/734 735/735 736/736
v 0.8361135 0.4358792 0.4080175
vt 0.5625000 0.4375000
v 0.8344012 0.4587104 0.4408170
vt 0.6875000 0.4375000
v 0.7951365 0.4557656 0.4408170
vt 0.6875000 0.3125000
v 0.7968488 0.4329344 0.4080175
vt 0.5625000 0.3125000
f 737/737 738/738 739/739 740/740
v 0.8454885 0.3108790 0.4955177
vt 0.0625000 0.4375000
v 0.8062238 0.3079341 0.4955177
vt 0.1875000 0.4375000
v 0.8045115 0.3307653 0.5283172
vt 0.1875000 0.3125000
v 0.8437762 0.3337102 0.5283172
vt 0.0625000 0.3125000
f 741/741 742/742 743/743 744/744
v 0.8062620 0.4283375 0.4045625
vt 0.3125000 0.4375000
v 0.8289221 0.4605386 0.4045625
vt 0.4375000 0.4375000
v 0.7445475 0.5199133 0.3920626
vt 0.4375000 0.3125000
v 0.7218875 0.4877122 0.3920626
vt 0.3125000 0.3125000
f 745/745 746/746 747/747 748/748
v 0.8249875 0.4633074 0.4442721
vt 0.3125000 0.4375000
v 0.8023275 0.4311062 0.4442721
vt 0.4375000 0.4375000
v 0.7179529 0.4904809 0.4317722
vt 0.4375000 0.3125000
v 0.7406130 0.5226821 0.4317722
vt 0.3125000 0.3125000
f 749/749 750/750 751/751 752/752
v 0.8289221 0.4605386 0.4045625
vt 0.5625000 0.9375000
v 0.8249875 0.4633074 0.4442721
vt 0.6875000 0.9375000
v 0.7406130 0.5226821 0.4317722
vt 0.6875000 0.8125000
v 0.7445475 0.5199133 0.3920626
vt 0.5625000 0.8125000
f 753/753 754/754 755/755 756/756
v 0.8023275 0.4311062 0.4442721
vt 0.0625000 0.4375000
v 0.8062620 0.4283375 0.4045625
vt 0.1875000 0.4375000
v 0.7218875 0.4877122 0.3920626
vt 0.1875000 0.3125000
v 0.7179529 0.4904809 0.4317722
vt 0.0625000 0.3125000
f 757/757 758/758 759/759 760/760
v 0.7445475 0.5199133 0.3920626
vt 0.5625000 0.4375000
v 0.7406130 0.5226821 0.4317722
vt 0.6875000 0.4375000
v 0.7179529 0.4904809 0.4317722
vt 0.6875000 0.3125000
v 0.7218875 0.4877122 0.3920626
vt 0.5625000 0.3125000
f 761/761 762/762 763/763 764/764
v 0.8289221 0.4605386 0.4045625
vt 0.0625000 0.4375000
v 0.8062620 0.4283375 0.4045625
vt 0.1875000 0.4375000
v 0.8023275 0.4311062 0.4442721
vt 0.1875000 0.3125000
v 0.8249875 0.4633074 0.4442721
vt 0.0625000 0.3125000
f 765/765 766/766 767/767 768/768
v 0.4779029 0.7323038 0.3431674
vt 0.0625000 0.1875000
v 0.4314990 0.7787077 0.3431674
vt 0.1875000 0.1875000
v 0.3917243 0.7389330 0.3431674
vt 0.1875000 0.0625000
v 0.4381282 0.6925291 0.3431674
vt 0.0625000 0.0625000
f 769/769 770/770 771/771 772/772
v 0.4314990 0.7787077 0.3650424
vt 0.0625000 0.1875000
v 0.4779029 0.7323038 0.3650424
vt 0.1875000 0.1875000
v 0.4381282 0.6925291 0.3650424
vt 0.1875000 0.0625000
v 0.3917243 0.7389330 0.3650424
vt 0.0625000 0.0625000
f 773/773 774/774 775/775 776/776
v 0.4314990 0.7787077 0.3431674
vt 0.0625000 0.1875000
v 0.4314990 0.7787077 0.3650424
vt 0.1875000 0.1875000
v 0.3917243 0.7389330 0.3650424
vt 0.1875000 0.0625000
v 0.3917243 0.7389330 0.3431674
vt 0.0625000 0.0625000
f 777/777 778/778 779/779 780/780
v 0.4779029 0.7323038 0.3650424
vt 0.0625000 0.1875000
v 0.4779029 0.7323038 0.3431674
vt 0.1875000 0.1875000
v 0.4381282 0.6925291 0.3431674
vt 0.1875000 0.0625000
v 0.4381282 0.6925291 0.3650424
vt 0.0625000 0.0625000
f 781/781 782/782 783/783 784/784
v 0.3917243 0.7389330 0.3431674
vt 0.0625000 0.1875000
v 0.3917243 0.7389330 0.3650424
vt 0.1875000 0.1875000
v 0.4381282 0.6925291 0.3650424
vt 0.1875000 0.0625000
v 0.4381282 0.6925291 0.3431674
vt 0.0625000 0.0625000
f 785/785 786/786 787/787 788/788
v 0.4314990 0.7787077 0.3431674
vt 0.0625000 0.1875000
v 0.4779029 0.7323038 0.3431674
vt 0.1875000 0.1875000
v 0.4779029 0.7323038 0.3650424
vt 0.1875000 0.0625000
v 0.4314990 0.7787077 0.3650424
vt 0.0625000 0.0625000
f 789/789 790/790 791/791 792/792
v 0.6082757 0.7389330 0.3431674
vt 0.0625000 0.1875000
v 0.5685010 0.7787077 0.3431674
vt 0.1875000 0.1875000
v 0.5220971 0.7323038 0.3431674
vt 0.1875000 0.0625000
v 0.5618718 0.6925291 0.3431674
vt 0.0625000 0.0625000
f 793/793 794/794 795/795 796/796
v 0.5685010 0.7787077 0.3650424
vt 0.0625000 0.1875000
v 0.6082757 0.7389330 0.3650424
vt 0.1875000 0.1875000
v 0.5618718 0.6925291 0.3650424
vt 0.1875000 0.0625000
v 0.5220971 0.7323038 0.3650424
vt 0.0625000 0.0625000
f 797/797 798/798 799/799 800/800
v 0.5685010 0.7787077 0.3431674
vt 0.0625000 0.1875000
v 0.5685010 0.7787077 0.3650424
vt 0.1875000 0.1875000
v 0.5220971 0.7323038 0.3650424
vt 0.1875000 0.0625000
v 0.5220971 0.7323038 0.3431674
vt 0.0625000 0.0625000
f 801/801 802/802 803/803 804/804
v 0.6082757 0.7389330 0.3650424
vt 0.0625000 0.1875000
v 0.6082757 0.7389330 0.3431674
vt 0.1875000 0.1875000
v 0.5618718 0.6925291 0.3431674
vt 0.1875000 0.0625000
v 0.5618718 0.6925291 0.3650424
vt 0.0625000 0.0625000
f 805/805 806/806 807/807 808/808
v 0.5220971 0.7323038 0.3431674
vt 0.0625000 0.1875000
v 0.5220971 0.7323038 0.3650424
vt 0.1875000 0.1875000
v 0.5618718 0.6925291 0.3650424
vt 0.1875000 0.0625000
v 0.5618718 0.6925291 0.3431674
vt 0.0625000 0.0625000
f 809/809 810/810 811/811 812/812
v 0.5685010 0.7787077 0.3431674
vt 0.0625000 0.1875000
v 0.6082757 0.7389330 0.3431674
vt 0.1875000 0.1875000
v 0.6082757 0.7389330 0.3650424
vt 0.1875000 0.0625000
v 0.5685010 0.7787077 0.3650424
vt 0.0625000 0.0625000
f 813/813 814/814 815/815 816/816
v 0.4403379 0.6903194 0.3319174
vt 0.3125000 0.1875000
v 0.4094019 0.7212553 0.3319174
vt 0.4375000 0.1875000
v 0.3541592 0.6660126 0.3319174
vt 0.4375000 0.0625000
v 0.3850951 0.6350767 0.3319174
vt 0.3125000 0.0625000
f 817/817 818/818 819/819 820/820
v 0.4094019 0.7212553 0.3619174
vt 0.3125000 0.1875000
v 0.4403379 0.6903194 0.3619174
vt 0.4375000 0.1875000
v 0.3850951 0.6350767 0.3619174
vt 0.4375000 0.0625000
v 0.3541592 0.6660126 0.3619174
vt 0.3125000 0.0625000
f 821/821 822/822 823/823 824/824
v 0.4094019 0.7212553 0.3319174
vt 0.3125000 0.1875000
v 0.4094019 0.7212553 0.3619174
vt 0.4375000 0.1875000
v 0.3541592 0.6660126 0.3619174
vt 0.4375000 0.0625000
v 0.3541592 0.6660126 0.3319174
vt 0.3125000 0.0625000
f 825/825 826/826 827/827 828/828
v 0.4403379 0.6903194 0.3619174
vt 0.3125000 0.1875000
v 0.4403379 0.6903194 0.3319174
vt 0.4375000 0.1875000
v 0.3850951 0.6350767 0.3319174
vt 0.4375000 0.0625000
v 0.3850951 0.6350767 0.3619174
vt 0.3125000 0.0625000
f 829/829 830/830 831/831 832/832
v 0.3541592 0.6660126 0.3319174
vt 0.3125000 0.1875000
v 0.3541592 0.6660126 0.3619174
vt 0.4375000 0.1875000
v 0.3850951 0.6350767 0.3619174
vt 0.4375000 0.0625000
v 0.3850951 0.6350767 0.3319174
vt 0.3125000 0.0625000
f 833/833 834/834 835/835 836/836
v 0.4094019 0.7212553 0.3319174
vt 0.3125000 0.1875000
v 0.4403379 0.6903194 0.3319174
vt 0.4375000 0.1875000
v 0.4403379 0.6903194 0.3619174
vt 0.4375000 0.0625000
v 0.4094019 0.7212553 0.3619174
vt 0.3125000 0.0625000
f 837/837 838/838 839/839 840/840
v 0.6458408 0.6660126 0.3319174
vt 0.3125000 0.1875000
v 0.5905981 0.7212553 0.3319174
vt 0.4375000 0.1875000
v 0.5596621 0.6903194 0.3319174
vt 0.4375000 0.0625000
v 0.6149049 0.6350767 0.3319174
vt 0.3125000 0.0625000
f 841/841 842/842 843/843 844/844
v 0.5905981 0.7212553 0.3619174
vt 0.3125000 0.1875000
v 0.6458408 0.6660126 0.3619174
vt 0.4375000 0.1875000
v 0.6149049 0.6350767 0.3619174
vt 0.4375000 0.0625000
v 0.5596621 0.6903194 0.3619174
vt 0.3125000 0.0625000
f 845/845 846/846 847/847 848/848
v 0.5905981 0.7212553 0.3319174
vt 0.3125000 0.1875000
v 0.5905981 0.7212553 0.3619174
vt 0.4375000 0.1875000
v 0.5596621 0.6903194 0.3619174
vt 0.4375000 0.0625000
v 0.5596621 0.6903194 0.3319174
vt 0.3125000 0.0625000
f 849/849 850/850 851/851 852/852
v 0.6458408 0.6660126 0.3619174
vt 0.3125000 0.1875000
v 0.6458408 0.6660126 0.3319174
vt 0.4375000 0.1875000
v 0.6149049 0.6350767 0.3319174
vt 0.4375000 0.0625000
v 0.6149049 0.6350767 0.3619174
vt 0.3125000 0.0625000
f 853/853 854/854 855/855 856/856
v 0.5596621 0.6903194 0.3319174
vt 0.3125000 0.1875000
v 0.5596621 0.6903194 0.3619174
vt 0.4375000 0.1875000
v 0.6149049 0.6350767 0.3619174
vt 0.4375000 0.0625000
v 0.6149049 0.6350767 0.3319174
vt 0.3125000 0.0625000
f 857/857 858/858 859/859 860/860
v 0.5905981 0.7212553 0.3319174
vt 0.3125000 0.1875000
v 0.6458408 0.6660126 0.3319174
vt 0.4375000 0.1875000
v 0.6458408 0.6660126 0.3619174
vt 0.4375000 0.0625000
v 0.5905981 0.7212553 0.3619174
vt 0.3125000 0.0625000
f 861/861 862/862 863/863 864/864
v 0.3033359 0.6814805 0.3544174
vt 0.5625000 0.1875000
v 0.2746097 0.7102068 0.3544174
vt 0.6875000 0.1875000
v 0.2237864 0.6593835 0.3544174
vt 0.6875000 0.0625000
v 0.2525126 0.6306572 0.3544174
vt 0.5625000 0.0625000
f 865/865 866/866 867/867 868/868
v 0.2746097 0.7102068 0.4669174
vt 0.5625000 0.1875000
v 0.3033359 0.6814805 0.4669174
vt 0.6875000 0.1875000
v 0.2525126 0.6306572 0.4669174
vt 0.6875000 0.0625000
v 0.2237864 0.6593835 0.4669174
vt 0.5625000 0.0625000
f 869/869 870/870 871/871 872/872
v 0.2746097 0.7102068 0.3544174
vt 0.5625000 0.1875000
v 0.2746097 0.7102068 0.4669174
vt 0.6875000 0.1875000
v 0.2237864 0.6593835 0.4669174
vt 0.6875000 0.0625000
v 0.2237864 0.6593835 0.3544174
vt 0.5625000 0.0625000
f 873/873 874/874 875/875 876/876
v 0.3033359 0.6814805 0.4669174
vt 0.5625000 0.1875000
v 0.3033359 0.6814805 0.3544174
vt 0.6875000 0.1875000
v 0.2525126 0.6306572 0.3544174
vt 0.6875000 0.0625000
v 0.2525126 0.6306572 0.4669174
vt 0.5625000 0.0625000
f 877/877 878/878 879/879 880/880
v 0.2237864 0.6593835 0.3544174
vt 0.5625000 0.1875000
v 0.2237864 0.6593835 0.4669174
vt 0.6875000 0.1875000
v 0.2525126 0.6306572 0.4669174
vt 0.6875000 0.0625000
v 0.2525126 0.6306572 0.3544174
vt 0.5625000 0.0625000
f 881/881 882/882 883/883 884/884
v 0.2746097 0.7102068 0.3544174
vt 0.5625000 0.1875000
v 0.3033359 0.6814805 0.3544174
vt 0.6875000 0.1875000
v 0.3033359 0.6814805 0.4669174
vt 0.6875000 0.0625000
v 0.2746097 0.7102068 0.4669174
vt 0.5625000 0.0625000
f 885/885 886/886 887/887 888/888
v 0.7762136 0.6593835 0.3544174
vt 0.5625000 0.1875000
v 0.7253903 0.7102068 0.3544174
vt 0.6875000 0.1875000
v 0.6966641 0.6814805 0.3544174
vt 0.6875000 0.0625000
v 0.7474874 0.6306572 0.3544174
vt 0.5625000 0.0625000
f 889/889 890/890 891/891 892/892
v 0.7253903 0.7102068 0.4669174
vt 0.5625000 0.1875000
v 0.7762136 0.6593835 0.4669174
vt 0.6875000 0.1875000
v 0.7474874 0.6306572 0.4669174
vt 0.6875000 0.0625000
v 0.6966641 0.6814805 0.4669174
vt 0.5625000 0.0625000
f 893/893 894/894 895/895 896/896
v 0.7253903 0.7102068 0.3544174
vt 0.5625000 0.1875000
v 0.7253903 0.7102068 0.4669174
vt 0.6875000 0.1875000
v 0.6966641 0.6814805 0.4669174
vt 0.6875000 0.0625000
v 0.6966641 0.6814805 0.3544174
vt 0.5625000 0.0625000
f 897/897 898/898 899/899 900/900
v 0.7762136 0.6593835 0.4669174
vt 0.5625000 0.1875000
v 0.7762136 0.6593835 0.3544174
vt 0.6875000 0.1875000
v 0.7474874 0.6306572 0.3544174
vt 0.6875000 0.0625000
v 0.7474874 0.6306572 0.4669174
vt 0.5625000 0.0625000
f 901/901 902/902 903/903 904/904
v 0.6966641 0.6814805 0.3544174
vt 0.5625000 0.1875000
v 0.6966641 0.6814805 0.4669174
vt 0.6875000 0.1875000
v 0.7474874 0.6306572 0.4669174
vt 0.6875000 0.0625000
v 0.7474874 0.6306572 0.3544174
vt 0.5625000 0.0625000
f 905/905 906/906 907/907 908/908
v 0.7253903 0.7102068 0.3544174
vt 0.5625000 0.1875000
v 0.7762136 0.6593835 0.3544174
vt 0.6875000 0.1875000
v 0.7762136 0.6593835 0.4669174
vt 0.6875000 0.0625000
v 0.7253903 0.7102068 0.4669174
vt 0.5625000 0.0625000
f 909/909 910/910 911/911 912/912
v 0.4964645 0.7800335 0.3494174
vt 0.8125000 0.4375000
v 0.4721577 0.8043403 0.3494174
vt 0.9375000 0.4375000
v 0.4323829 0.7645656 0.3494174
vt 0.9375000 0.3125000
v 0.4566897 0.7402588 0.3494174
vt 0.8125000 0.3125000
f 913/913 914/914 915/915 916/916
v 0.4721577 0.8043403 0.3756674
vt 0.8125000 0.4375000
v 0.4964645 0.7800335 0.3756674
vt 0.9375000 0.4375000
v 0.4566897 0.7402588 0.3756674
vt 0.9375000 0.3125000
v 0.4323829 0.7645656 0.3756674
vt 0.8125000 0.3125000
f 917/917 918/918 919/919 920/920
v 0.4721577 0.8043403 0.3494174
vt 0.8125000 0.4375000
v 0.4721577 0.8043403 0.3756674
vt 0.9375000 0.4375000
v 0.4323829 0.7645656 0.3756674
vt 0.9375000 0.3125000
v 0.4323829 0.7645656 0.3494174
vt 0.8125000 0.3125000
f 921/921 922/922 923/923 924/924
v 0.4964645 0.7800335 0.3756674
vt 0.8125000 0.4375000
v 0.4964645 0.7800335 0.3494174
vt 0.9375000 0.4375000
v 0.4566897 0.7402588 0.3494174
vt 0.9375000 0.3125000
v 0.4566897 0.7402588 0.3756674
vt 0.8125000 0.3125000
f 925/925 926/926 927/927 928/928
v 0.4323829 0.7645656 0.3494174
vt 0.8125000 0.4375000
v 0.4323829 0.7645656 0.3756674
vt 0.9375000 0.4375000
v 0.4566897 0.7402588 0.3756674
vt 0.9375000 0.3125000
v 0.4566897 0.7402588 0.3494174
vt 0.8125000 0.3125000
f 929/929 930/930 931/931 932/932
v 0.4721577 0.8043403 0.3494174
vt 0.8125000 0.4375000
v 0.4964645 0.7800335 0.3494174
vt 0.9375000 0.4375000
v 0.4964645 0.7800335 0.3756674
vt 0.9375000 0.3125000
v 0.4721577 0.8043403 0.3756674
vt 0.8125000 0.3125000
f 933/933 934/934 935/935 936/936
v 0.5676171 0.7645656 0.3494174
vt 0.8125000 0.4375000
v 0.5278423 0.8043403 0.3494174
vt 0.9375000 0.4375000
v 0.5035355 0.7800335 0.3494174
vt 0.9375000 0.3125000
v 0.5433103 0.7402588 0.3494174
vt 0.8125000 0.3125000
f 937/937 938/938 939/939 940/940
v 0.5278423 0.8043403 0.3756674
vt 0.8125000 0.4375000
v 0.5676171 0.7645656 0.3756674
vt 0.9375000 0.4375000
v 0.5433103 0.7402588 0.3756674
vt 0.9375000 0.3125000
v 0.5035355 0.7800335 0.3756674
vt 0.8125000 0.3125000
f 941/941 942/942 943/943 944/944
v 0.5278423 0.8043403 0.3494174
vt 0.8125000 0.4375000
v 0.5278423 0.8043403 0.3756674
vt 0.9375000 0.4375000
v 0.5035355 0.7800335 0.3756674
vt 0.9375000 0.3125000
v 0.5035355 0.7800335 0.3494174
vt 0.8125000 0.3125000
f 945/945 946/946 947/947 948/948
v 0.5676171 0.7645656 0.3756674
vt 0.8125000 0.4375000
v 0.5676171 0.7645656 0.3494174
vt 0.9375000 0.4375000
v 0.5433103 0.7402588 0.3494174
vt 0.9375000 0.3125000
v 0.5433103 0.7402588 0.3756674
vt 0.8125000 0.3125000
f 949/949 950/950 951/951 952/952
v 0.5035355 0.7800335 0.3494174
vt 0.8125000 0.4375000
v 0.5035355 0.7800335 0.3756674
vt 0.9375000 0.4375000
v 0.5433103 0.7402588 0.3756674
vt 0.9375000 0.3125000
v 0.5433103 0.7402588 0.3494174
vt 0.8125000 0.3125000
f 953/953 954/954 955/955 956/956
v 0.5278423 0.8043403 0.3494174
vt 0.8125000 0.4375000
v 0.5676171 0.7645656 0.3494174
vt 0.9375000 0.4375000
v 0.5676171 0.7645656 0.3756674
vt 0.9375000 0.3125000
v 0.5278423 0.8043403 0.3756674
vt 0.8125000 0.3125000
f 957/957 958/958 959/959 960/960
