# Generated from blockbench/amulets/blood_diamond/blood_diamond.bbmodel; do not hand-edit.
mtllib blood_diamond.mtl
usemtl amulet
v 0.4714469 0.5088543 0.3685438
vt 0.5625000 0.1875000
v 0.4582240 0.5439457 0.3685438
vt 0.6875000 0.1875000
v 0.3219721 0.4926044 0.3981638
vt 0.6875000 0.0625000
v 0.3351949 0.4575130 0.3981638
vt 0.5625000 0.0625000
f 1/1 2/2 3/3 4/4
v 0.4652193 0.5465816 0.4052912
vt 0.3125000 0.1875000
v 0.4784422 0.5114902 0.4052912
vt 0.4375000 0.1875000
v 0.3421902 0.4601489 0.4349112
vt 0.4375000 0.0625000
v 0.3289674 0.4952403 0.4349112
vt 0.3125000 0.0625000
f 5/5 6/6 7/7 8/8
v 0.4582240 0.5439457 0.3685438
vt 0.5625000 0.1875000
v 0.4652193 0.5465816 0.4052912
vt 0.6875000 0.1875000
v 0.3289674 0.4952403 0.4349112
vt 0.6875000 0.0625000
v 0.3219721 0.4926044 0.3981638
vt 0.5625000 0.0625000
f 9/9 10/10 11/11 12/12
v 0.4784422 0.5114902 0.4052912
vt 0.0625000 0.1875000
v 0.4714469 0.5088543 0.3685438
vt 0.1875000 0.1875000
v 0.3351949 0.4575130 0.3981638
vt 0.1875000 0.0625000
v 0.3421902 0.4601489 0.4349112
vt 0.0625000 0.0625000
f 13/13 14/14 15/15 16/16
v 0.3219721 0.4926044 0.3981638
vt 0.5625000 0.1875000
v 0.3289674 0.4952403 0.4349112
vt 0.6875000 0.1875000
v 0.3421902 0.4601489 0.4349112
vt 0.6875000 0.0625000
v 0.3351949 0.4575130 0.3981638
vt 0.5625000 0.0625000
f 17/17 18/18 19/19 20/20
v 0.4582240 0.5439457 0.3685438
vt 0.0625000 0.1875000
v 0.4714469 0.5088543 0.3685438
vt 0.1875000 0.1875000
v 0.4784422 0.5114902 0.4052912
vt 0.1875000 0.0625000
v 0.4652193 0.5465816 0.4052912
vt 0.0625000 0.0625000
f 21/21 22/22 23/23 24/24
v 0.3421319 0.4601133 0.3966812
vt 0.3125000 0.1875000
v 0.3276296 0.4946956 0.3966812
vt 0.4375000 0.1875000
v 0.2240258 0.4512488 0.4234177
vt 0.4375000 0.0625000
v 0.2385281 0.4166665 0.4234177
vt 0.3125000 0.0625000
f 25/25 26/26 27/27 28/28
v 0.3356361 0.4980531 0.4331623
vt 0.3125000 0.1875000
v 0.3501384 0.4634708 0.4331623
vt 0.4375000 0.1875000
v 0.2465346 0.4200241 0.4598988
vt 0.4375000 0.0625000
v 0.2320323 0.4546064 0.4598988
vt 0.3125000 0.0625000
f 29/29 30/30 31/31 32/32
v 0.3276296 0.4946956 0.3966812
vt 0.5625000 0.1875000
v 0.3356361 0.4980531 0.4331623
vt 0.6875000 0.1875000
v 0.2320323 0.4546064 0.4598988
vt 0.6875000 0.0625000
v 0.2240258 0.4512488 0.4234177
vt 0.5625000 0.0625000
f 33/33 34/34 35/35 36/36
v 0.3501384 0.4634708 0.4331623
vt 0.0625000 0.1875000
v 0.3421319 0.4601133 0.3966812
vt 0.1875000 0.1875000
v 0.2385281 0.4166665 0.4234177
vt 0.1875000 0.0625000
v 0.2465346 0.4200241 0.4598988
vt 0.0625000 0.0625000
f 37/37 38/38 39/39 40/40
v 0.2240258 0.4512488 0.4234177
vt 0.5625000 0.1875000
v 0.2320323 0.4546064 0.4598988
vt 0.6875000 0.1875000
v 0.2465346 0.4200241 0.4598988
vt 0.6875000 0.0625000
v 0.2385281 0.4166665 0.4234177
vt 0.5625000 0.0625000
f 41/41 42/42 43/43 44/44
v 0.3276296 0.4946956 0.3966812
vt 0.0625000 0.1875000
v 0.3421319 0.4601133 0.3966812
vt 0.1875000 0.1875000
v 0.3501384 0.4634708 0.4331623
vt 0.1875000 0.0625000
v 0.3356361 0.4980531 0.4331623
vt 0.0625000 0.0625000
f 45/45 46/46 47/47 48/48
v 0.2567250 0.4276220 0.4234277
vt 0.3125000 0.1875000
v 0.2193354 0.4304981 0.4234277
vt 0.4375000 0.1875000
v 0.2126206 0.3432046 0.4872191
vt 0.4375000 0.0625000
v 0.2500101 0.3403285 0.4872191
vt 0.3125000 0.0625000
f 49/49 50/50 51/51 52/52
v 0.2210291 0.4525161 0.4537359
vt 0.3125000 0.1875000
v 0.2584187 0.4496400 0.4537359
vt 0.4375000 0.1875000
v 0.2517038 0.3623465 0.5175273
vt 0.4375000 0.0625000
v 0.2143142 0.3652227 0.5175273
vt 0.3125000 0.0625000
f 53/53 54/54 55/55 56/56
v 0.2193354 0.4304981 0.4234277
vt 0.5625000 0.1875000
v 0.2210291 0.4525161 0.4537359
vt 0.6875000 0.1875000
v 0.2143142 0.3652227 0.5175273
vt 0.6875000 0.0625000
v 0.2126206 0.3432046 0.4872191
vt 0.5625000 0.0625000
f 57/57 58/58 59/59 60/60
v 0.2584187 0.4496400 0.4537359
vt 0.0625000 0.1875000
v 0.2567250 0.4276220 0.4234277
vt 0.1875000 0.1875000
v 0.2500101 0.3403285 0.4872191
vt 0.1875000 0.0625000
v 0.2517038 0.3623465 0.5175273
vt 0.0625000 0.0625000
f 61/61 62/62 63/63 64/64
v 0.2126206 0.3432046 0.4872191
vt 0.5625000 0.1875000
v 0.2143142 0.3652227 0.5175273
vt 0.6875000 0.1875000
v 0.2517038 0.3623465 0.5175273
vt 0.6875000 0.0625000
v 0.2500101 0.3403285 0.4872191
vt 0.5625000 0.0625000
f 65/65 66/66 67/67 68/68
v 0.2193354 0.4304981 0.4234277
vt 0.0625000 0.1875000
v 0.2567250 0.4276220 0.4234277
vt 0.1875000 0.1875000
v 0.2584187 0.4496400 0.4537359
vt 0.1875000 0.0625000
v 0.2210291 0.4525161 0.4537359
vt 0.0625000 0.0625000
f 69/69 70/70 71/71 72/72
v 0.2462075 0.3422846 0.4816232
vt 0.5625000 0.1875000
v 0.2138563 0.3612491 0.4816232
vt 0.6875000 0.1875000
v 0.1573063 0.2647814 0.5348467
vt 0.6875000 0.0625000
v 0.1896575 0.2458169 0.5348467
vt 0.5625000 0.0625000
f 73/73 74/74 75/75 76/76
v 0.2220067 0.3751527 0.5154833
vt 0.3125000 0.1875000
v 0.2543579 0.3561882 0.5154833
vt 0.4375000 0.1875000
v 0.1978079 0.2597206 0.5687068
vt 0.4375000 0.0625000
v 0.1654567 0.2786851 0.5687068
vt 0.3125000 0.0625000
f 77/77 78/78 79/79 80/80
v 0.2138563 0.3612491 0.4816232
vt 0.5625000 0.1875000
v 0.2220067 0.3751527 0.5154833
vt 0.6875000 0.1875000
v 0.1654567 0.2786851 0.5687068
vt 0.6875000 0.0625000
v 0.1573063 0.2647814 0.5348467
vt 0.5625000 0.0625000
f 81/81 82/82 83/83 84/84
v 0.2543579 0.3561882 0.5154833
vt 0.0625000 0.1875000
v 0.2462075 0.3422846 0.4816232
vt 0.1875000 0.1875000
v 0.1896575 0.2458169 0.5348467
vt 0.1875000 0.0625000
v 0.1978079 0.2597206 0.5687068
vt 0.0625000 0.0625000
f 85/85 86/86 87/87 88/88
v 0.1573063 0.2647814 0.5348467
vt 0.5625000 0.1875000
v 0.1654567 0.2786851 0.5687068
vt 0.6875000 0.1875000
v 0.1978079 0.2597206 0.5687068
vt 0.6875000 0.0625000
v 0.1896575 0.2458169 0.5348467
vt 0.5625000 0.0625000
f 89/89 90/90 91/91 92/92
v 0.2138563 0.3612491 0.4816232
vt 0.0625000 0.1875000
v 0.2462075 0.3422846 0.4816232
vt 0.1875000 0.1875000
v 0.2543579 0.3561882 0.5154833
vt 0.1875000 0.0625000
v 0.2220067 0.3751527 0.5154833
vt 0.0625000 0.0625000
f 93/93 94/94 95/95 96/96
v 0.1883822 0.2824032 0.5318007
vt 0.3125000 0.1875000
v 0.1805782 0.2457242 0.5318007
vt 0.4375000 0.1875000
v 0.3339609 0.2130896 0.6133873
vt 0.4375000 0.0625000
v 0.3417649 0.2497686 0.6133873
vt 0.3125000 0.0625000
f 97/97 98/98 99/99 100/100
v 0.1636493 0.2493261 0.5650677
vt 0.3125000 0.1875000
v 0.1714534 0.2860051 0.5650677
vt 0.4375000 0.1875000
v 0.3248361 0.2533704 0.6466543
vt 0.4375000 0.0625000
v 0.3170320 0.2166915 0.6466543
vt 0.3125000 0.0625000
f 101/101 102/102 103/103 104/104
v 0.1805782 0.2457242 0.5318007
vt 0.5625000 0.1875000
v 0.1636493 0.2493261 0.5650677
vt 0.6875000 0.1875000
v 0.3170320 0.2166915 0.6466543
vt 0.6875000 0.0625000
v 0.3339609 0.2130896 0.6133873
vt 0.5625000 0.0625000
f 105/105 106/106 107/107 108/108
v 0.1714534 0.2860051 0.5650677
vt 0.0625000 0.1875000
v 0.1883822 0.2824032 0.5318007
vt 0.1875000 0.1875000
v 0.3417649 0.2497686 0.6133873
vt 0.1875000 0.0625000
v 0.3248361 0.2533704 0.6466543
vt 0.0625000 0.0625000
f 109/109 110/110 111/111 112/112
v 0.3339609 0.2130896 0.6133873
vt 0.5625000 0.1875000
v 0.3170320 0.2166915 0.6466543
vt 0.6875000 0.1875000
v 0.3248361 0.2533704 0.6466543
vt 0.6875000 0.0625000
v 0.3417649 0.2497686 0.6133873
vt 0.5625000 0.0625000
f 113/113 114/114 115/115 116/116
v 0.1805782 0.2457242 0.5318007
vt 0.0625000 0.1875000
v 0.1883822 0.2824032 0.5318007
vt 0.1875000 0.1875000
v 0.1714534 0.2860051 0.5650677
vt 0.1875000 0.0625000
v 0.1636493 0.2493261 0.5650677
vt 0.0625000 0.0625000
f 117/117 118/118 119/119 120/120
v 0.3262204 0.2526970 0.6091931
vt 0.3125000 0.1875000
v 0.3241403 0.2152548 0.6091931
vt 0.4375000 0.1875000
v 0.5002977 0.2054682 0.6352905
vt 0.4375000 0.0625000
v 0.5023778 0.2429105 0.6352905
vt 0.3125000 0.0625000
f 121/121 122/122 123/123 124/124
v 0.3186614 0.2155591 0.6462895
vt 0.3125000 0.1875000
v 0.3207416 0.2530014 0.6462895
vt 0.4375000 0.1875000
v 0.4968990 0.2432149 0.6723869
vt 0.4375000 0.0625000
v 0.4948188 0.2057726 0.6723869
vt 0.3125000 0.0625000
f 125/125 126/126 127/127 128/128
v 0.3241403 0.2152548 0.6091931
vt 0.5625000 0.1875000
v 0.3186614 0.2155591 0.6462895
vt 0.6875000 0.1875000
v 0.4948188 0.2057726 0.6723869
vt 0.6875000 0.0625000
v 0.5002977 0.2054682 0.6352905
vt 0.5625000 0.0625000
f 129/129 130/130 131/131 132/132
v 0.3207416 0.2530014 0.6462895
vt 0.0625000 0.1875000
v 0.3262204 0.2526970 0.6091931
vt 0.1875000 0.1875000
v 0.5023778 0.2429105 0.6352905
vt 0.1875000 0.0625000
v 0.4968990 0.2432149 0.6723869
vt 0.0625000 0.0625000
f 133/133 134/134 135/135 136/136
v 0.5002977 0.2054682 0.6352905
vt 0.5625000 0.1875000
v 0.4948188 0.2057726 0.6723869
vt 0.6875000 0.1875000
v 0.4968990 0.2432149 0.6723869
vt 0.6875000 0.0625000
v 0.5023778 0.2429105 0.6352905
vt 0.5625000 0.0625000
f 137/137 138/138 139/139 140/140
v 0.3241403 0.2152548 0.6091931
vt 0.0625000 0.1875000
v 0.3262204 0.2526970 0.6091931
vt 0.1875000 0.1875000
v 0.3207416 0.2530014 0.6462895
vt 0.1875000 0.0625000
v 0.3186614 0.2155591 0.6462895
vt 0.0625000 0.0625000
f 141/141 142/142 143/143 144/144
v 0.4879632 0.2428638 0.6350240
vt 0.5625000 0.1875000
v 0.4905433 0.2054527 0.6350240
vt 0.6875000 0.1875000
v 0.6792355 0.2184660 0.6155041
vt 0.6875000 0.0625000
v 0.6766554 0.2558771 0.6155041
vt 0.5625000 0.0625000
f 145/145 146/146 147/147 148/148
v 0.4943838 0.2057175 0.6723259
vt 0.3125000 0.1875000
v 0.4918037 0.2431287 0.6723259
vt 0.4375000 0.1875000
v 0.6804960 0.2561420 0.6528060
vt 0.4375000 0.0625000
v 0.6830760 0.2187308 0.6528060
vt 0.3125000 0.0625000
f 149/149 150/150 151/151 152/152
v 0.4905433 0.2054527 0.6350240
vt 0.5625000 0.1875000
v 0.4943838 0.2057175 0.6723259
vt 0.6875000 0.1875000
v 0.6830760 0.2187308 0.6528060
vt 0.6875000 0.0625000
v 0.6792355 0.2184660 0.6155041
vt 0.5625000 0.0625000
f 153/153 154/154 155/155 156/156
v 0.4918037 0.2431287 0.6723259
vt 0.0625000 0.1875000
v 0.4879632 0.2428638 0.6350240
vt 0.1875000 0.1875000
v 0.6766554 0.2558771 0.6155041
vt 0.1875000 0.0625000
v 0.6804960 0.2561420 0.6528060
vt 0.0625000 0.0625000
f 157/157 158/158 159/159 160/160
v 0.6792355 0.2184660 0.6155041
vt 0.5625000 0.1875000
v 0.6830760 0.2187308 0.6528060
vt 0.6875000 0.1875000
v 0.6804960 0.2561420 0.6528060
vt 0.6875000 0.0625000
v 0.6766554 0.2558771 0.6155041
vt 0.5625000 0.0625000
f 161/161 162/162 163/163 164/164
v 0.4905433 0.2054527 0.6350240
vt 0.0625000 0.1875000
v 0.4879632 0.2428638 0.6350240
vt 0.1875000 0.1875000
v 0.4918037 0.2431287 0.6723259
vt 0.1875000 0.0625000
v 0.4943838 0.2057175 0.6723259
vt 0.0625000 0.0625000
f 165/165 166/166 167/167 168/168
v 0.6615342 0.2523732 0.6181436
vt 0.3125000 0.1875000
v 0.6718362 0.2163161 0.6181436
vt 0.4375000 0.1875000
v 0.7880029 0.2495065 0.5749960
vt 0.4375000 0.0625000
v 0.7777008 0.2855637 0.5749960
vt 0.3125000 0.0625000
f 169/169 170/170 171/171 172/172
v 0.6839634 0.2197810 0.6534590
vt 0.3125000 0.1875000
v 0.6736614 0.2558381 0.6534590
vt 0.4375000 0.1875000
v 0.7898280 0.2890286 0.6103114
vt 0.4375000 0.0625000
v 0.8001300 0.2529714 0.6103114
vt 0.3125000 0.0625000
f 173/173 174/174 175/175 176/176
v 0.6718362 0.2163161 0.6181436
vt 0.5625000 0.1875000
v 0.6839634 0.2197810 0.6534590
vt 0.6875000 0.1875000
v 0.8001300 0.2529714 0.6103114
vt 0.6875000 0.0625000
v 0.7880029 0.2495065 0.5749960
vt 0.5625000 0.0625000
f 177/177 178/178 179/179 180/180
v 0.6736614 0.2558381 0.6534590
vt 0.0625000 0.1875000
v 0.6615342 0.2523732 0.6181436
vt 0.1875000 0.1875000
v 0.7777008 0.2855637 0.5749960
vt 0.1875000 0.0625000
v 0.7898280 0.2890286 0.6103114
vt 0.0625000 0.0625000
f 181/181 182/182 183/183 184/184
v 0.7880029 0.2495065 0.5749960
vt 0.5625000 0.1875000
v 0.8001300 0.2529714 0.6103114
vt 0.6875000 0.1875000
v 0.7898280 0.2890286 0.6103114
vt 0.6875000 0.0625000
v 0.7777008 0.2855637 0.5749960
vt 0.5625000 0.0625000
f 185/185 186/186 187/187 188/188
v 0.6718362 0.2163161 0.6181436
vt 0.0625000 0.1875000
v 0.6615342 0.2523732 0.6181436
vt 0.1875000 0.1875000
v 0.6736614 0.2558381 0.6534590
vt 0.1875000 0.0625000
v 0.6839634 0.2197810 0.6534590
vt 0.0625000 0.0625000
f 189/189 190/190 191/191 192/192
v 0.7627206 0.2615416 0.5815964
vt 0.3125000 0.1875000
v 0.7976237 0.2478296 0.5815964
vt 0.4375000 0.1875000
v 0.8341424 0.3407861 0.5019194
vt 0.4375000 0.0625000
v 0.7992392 0.3544980 0.5019194
vt 0.3125000 0.0625000
f 193/193 194/194 195/195 196/196
v 0.8061751 0.2695966 0.6109106
vt 0.3125000 0.1875000
v 0.7712719 0.2833086 0.6109106
vt 0.4375000 0.1875000
v 0.8077905 0.3762650 0.5312336
vt 0.4375000 0.0625000
v 0.8426937 0.3625531 0.5312336
vt 0.3125000 0.0625000
f 197/197 198/198 199/199 200/200
v 0.7976237 0.2478296 0.5815964
vt 0.5625000 0.1875000
v 0.8061751 0.2695966 0.6109106
vt 0.6875000 0.1875000
v 0.8426937 0.3625531 0.5312336
vt 0.6875000 0.0625000
v 0.8341424 0.3407861 0.5019194
vt 0.5625000 0.0625000
f 201/201 202/202 203/203 204/204
v 0.7712719 0.2833086 0.6109106
vt 0.0625000 0.1875000
v 0.7627206 0.2615416 0.5815964
vt 0.1875000 0.1875000
v 0.7992392 0.3544980 0.5019194
vt 0.1875000 0.0625000
v 0.8077905 0.3762650 0.5312336
vt 0.0625000 0.0625000
f 205/205 206/206 207/207 208/208
v 0.8341424 0.3407861 0.5019194
vt 0.5625000 0.1875000
v 0.8426937 0.3625531 0.5312336
vt 0.6875000 0.1875000
v 0.8077905 0.3762650 0.5312336
vt 0.6875000 0.0625000
v 0.7992392 0.3544980 0.5019194
vt 0.5625000 0.0625000
f 209/209 210/210 211/211 212/212
v 0.7976237 0.2478296 0.5815964
vt 0.0625000 0.1875000
v 0.7627206 0.2615416 0.5815964
vt 0.1875000 0.1875000
v 0.7712719 0.2833086 0.6109106
vt 0.1875000 0.0625000
v 0.8061751 0.2695966 0.6109106
vt 0.0625000 0.0625000
f 213/213 214/214 215/215 216/216
v 0.8177980 0.3330338 0.5049646
vt 0.5625000 0.1875000
v 0.8419806 0.3616948 0.5049646
vt 0.6875000 0.1875000
v 0.7371112 0.4501784 0.4197581
vt 0.6875000 0.0625000
v 0.7129285 0.4215174 0.4197581
vt 0.5625000 0.0625000
f 217/217 218/218 219/219 220/220
v 0.8268607 0.3744522 0.5368219
vt 0.3125000 0.1875000
v 0.8026781 0.3457913 0.5368219
vt 0.4375000 0.1875000
v 0.6978086 0.4342749 0.4516154
vt 0.4375000 0.0625000
v 0.7219912 0.4629358 0.4516154
vt 0.3125000 0.0625000
f 221/221 222/222 223/223 224/224
v 0.8419806 0.3616948 0.5049646
vt 0.5625000 0.1875000
v 0.8268607 0.3744522 0.5368219
vt 0.6875000 0.1875000
v 0.7219912 0.4629358 0.4516154
vt 0.6875000 0.0625000
v 0.7371112 0.4501784 0.4197581
vt 0.5625000 0.0625000
f 225/225 226/226 227/227 228/228
v 0.8026781 0.3457913 0.5368219
vt 0.0625000 0.1875000
v 0.8177980 0.3330338 0.5049646
vt 0.1875000 0.1875000
v 0.7129285 0.4215174 0.4197581
vt 0.1875000 0.0625000
v 0.6978086 0.4342749 0.4516154
vt 0.0625000 0.0625000
f 229/229 230/230 231/231 232/232
v 0.7371112 0.4501784 0.4197581
vt 0.5625000 0.1875000
v 0.7219912 0.4629358 0.4516154
vt 0.6875000 0.1875000
v 0.6978086 0.4342749 0.4516154
vt 0.6875000 0.0625000
v 0.7129285 0.4215174 0.4197581
vt 0.5625000 0.0625000
f 233/233 234/234 235/235 236/236
v 0.8419806 0.3616948 0.5049646
vt 0.0625000 0.1875000
v 0.8177980 0.3330338 0.5049646
vt 0.1875000 0.1875000
v 0.8026781 0.3457913 0.5368219
vt 0.1875000 0.0625000
v 0.8268607 0.3744522 0.5368219
vt 0.0625000 0.0625000
f 237/237 238/238 239/239 240/240
v 0.7173513 0.4197050 0.4205826
vt 0.3125000 0.1875000
v 0.7370573 0.4516100 0.4205826
vt 0.4375000 0.1875000
v 0.6246551 0.5210349 0.3842171
vt 0.4375000 0.0625000
v 0.6049491 0.4891300 0.3842171
vt 0.3125000 0.0625000
f 241/241 242/242 243/243 244/244
v 0.7285902 0.4568397 0.4567379
vt 0.3125000 0.1875000
v 0.7088842 0.4249348 0.4567379
vt 0.4375000 0.1875000
v 0.5964819 0.4943597 0.4203724
vt 0.4375000 0.0625000
v 0.6161879 0.5262646 0.4203724
vt 0.3125000 0.0625000
f 245/245 246/246 247/247 248/248
v 0.7370573 0.4516100 0.4205826
vt 0.5625000 0.1875000
v 0.7285902 0.4568397 0.4567379
vt 0.6875000 0.1875000
v 0.6161879 0.5262646 0.4203724
vt 0.6875000 0.0625000
v 0.6246551 0.5210349 0.3842171
vt 0.5625000 0.0625000
f 249/249 250/250 251/251 252/252
v 0.7088842 0.4249348 0.4567379
vt 0.0625000 0.1875000
v 0.7173513 0.4197050 0.4205826
vt 0.1875000 0.1875000
v 0.6049491 0.4891300 0.3842171
vt 0.1875000 0.0625000
v 0.5964819 0.4943597 0.4203724
vt 0.0625000 0.0625000
f 253/253 254/254 255/255 256/256
v 0.6246551 0.5210349 0.3842171
vt 0.5625000 0.1875000
v 0.6161879 0.5262646 0.4203724
vt 0.6875000 0.1875000
v 0.5964819 0.4943597 0.4203724
vt 0.6875000 0.0625000
v 0.6049491 0.4891300 0.3842171
vt 0.5625000 0.0625000
f 257/257 258/258 259/259 260/260
v 0.7370573 0.4516100 0.4205826
vt 0.0625000 0.1875000
v 0.7173513 0.4197050 0.4205826
vt 0.1875000 0.1875000
v 0.7088842 0.4249348 0.4567379
vt 0.1875000 0.0625000
v 0.7285902 0.4568397 0.4567379
vt 0.0625000 0.0625000
f 261/261 262/262 263/263 264/264
v 0.6160872 0.4859800 0.3854436
vt 0.3125000 0.1875000
v 0.6245758 0.5225066 0.3854436
vt 0.4375000 0.1875000
v 0.5286257 0.5448049 0.3685509
vt 0.4375000 0.0625000
v 0.5201371 0.5082783 0.3685509
vt 0.3125000 0.0625000
f 265/265 266/266 267/267 268/268
v 0.6184021 0.5239414 0.4224041
vt 0.3125000 0.1875000
v 0.6099135 0.4874147 0.4224041
vt 0.4375000 0.1875000
v 0.5139634 0.5097130 0.4055114
vt 0.4375000 0.0625000
v 0.5224520 0.5462396 0.4055114
vt 0.3125000 0.0625000
f 269/269 270/270 271/271 272/272
v 0.6245758 0.5225066 0.3854436
vt 0.5625000 0.1875000
v 0.6184021 0.5239414 0.4224041
vt 0.6875000 0.1875000
v 0.5224520 0.5462396 0.4055114
vt 0.6875000 0.0625000
v 0.5286257 0.5448049 0.3685509
vt 0.5625000 0.0625000
f 273/273 274/274 275/275 276/276
v 0.6099135 0.4874147 0.4224041
vt 0.0625000 0.1875000
v 0.6160872 0.4859800 0.3854436
vt 0.1875000 0.1875000
v 0.5201371 0.5082783 0.3685509
vt 0.1875000 0.0625000
v 0.5139634 0.5097130 0.4055114
vt 0.0625000 0.0625000
f 277/277 278/278 279/279 280/280
v 0.5286257 0.5448049 0.3685509
vt 0.5625000 0.1875000
v 0.5224520 0.5462396 0.4055114
vt 0.6875000 0.1875000
v 0.5139634 0.5097130 0.4055114
vt 0.6875000 0.0625000
v 0.5201371 0.5082783 0.3685509
vt 0.5625000 0.0625000
f 281/281 282/282 283/283 284/284
v 0.6245758 0.5225066 0.3854436
vt 0.0625000 0.1875000
v 0.6160872 0.4859800 0.3854436
vt 0.1875000 0.1875000
v 0.6099135 0.4874147 0.4224041
vt 0.1875000 0.0625000
v 0.6184021 0.5239414 0.4224041
vt 0.0625000 0.0625000
f 285/285 286/286 287/287 288/288
v 0.5205144 0.5765616 0.3657900
vt 0.0625000 0.4375000
v 0.4610984 0.5682112 0.3657900
vt 0.1875000 0.4375000
v 0.4676221 0.5217924 0.3657900
vt 0.1875000 0.3125000
v 0.5270382 0.5301428 0.3657900
vt 0.0625000 0.3125000
f 289/289 290/290 291/291 292/292
v 0.4610984 0.5682112 0.4126650
vt 0.0625000 0.4375000
v 0.5205144 0.5765616 0.4126650
vt 0.1875000 0.4375000
v 0.5270382 0.5301428 0.4126650
vt 0.1875000 0.3125000
v 0.4676221 0.5217924 0.4126650
vt 0.0625000 0.3125000
f 293/293 294/294 295/295 296/296
v 0.4610984 0.5682112 0.3657900
vt 0.3125000 0.4375000
v 0.4610984 0.5682112 0.4126650
vt 0.4375000 0.4375000
v 0.4676221 0.5217924 0.4126650
vt 0.4375000 0.3125000
v 0.4676221 0.5217924 0.3657900
vt 0.3125000 0.3125000
f 297/297 298/298 299/299 300/300
v 0.5205144 0.5765616 0.4126650
vt 0.8125000 0.9375000
v 0.5205144 0.5765616 0.3657900
vt 0.9375000 0.9375000
v 0.5270382 0.5301428 0.3657900
vt 0.9375000 0.8125000
v 0.5270382 0.5301428 0.4126650
vt 0.8125000 0.8125000
f 301/301 302/302 303/303 304/304
v 0.4676221 0.5217924 0.3657900
vt 0.3125000 0.4375000
v 0.4676221 0.5217924 0.4126650
vt 0.4375000 0.4375000
v 0.5270382 0.5301428 0.4126650
vt 0.4375000 0.3125000
v 0.5270382 0.5301428 0.3657900
vt 0.3125000 0.3125000
f 305/305 306/306 307/307 308/308
v 0.4610984 0.5682112 0.3657900
vt 0.0625000 0.4375000
v 0.5205144 0.5765616 0.3657900
vt 0.1875000 0.4375000
v 0.5205144 0.5765616 0.4126650
vt 0.1875000 0.3125000
v 0.4610984 0.5682112 0.4126650
vt 0.0625000 0.3125000
f 309/309 310/310 311/311 312/312
v 0.5136446 0.5889223 0.3782900
vt 0.8125000 0.1875000
v 0.4761446 0.5889223 0.3782900
vt 0.9375000 0.1875000
v 0.4761446 0.5501723 0.3782900
vt 0.9375000 0.0625000
v 0.5136446 0.5501723 0.3782900
vt 0.8125000 0.0625000
f 313/313 314/314 315/315 316/316
v 0.4761446 0.5889223 0.4095400
vt 0.8125000 0.1875000
v 0.5136446 0.5889223 0.4095400
vt 0.9375000 0.1875000
v 0.5136446 0.5501723 0.4095400
vt 0.9375000 0.0625000
v 0.4761446 0.5501723 0.4095400
vt 0.8125000 0.0625000
f 317/317 318/318 319/319 320/320
v 0.4761446 0.5889223 0.3782900
vt 0.8125000 0.1875000
v 0.4761446 0.5889223 0.4095400
vt 0.9375000 0.1875000
v 0.4761446 0.5501723 0.4095400
vt 0.9375000 0.0625000
v 0.4761446 0.5501723 0.3782900
vt 0.8125000 0.0625000
f 321/321 322/322 323/323 324/324
v 0.5136446 0.5889223 0.4095400
vt 0.8125000 0.1875000
v 0.5136446 0.5889223 0.3782900
vt 0.9375000 0.1875000
v 0.5136446 0.5501723 0.3782900
vt 0.9375000 0.0625000
v 0.5136446 0.5501723 0.4095400
vt 0.8125000 0.0625000
f 325/325 326/326 327/327 328/328
v 0.4761446 0.5501723 0.3782900
vt 0.8125000 0.1875000
v 0.4761446 0.5501723 0.4095400
vt 0.9375000 0.1875000
v 0.5136446 0.5501723 0.4095400
vt 0.9375000 0.0625000
v 0.5136446 0.5501723 0.3782900
vt 0.8125000 0.0625000
f 329/329 330/330 331/331 332/332
v 0.4761446 0.5889223 0.3782900
vt 0.8125000 0.1875000
v 0.5136446 0.5889223 0.3782900
vt 0.9375000 0.1875000
v 0.5136446 0.5889223 0.4095400
vt 0.9375000 0.0625000
v 0.4761446 0.5889223 0.4095400
vt 0.8125000 0.0625000
f 333/333 334/334 335/335 336/336
v 0.4948946 0.5670473 0.3876650
vt 0.0625000 0.5625000
v 0.5219215 0.5745473 0.4246200
vt 0.1875000 0.5625000
v 0.5601434 0.5745473 0.4029725
vt 0.1875000 0.6875000
f 337/337 338/338 339/339
v 0.5601434 0.5745473 0.4029725
vt 0.0625000 0.5625000
v 0.5219215 0.5745473 0.4246200
vt 0.1875000 0.5625000
v 0.5456002 0.6151723 0.4477169
vt 0.1875000 0.6875000
v 0.6173084 0.6151723 0.4125394
vt 0.0625000 0.6875000
f 340/340 341/341 342/342 343/343
v 0.6173084 0.6151723 0.4125394
vt 0.8125000 0.3125000
v 0.5456002 0.6151723 0.4477169
vt 0.9375000 0.3125000
v 0.5420127 0.7101723 0.4465625
vt 0.9375000 0.4375000
v 0.6086471 0.7101723 0.4120613
vt 0.8125000 0.4375000
f 344/344 345/345 346/346 347/347
v 0.6086471 0.7101723 0.4120613
vt 0.5625000 0.3125000
v 0.5420127 0.7101723 0.4465625
vt 0.6875000 0.3125000
v 0.4948946 0.7945473 0.3876650
vt 0.6875000 0.4375000
f 348/348 349/349 350/350
v 0.4948946 0.5670473 0.3876650
vt 0.3125000 0.5625000
v 0.4678677 0.5745473 0.4246200
vt 0.4375000 0.5625000
v 0.5219215 0.5745473 0.4246200
vt 0.4375000 0.6875000
f 351/351 352/352 353/353
v 0.5219215 0.5745473 0.4246200
vt 0.0625000 0.5625000
v 0.4678677 0.5745473 0.4246200
vt 0.1875000 0.5625000
v 0.4441890 0.6151723 0.4477169
vt 0.1875000 0.6875000
v 0.5456002 0.6151723 0.4477169
vt 0.0625000 0.6875000
f 354/354 355/355 356/356 357/357
v 0.5456002 0.6151723 0.4477169
vt 0.8125000 0.3125000
v 0.4441890 0.6151723 0.4477169
vt 0.9375000 0.3125000
v 0.4477765 0.7101723 0.4465625
vt 0.9375000 0.4375000
v 0.5420127 0.7101723 0.4465625
vt 0.8125000 0.4375000
f 358/358 359/359 360/360 361/361
v 0.5420127 0.7101723 0.4465625
vt 0.0625000 0.8125000
v 0.4477765 0.7101723 0.4465625
vt 0.1875000 0.8125000
v 0.4948946 0.7945473 0.3876650
vt 0.1875000 0.9375000
f 362/362 363/363 364/364
v 0.4948946 0.5670473 0.3876650
vt 0.3125000 0.5625000
v 0.4296459 0.5745473 0.4029725
vt 0.4375000 0.5625000
v 0.4678677 0.5745473 0.4246200
vt 0.4375000 0.6875000
f 365/365 366/366 367/367
v 0.4678677 0.5745473 0.4246200
vt 0.8125000 0.3125000
v 0.4296459 0.5745473 0.4029725
vt 0.9375000 0.3125000
v 0.3724809 0.6151723 0.4125394
vt 0.9375000 0.4375000
v 0.4441890 0.6151723 0.4477169
vt 0.8125000 0.4375000
f 368/368 369/369 370/370 371/371
v 0.4441890 0.6151723 0.4477169
vt 0.5625000 0.3125000
v 0.3724809 0.6151723 0.4125394
vt 0.6875000 0.3125000
v 0.3811421 0.7101723 0.4120613
vt 0.6875000 0.4375000
v 0.4477765 0.7101723 0.4465625
vt 0.5625000 0.4375000
f 372/372 373/373 374/374 375/375
v 0.4477765 0.7101723 0.4465625
vt 0.0625000 0.8125000
v 0.3811421 0.7101723 0.4120613
vt 0.1875000 0.8125000
v 0.4948946 0.7945473 0.3876650
vt 0.1875000 0.9375000
f 376/376 377/377 378/378
v 0.4948946 0.5670473 0.3876650
vt 0.0625000 0.5625000
v 0.4296459 0.5745473 0.3723575
vt 0.1875000 0.5625000
v 0.4296459 0.5745473 0.4029725
vt 0.1875000 0.6875000
f 379/379 380/380 381/381
v 0.4296459 0.5745473 0.4029725
vt 0.0625000 0.5625000
v 0.4296459 0.5745473 0.3723575
vt 0.1875000 0.5625000
v 0.3724809 0.6151723 0.3627906
vt 0.1875000 0.6875000
v 0.3724809 0.6151723 0.4125394
vt 0.0625000 0.6875000
f 382/382 383/383 384/384 385/385
v 0.3724809 0.6151723 0.4125394
vt 0.8125000 0.3125000
v 0.3724809 0.6151723 0.3627906
vt 0.9375000 0.3125000
v 0.3811421 0.7101723 0.3632688
vt 0.9375000 0.4375000
v 0.3811421 0.7101723 0.4120613
vt 0.8125000 0.4375000
f 386/386 387/387 388/388 389/389
v 0.3811421 0.7101723 0.4120613
vt 0.5625000 0.3125000
v 0.3811421 0.7101723 0.3632688
vt 0.6875000 0.3125000
v 0.4948946 0.7945473 0.3876650
vt 0.6875000 0.4375000
f 390/390 391/391 392/392
v 0.4948946 0.5670473 0.3876650
vt 0.3125000 0.5625000
v 0.4678677 0.5745473 0.3507100
vt 0.4375000 0.5625000
v 0.4296459 0.5745473 0.3723575
vt 0.4375000 0.6875000
f 393/393 394/394 395/395
v 0.4296459 0.5745473 0.3723575
vt 0.3125000 0.5625000
v 0.4678677 0.5745473 0.3507100
vt 0.4375000 0.5625000
v 0.4441890 0.6151723 0.3276131
vt 0.4375000 0.6875000
v 0.3724809 0.6151723 0.3627906
vt 0.3125000 0.6875000
f 396/396 397/397 398/398 399/399
v 0.3724809 0.6151723 0.3627906
vt 0.0625000 0.5625000
v 0.4441890 0.6151723 0.3276131
vt 0.1875000 0.5625000
v 0.4477765 0.7101723 0.3287675
vt 0.1875000 0.6875000
v 0.3811421 0.7101723 0.3632688
vt 0.0625000 0.6875000
f 400/400 401/401 402/402 403/403
v 0.3811421 0.7101723 0.3632688
vt 0.8125000 0.3125000
v 0.4477765 0.7101723 0.3287675
vt 0.9375000 0.3125000
v 0.4948946 0.7945473 0.3876650
vt 0.9375000 0.4375000
f 404/404 405/405 406/406
v 0.4948946 0.5670473 0.3876650
vt 0.5625000 0.5625000
v 0.5219215 0.5745473 0.3507100
vt 0.6875000 0.5625000
v 0.4678677 0.5745473 0.3507100
vt 0.6875000 0.6875000
f 407/407 408/408 409/409
v 0.4678677 0.5745473 0.3507100
vt 0.8125000 0.5625000
v 0.5219215 0.5745473 0.3507100
vt 0.9375000 0.5625000
v 0.5456002 0.6151723 0.3276131
vt 0.9375000 0.6875000
v 0.4441890 0.6151723 0.3276131
vt 0.8125000 0.6875000
f 410/410 411/411 412/412 413/413
v 0.4441890 0.6151723 0.3276131
vt 0.3125000 0.5625000
v 0.5456002 0.6151723 0.3276131
vt 0.4375000 0.5625000
v 0.5420127 0.7101723 0.3287675
vt 0.4375000 0.6875000
v 0.4477765 0.7101723 0.3287675
vt 0.3125000 0.6875000
f 414/414 415/415 416/416 417/417
v 0.4477765 0.7101723 0.3287675
vt 0.3125000 0.8125000
v 0.5420127 0.7101723 0.3287675
vt 0.4375000 0.8125000
v 0.4948946 0.7945473 0.3876650
vt 0.4375000 0.9375000
f 418/418 419/419 420/420
v 0.4948946 0.5670473 0.3876650
vt 0.8125000 0.5625000
v 0.5601434 0.5745473 0.3723575
vt 0.9375000 0.5625000
v 0.5219215 0.5745473 0.3507100
vt 0.9375000 0.6875000
f 421/421 422/422 423/423
v 0.5219215 0.5745473 0.3507100
vt 0.5625000 0.5625000
v 0.5601434 0.5745473 0.3723575
vt 0.6875000 0.5625000
v 0.6173084 0.6151723 0.3627906
vt 0.6875000 0.6875000
v 0.5456002 0.6151723 0.3276131
vt 0.5625000 0.6875000
f 424/424 425/425 426/426 427/427
v 0.5456002 0.6151723 0.3276131
vt 0.0625000 0.5625000
v 0.6173084 0.6151723 0.3627906
vt 0.1875000 0.5625000
v 0.6086471 0.7101723 0.3632688
vt 0.1875000 0.6875000
v 0.5420127 0.7101723 0.3287675
vt 0.0625000 0.6875000
f 428/428 429/429 430/430 431/431
v 0.5420127 0.7101723 0.3287675
vt 0.8125000 0.3125000
v 0.6086471 0.7101723 0.3632688
vt 0.9375000 0.3125000
v 0.4948946 0.7945473 0.3876650
vt 0.9375000 0.4375000
f 432/432 433/433 434/434
v 0.4948946 0.5670473 0.3876650
vt 0.5625000 0.5625000
v 0.5601434 0.5745473 0.4029725
vt 0.6875000 0.5625000
v 0.5601434 0.5745473 0.3723575
vt 0.6875000 0.6875000
f 435/435 436/436 437/437
v 0.5601434 0.5745473 0.3723575
vt 0.3125000 0.5625000
v 0.5601434 0.5745473 0.4029725
vt 0.4375000 0.5625000
v 0.6173084 0.6151723 0.4125394
vt 0.4375000 0.6875000
v 0.6173084 0.6151723 0.3627906
vt 0.3125000 0.6875000
f 438/438 439/439 440/440 441/441
v 0.6173084 0.6151723 0.3627906
vt 0.8125000 0.3125000
v 0.6173084 0.6151723 0.4125394
vt 0.9375000 0.3125000
v 0.6086471 0.7101723 0.4120613
vt 0.9375000 0.4375000
v 0.6086471 0.7101723 0.3632688
vt 0.8125000 0.4375000
f 442/442 443/443 444/444 445/445
v 0.6086471 0.7101723 0.3632688
vt 0.5625000 0.3125000
v 0.6086471 0.7101723 0.4120613
vt 0.6875000 0.3125000
v 0.4948946 0.7945473 0.3876650
vt 0.6875000 0.4375000
f 446/446 447/447 448/448
