# Generated from blockbench/amulets/icicle/icicle.bbmodel; do not hand-edit.
mtllib icicle.mtl
usemtl amulet
v 0.4658924 0.4040280 0.3419632
vt 0.8125000 0.1875000
v 0.4515050 0.4433537 0.3419632
vt 0.9375000 0.1875000
v 0.3154112 0.3935633 0.3784762
vt 0.9375000 0.0625000
v 0.3297986 0.3542375 0.3784762
vt 0.8125000 0.0625000
f 1/1 2/2 3/3 4/4
v 0.4608264 0.4467640 0.3813570
vt 0.5625000 0.1875000
v 0.4752138 0.4074382 0.3813570
vt 0.6875000 0.1875000
v 0.3391200 0.3576478 0.4178700
vt 0.6875000 0.0625000
v 0.3247326 0.3969736 0.4178700
vt 0.5625000 0.0625000
f 5/5 6/6 7/7 8/8
v 0.4515050 0.4433537 0.3419632
vt 0.8125000 0.1875000
v 0.4608264 0.4467640 0.3813570
vt 0.9375000 0.1875000
v 0.3247326 0.3969736 0.4178700
vt 0.9375000 0.0625000
v 0.3154112 0.3935633 0.3784762
vt 0.8125000 0.0625000
f 9/9 10/10 11/11 12/12
v 0.4752138 0.4074382 0.3813570
vt 0.3125000 0.1875000
v 0.4658924 0.4040280 0.3419632
vt 0.4375000 0.1875000
v 0.3297986 0.3542375 0.3784762
vt 0.4375000 0.0625000
v 0.3391200 0.3576478 0.4178700
vt 0.3125000 0.0625000
f 13/13 14/14 15/15 16/16
v 0.3154112 0.3935633 0.3784762
vt 0.0625000 0.4375000
v 0.3247326 0.3969736 0.4178700
vt 0.1875000 0.4375000
v 0.3391200 0.3576478 0.4178700
vt 0.1875000 0.3125000
v 0.3297986 0.3542375 0.3784762
vt 0.0625000 0.3125000
f 17/17 18/18 19/19 20/20
v 0.4515050 0.4433537 0.3419632
vt 0.0625000 0.1875000
v 0.4658924 0.4040280 0.3419632
vt 0.1875000 0.1875000
v 0.4752138 0.4074382 0.3813570
vt 0.1875000 0.0625000
v 0.4608264 0.4467640 0.3813570
vt 0.0625000 0.0625000
f 21/21 22/22 23/23 24/24
v 0.3394078 0.3577662 0.3763389
vt 0.5625000 0.1875000
v 0.3217478 0.3957351 0.3763389
vt 0.6875000 0.1875000
v 0.1796812 0.3296576 0.4159855
vt 0.6875000 0.0625000
v 0.1973411 0.2916886 0.4159855
vt 0.5625000 0.0625000
f 25/25 26/26 27/27 28/28
v 0.3307839 0.3999379 0.4157227
vt 0.5625000 0.1875000
v 0.3484438 0.3619690 0.4157227
vt 0.6875000 0.1875000
v 0.2063772 0.2958914 0.4553692
vt 0.6875000 0.0625000
v 0.1887172 0.3338604 0.4553692
vt 0.5625000 0.0625000
f 29/29 30/30 31/31 32/32
v 0.3217478 0.3957351 0.3763389
vt 0.8125000 0.1875000
v 0.3307839 0.3999379 0.4157227
vt 0.9375000 0.1875000
v 0.1887172 0.3338604 0.4553692
vt 0.9375000 0.0625000
v 0.1796812 0.3296576 0.4159855
vt 0.8125000 0.0625000
f 33/33 34/34 35/35 36/36
v 0.3484438 0.3619690 0.4157227
vt 0.3125000 0.1875000
v 0.3394078 0.3577662 0.3763389
vt 0.4375000 0.1875000
v 0.1973411 0.2916886 0.4159855
vt 0.4375000 0.0625000
v 0.2063772 0.2958914 0.4553692
vt 0.3125000 0.0625000
f 37/37 38/38 39/39 40/40
v 0.1796812 0.3296576 0.4159855
vt 0.0625000 0.4375000
v 0.1887172 0.3338604 0.4553692
vt 0.1875000 0.4375000
v 0.2063772 0.2958914 0.4553692
vt 0.1875000 0.3125000
v 0.1973411 0.2916886 0.4159855
vt 0.0625000 0.3125000
f 41/41 42/42 43/43 44/44
v 0.3217478 0.3957351 0.3763389
vt 0.0625000 0.1875000
v 0.3394078 0.3577662 0.3763389
vt 0.1875000 0.1875000
v 0.3484438 0.3619690 0.4157227
vt 0.1875000 0.0625000
v 0.3307839 0.3999379 0.4157227
vt 0.0625000 0.0625000
f 45/45 46/46 47/47 48/48
v 0.2132329 0.2960707 0.4184623
vt 0.5625000 0.1875000
v 0.1730833 0.3079669 0.4184623
vt 0.6875000 0.1875000
v 0.1465251 0.2183330 0.5346543
vt 0.6875000 0.0625000
v 0.1866748 0.2064368 0.5346543
vt 0.5625000 0.0625000
f 49/49 50/50 51/51 52/52
v 0.1820752 0.3383147 0.4439288
vt 0.5625000 0.1875000
v 0.2222249 0.3264185 0.4439288
vt 0.6875000 0.1875000
v 0.1956667 0.2367847 0.5601208
vt 0.6875000 0.0625000
v 0.1555171 0.2486809 0.5601208
vt 0.5625000 0.0625000
f 53/53 54/54 55/55 56/56
v 0.1730833 0.3079669 0.4184623
vt 0.8125000 0.1875000
v 0.1820752 0.3383147 0.4439288
vt 0.9375000 0.1875000
v 0.1555171 0.2486809 0.5601208
vt 0.9375000 0.0625000
v 0.1465251 0.2183330 0.5346543
vt 0.8125000 0.0625000
f 57/57 58/58 59/59 60/60
v 0.2222249 0.3264185 0.4439288
vt 0.3125000 0.1875000
v 0.2132329 0.2960707 0.4184623
vt 0.4375000 0.1875000
v 0.1866748 0.2064368 0.5346543
vt 0.4375000 0.0625000
v 0.1956667 0.2367847 0.5601208
vt 0.3125000 0.0625000
f 61/61 62/62 63/63 64/64
v 0.1465251 0.2183330 0.5346543
vt 0.0625000 0.4375000
v 0.1555171 0.2486809 0.5601208
vt 0.1875000 0.4375000
v 0.1956667 0.2367847 0.5601208
vt 0.1875000 0.3125000
v 0.1866748 0.2064368 0.5346543
vt 0.0625000 0.3125000
f 65/65 66/66 67/67 68/68
v 0.1730833 0.3079669 0.4184623
vt 0.0625000 0.1875000
v 0.2132329 0.2960707 0.4184623
vt 0.1875000 0.1875000
v 0.2222249 0.3264185 0.4439288
vt 0.1875000 0.0625000
v 0.1820752 0.3383147 0.4439288
vt 0.0625000 0.0625000
f 69/69 70/70 71/71 72/72
v 0.1965091 0.2304763 0.5277558
vt 0.8125000 0.1875000
v 0.1611808 0.2079946 0.5277558
vt 0.9375000 0.1875000
v 0.2078985 0.1345812 0.6345390
vt 0.9375000 0.0625000
v 0.2432268 0.1570628 0.6345390
vt 0.8125000 0.0625000
f 73/73 74/74 75/75 76/76
v 0.1442732 0.2345637 0.5534191
vt 0.5625000 0.1875000
v 0.1796015 0.2570454 0.5534191
vt 0.6875000 0.1875000
v 0.2263192 0.1836319 0.6602023
vt 0.6875000 0.0625000
v 0.1909909 0.1611503 0.6602023
vt 0.5625000 0.0625000
f 77/77 78/78 79/79 80/80
v 0.1611808 0.2079946 0.5277558
vt 0.8125000 0.1875000
v 0.1442732 0.2345637 0.5534191
vt 0.9375000 0.1875000
v 0.1909909 0.1611503 0.6602023
vt 0.9375000 0.0625000
v 0.2078985 0.1345812 0.6345390
vt 0.8125000 0.0625000
f 81/81 82/82 83/83 84/84
v 0.1796015 0.2570454 0.5534191
vt 0.3125000 0.1875000
v 0.1965091 0.2304763 0.5277558
vt 0.4375000 0.1875000
v 0.2432268 0.1570628 0.6345390
vt 0.4375000 0.0625000
v 0.2263192 0.1836319 0.6602023
vt 0.3125000 0.0625000
f 85/85 86/86 87/87 88/88
v 0.2078985 0.1345812 0.6345390
vt 0.0625000 0.4375000
v 0.1909909 0.1611503 0.6602023
vt 0.1875000 0.4375000
v 0.2263192 0.1836319 0.6602023
vt 0.1875000 0.3125000
v 0.2432268 0.1570628 0.6345390
vt 0.0625000 0.3125000
f 89/89 90/90 91/91 92/92
v 0.1611808 0.2079946 0.5277558
vt 0.0625000 0.1875000
v 0.1965091 0.2304763 0.5277558
vt 0.1875000 0.1875000
v 0.1796015 0.2570454 0.5534191
vt 0.1875000 0.0625000
v 0.1442732 0.2345637 0.5534191
vt 0.0625000 0.0625000
f 93/93 94/94 95/95 96/96
v 0.2153517 0.1824086 0.6232356
vt 0.5625000 0.1875000
v 0.2134924 0.1405749 0.6232356
vt 0.6875000 0.1875000
v 0.3627555 0.1339410 0.6464543
vt 0.6875000 0.0625000
v 0.3646148 0.1757747 0.6464543
vt 0.5625000 0.0625000
f 97/97 98/98 99/99 100/100
v 0.2072602 0.1408519 0.6633788
vt 0.5625000 0.1875000
v 0.2091195 0.1826856 0.6633788
vt 0.6875000 0.1875000
v 0.3583826 0.1760517 0.6865975
vt 0.6875000 0.0625000
v 0.3565233 0.1342180 0.6865975
vt 0.5625000 0.0625000
f 101/101 102/102 103/103 104/104
v 0.2134924 0.1405749 0.6232356
vt 0.8125000 0.1875000
v 0.2072602 0.1408519 0.6633788
vt 0.9375000 0.1875000
v 0.3565233 0.1342180 0.6865975
vt 0.9375000 0.0625000
v 0.3627555 0.1339410 0.6464543
vt 0.8125000 0.0625000
f 105/105 106/106 107/107 108/108
v 0.2091195 0.1826856 0.6633788
vt 0.3125000 0.1875000
v 0.2153517 0.1824086 0.6232356
vt 0.4375000 0.1875000
v 0.3646148 0.1757747 0.6464543
vt 0.4375000 0.0625000
v 0.3583826 0.1760517 0.6865975
vt 0.3125000 0.0625000
f 109/109 110/110 111/111 112/112
v 0.3627555 0.1339410 0.6464543
vt 0.0625000 0.4375000
v 0.3565233 0.1342180 0.6865975
vt 0.1875000 0.4375000
v 0.3583826 0.1760517 0.6865975
vt 0.1875000 0.3125000
v 0.3646148 0.1757747 0.6464543
vt 0.0625000 0.3125000
f 113/113 114/114 115/115 116/116
v 0.2134924 0.1405749 0.6232356
vt 0.0625000 0.1875000
v 0.2153517 0.1824086 0.6232356
vt 0.1875000 0.1875000
v 0.2091195 0.1826856 0.6633788
vt 0.1875000 0.0625000
v 0.2072602 0.1408519 0.6633788
vt 0.0625000 0.0625000
f 117/117 118/118 119/119 120/120
v 0.3518750 0.1761258 0.6455416
vt 0.5625000 0.1875000
v 0.3518750 0.1342508 0.6455416
vt 0.6875000 0.1875000
v 0.5043750 0.1342508 0.6455416
vt 0.6875000 0.0625000
v 0.5043750 0.1761258 0.6455416
vt 0.5625000 0.0625000
f 121/121 122/122 123/123 124/124
v 0.3518750 0.1342508 0.6861666
vt 0.5625000 0.1875000
v 0.3518750 0.1761258 0.6861666
vt 0.6875000 0.1875000
v 0.5043750 0.1761258 0.6861666
vt 0.6875000 0.0625000
v 0.5043750 0.1342508 0.6861666
vt 0.5625000 0.0625000
f 125/125 126/126 127/127 128/128
v 0.3518750 0.1342508 0.6455416
vt 0.8125000 0.1875000
v 0.3518750 0.1342508 0.6861666
vt 0.9375000 0.1875000
v 0.5043750 0.1342508 0.6861666
vt 0.9375000 0.0625000
v 0.5043750 0.1342508 0.6455416
vt 0.8125000 0.0625000
f 129/129 130/130 131/131 132/132
v 0.3518750 0.1761258 0.6861666
vt 0.3125000 0.1875000
v 0.3518750 0.1761258 0.6455416
vt 0.4375000 0.1875000
v 0.5043750 0.1761258 0.6455416
vt 0.4375000 0.0625000
v 0.5043750 0.1761258 0.6861666
vt 0.3125000 0.0625000
f 133/133 134/134 135/135 136/136
v 0.5043750 0.1342508 0.6455416
vt 0.0625000 0.4375000
v 0.5043750 0.1342508 0.6861666
vt 0.1875000 0.4375000
v 0.5043750 0.1761258 0.6861666
vt 0.1875000 0.3125000
v 0.5043750 0.1761258 0.6455416
vt 0.0625000 0.3125000
f 137/137 138/138 139/139 140/140
v 0.3518750 0.1342508 0.6455416
vt 0.0625000 0.1875000
v 0.3518750 0.1761258 0.6455416
vt 0.1875000 0.1875000
v 0.3518750 0.1761258 0.6861666
vt 0.1875000 0.0625000
v 0.3518750 0.1342508 0.6861666
vt 0.0625000 0.0625000
f 141/141 142/142 143/143 144/144
v 0.4956250 0.1761258 0.6455416
vt 0.8125000 0.1875000
v 0.4956250 0.1342508 0.6455416
vt 0.9375000 0.1875000
v 0.6481250 0.1342508 0.6455416
vt 0.9375000 0.0625000
v 0.6481250 0.1761258 0.6455416
vt 0.8125000 0.0625000
f 145/145 146/146 147/147 148/148
v 0.4956250 0.1342508 0.6861666
vt 0.5625000 0.1875000
v 0.4956250 0.1761258 0.6861666
vt 0.6875000 0.1875000
v 0.6481250 0.1761258 0.6861666
vt 0.6875000 0.0625000
v 0.6481250 0.1342508 0.6861666
vt 0.5625000 0.0625000
f 149/149 150/150 151/151 152/152
v 0.4956250 0.1342508 0.6455416
vt 0.8125000 0.1875000
v 0.4956250 0.1342508 0.6861666
vt 0.9375000 0.1875000
v 0.6481250 0.1342508 0.6861666
vt 0.9375000 0.0625000
v 0.6481250 0.1342508 0.6455416
vt 0.8125000 0.0625000
f 153/153 154/154 155/155 156/156
v 0.4956250 0.1761258 0.6861666
vt 0.3125000 0.1875000
v 0.4956250 0.1761258 0.6455416
vt 0.4375000 0.1875000
v 0.6481250 0.1761258 0.6455416
vt 0.4375000 0.0625000
v 0.6481250 0.1761258 0.6861666
vt 0.3125000 0.0625000
f 157/157 158/158 159/159 160/160
v 0.6481250 0.1342508 0.6455416
vt 0.0625000 0.4375000
v 0.6481250 0.1342508 0.6861666
vt 0.1875000 0.4375000
v 0.6481250 0.1761258 0.6861666
vt 0.1875000 0.3125000
v 0.6481250 0.1761258 0.6455416
vt 0.0625000 0.3125000
f 161/161 162/162 163/163 164/164
v 0.4956250 0.1342508 0.6455416
vt 0.0625000 0.1875000
v 0.4956250 0.1761258 0.6455416
vt 0.1875000 0.1875000
v 0.4956250 0.1761258 0.6861666
vt 0.1875000 0.0625000
v 0.4956250 0.1342508 0.6861666
vt 0.0625000 0.0625000
f 165/165 166/166 167/167 168/168
v 0.6353852 0.1757747 0.6464543
vt 0.5625000 0.1875000
v 0.6372445 0.1339410 0.6464543
vt 0.6875000 0.1875000
v 0.7865076 0.1405749 0.6232356
vt 0.6875000 0.0625000
v 0.7846483 0.1824086 0.6232356
vt 0.5625000 0.0625000
f 169/169 170/170 171/171 172/172
v 0.6434767 0.1342180 0.6865975
vt 0.5625000 0.1875000
v 0.6416174 0.1760517 0.6865975
vt 0.6875000 0.1875000
v 0.7908805 0.1826856 0.6633788
vt 0.6875000 0.0625000
v 0.7927398 0.1408519 0.6633788
vt 0.5625000 0.0625000
f 173/173 174/174 175/175 176/176
v 0.6372445 0.1339410 0.6464543
vt 0.8125000 0.1875000
v 0.6434767 0.1342180 0.6865975
vt 0.9375000 0.1875000
v 0.7927398 0.1408519 0.6633788
vt 0.9375000 0.0625000
v 0.7865076 0.1405749 0.6232356
vt 0.8125000 0.0625000
f 177/177 178/178 179/179 180/180
v 0.6416174 0.1760517 0.6865975
vt 0.3125000 0.1875000
v 0.6353852 0.1757747 0.6464543
vt 0.4375000 0.1875000
v 0.7846483 0.1824086 0.6232356
vt 0.4375000 0.0625000
v 0.7908805 0.1826856 0.6633788
vt 0.3125000 0.0625000
f 181/181 182/182 183/183 184/184
v 0.7865076 0.1405749 0.6232356
vt 0.0625000 0.4375000
v 0.7927398 0.1408519 0.6633788
vt 0.1875000 0.4375000
v 0.7908805 0.1826856 0.6633788
vt 0.1875000 0.3125000
v 0.7846483 0.1824086 0.6232356
vt 0.0625000 0.3125000
f 185/185 186/186 187/187 188/188
v 0.6372445 0.1339410 0.6464543
vt 0.0625000 0.1875000
v 0.6353852 0.1757747 0.6464543
vt 0.1875000 0.1875000
v 0.6416174 0.1760517 0.6865975
vt 0.1875000 0.0625000
v 0.6434767 0.1342180 0.6865975
vt 0.0625000 0.0625000
f 189/189 190/190 191/191 192/192
v 0.7567732 0.1570628 0.6345390
vt 0.5625000 0.1875000
v 0.7921015 0.1345812 0.6345390
vt 0.6875000 0.1875000
v 0.8388192 0.2079946 0.5277558
vt 0.6875000 0.0625000
v 0.8034909 0.2304763 0.5277558
vt 0.5625000 0.0625000
f 193/193 194/194 195/195 196/196
v 0.8090091 0.1611503 0.6602023
vt 0.5625000 0.1875000
v 0.7736808 0.1836319 0.6602023
vt 0.6875000 0.1875000
v 0.8203985 0.2570454 0.5534191
vt 0.6875000 0.0625000
v 0.8557268 0.2345637 0.5534191
vt 0.5625000 0.0625000
f 197/197 198/198 199/199 200/200
v 0.7921015 0.1345812 0.6345390
vt 0.8125000 0.1875000
v 0.8090091 0.1611503 0.6602023
vt 0.9375000 0.1875000
v 0.8557268 0.2345637 0.5534191
vt 0.9375000 0.0625000
v 0.8388192 0.2079946 0.5277558
vt 0.8125000 0.0625000
f 201/201 202/202 203/203 204/204
v 0.7736808 0.1836319 0.6602023
vt 0.3125000 0.1875000
v 0.7567732 0.1570628 0.6345390
vt 0.4375000 0.1875000
v 0.8034909 0.2304763 0.5277558
vt 0.4375000 0.0625000
v 0.8203985 0.2570454 0.5534191
vt 0.3125000 0.0625000
f 205/205 206/206 207/207 208/208
v 0.8388192 0.2079946 0.5277558
vt 0.0625000 0.4375000
v 0.8557268 0.2345637 0.5534191
vt 0.1875000 0.4375000
v 0.8203985 0.2570454 0.5534191
vt 0.1875000 0.3125000
v 0.8034909 0.2304763 0.5277558
vt 0.0625000 0.3125000
f 209/209 210/210 211/211 212/212
v 0.7921015 0.1345812 0.6345390
vt 0.0625000 0.1875000
v 0.7567732 0.1570628 0.6345390
vt 0.1875000 0.1875000
v 0.7736808 0.1836319 0.6602023
vt 0.1875000 0.0625000
v 0.8090091 0.1611503 0.6602023
vt 0.0625000 0.0625000
f 213/213 214/214 215/215 216/216
v 0.8133252 0.2064368 0.5346543
vt 0.8125000 0.1875000
v 0.8534749 0.2183330 0.5346543
vt 0.9375000 0.1875000
v 0.8269167 0.3079669 0.4184623
vt 0.9375000 0.0625000
v 0.7867671 0.2960707 0.4184623
vt 0.8125000 0.0625000
f 217/217 218/218 219/219 220/220
v 0.8444829 0.2486809 0.5601208
vt 0.5625000 0.1875000
v 0.8043333 0.2367847 0.5601208
vt 0.6875000 0.1875000
v 0.7777751 0.3264185 0.4439288
vt 0.6875000 0.0625000
v 0.8179248 0.3383147 0.4439288
vt 0.5625000 0.0625000
f 221/221 222/222 223/223 224/224
v 0.8534749 0.2183330 0.5346543
vt 0.8125000 0.1875000
v 0.8444829 0.2486809 0.5601208
vt 0.9375000 0.1875000
v 0.8179248 0.3383147 0.4439288
vt 0.9375000 0.0625000
v 0.8269167 0.3079669 0.4184623
vt 0.8125000 0.0625000
f 225/225 226/226 227/227 228/228
v 0.8043333 0.2367847 0.5601208
vt 0.3125000 0.1875000
v 0.8133252 0.2064368 0.5346543
vt 0.4375000 0.1875000
v 0.7867671 0.2960707 0.4184623
vt 0.4375000 0.0625000
v 0.7777751 0.3264185 0.4439288
vt 0.3125000 0.0625000
f 229/229 230/230 231/231 232/232
v 0.8269167 0.3079669 0.4184623
vt 0.0625000 0.4375000
v 0.8179248 0.3383147 0.4439288
vt 0.1875000 0.4375000
v 0.7777751 0.3264185 0.4439288
vt 0.1875000 0.3125000
v 0.7867671 0.2960707 0.4184623
vt 0.0625000 0.3125000
f 233/233 234/234 235/235 236/236
v 0.8534749 0.2183330 0.5346543
vt 0.0625000 0.1875000
v 0.8133252 0.2064368 0.5346543
vt 0.1875000 0.1875000
v 0.8043333 0.2367847 0.5601208
vt 0.1875000 0.0625000
v 0.8444829 0.2486809 0.5601208
vt 0.0625000 0.0625000
f 237/237 238/238 239/239 240/240
v 0.8026589 0.2916886 0.4159855
vt 0.5625000 0.1875000
v 0.8203188 0.3296576 0.4159855
vt 0.6875000 0.1875000
v 0.6782522 0.3957351 0.3763389
vt 0.6875000 0.0625000
v 0.6605922 0.3577662 0.3763389
vt 0.5625000 0.0625000
f 241/241 242/242 243/243 244/244
v 0.8112828 0.3338604 0.4553692
vt 0.5625000 0.1875000
v 0.7936228 0.2958914 0.4553692
vt 0.6875000 0.1875000
v 0.6515562 0.3619690 0.4157227
vt 0.6875000 0.0625000
v 0.6692161 0.3999379 0.4157227
vt 0.5625000 0.0625000
f 245/245 246/246 247/247 248/248
v 0.8203188 0.3296576 0.4159855
vt 0.8125000 0.1875000
v 0.8112828 0.3338604 0.4553692
vt 0.9375000 0.1875000
v 0.6692161 0.3999379 0.4157227
vt 0.9375000 0.0625000
v 0.6782522 0.3957351 0.3763389
vt 0.8125000 0.0625000
f 249/249 250/250 251/251 252/252
v 0.7936228 0.2958914 0.4553692
vt 0.3125000 0.1875000
v 0.8026589 0.2916886 0.4159855
vt 0.4375000 0.1875000
v 0.6605922 0.3577662 0.3763389
vt 0.4375000 0.0625000
v 0.6515562 0.3619690 0.4157227
vt 0.3125000 0.0625000
f 253/253 254/254 255/255 256/256
v 0.6782522 0.3957351 0.3763389
vt 0.0625000 0.4375000
v 0.6692161 0.3999379 0.4157227
vt 0.1875000 0.4375000
v 0.6515562 0.3619690 0.4157227
vt 0.1875000 0.3125000
v 0.6605922 0.3577662 0.3763389
vt 0.0625000 0.3125000
f 257/257 258/258 259/259 260/260
v 0.8203188 0.3296576 0.4159855
vt 0.0625000 0.1875000
v 0.8026589 0.2916886 0.4159855
vt 0.1875000 0.1875000
v 0.7936228 0.2958914 0.4553692
vt 0.1875000 0.0625000
v 0.8112828 0.3338604 0.4553692
vt 0.0625000 0.0625000
f 261/261 262/262 263/263 264/264
v 0.6702014 0.3542375 0.3784762
vt 0.5625000 0.1875000
v 0.6845888 0.3935633 0.3784762
vt 0.6875000 0.1875000
v 0.5484950 0.4433537 0.3419632
vt 0.6875000 0.0625000
v 0.5341076 0.4040280 0.3419632
vt 0.5625000 0.0625000
f 265/265 266/266 267/267 268/268
v 0.6752674 0.3969736 0.4178700
vt 0.5625000 0.1875000
v 0.6608800 0.3576478 0.4178700
vt 0.6875000 0.1875000
v 0.5247862 0.4074382 0.3813570
vt 0.6875000 0.0625000
v 0.5391736 0.4467640 0.3813570
vt 0.5625000 0.0625000
f 269/269 270/270 271/271 272/272
v 0.6845888 0.3935633 0.3784762
vt 0.8125000 0.1875000
v 0.6752674 0.3969736 0.4178700
vt 0.9375000 0.1875000
v 0.5391736 0.4467640 0.3813570
vt 0.9375000 0.0625000
v 0.5484950 0.4433537 0.3419632
vt 0.8125000 0.0625000
f 273/273 274/274 275/275 276/276
v 0.6608800 0.3576478 0.4178700
vt 0.3125000 0.1875000
v 0.6702014 0.3542375 0.3784762
vt 0.4375000 0.1875000
v 0.5341076 0.4040280 0.3419632
vt 0.4375000 0.0625000
v 0.5247862 0.4074382 0.3813570
vt 0.3125000 0.0625000
f 277/277 278/278 279/279 280/280
v 0.5484950 0.4433537 0.3419632
vt 0.0625000 0.4375000
v 0.5391736 0.4467640 0.3813570
vt 0.1875000 0.4375000
v 0.5247862 0.4074382 0.3813570
vt 0.1875000 0.3125000
v 0.5341076 0.4040280 0.3419632
vt 0.0625000 0.3125000
f 281/281 282/282 283/283 284/284
v 0.6845888 0.3935633 0.3784762
vt 0.0625000 0.1875000
v 0.6702014 0.3542375 0.3784762
vt 0.1875000 0.1875000
v 0.6608800 0.3576478 0.4178700
vt 0.1875000 0.0625000
v 0.6752674 0.3969736 0.4178700
vt 0.0625000 0.0625000
f 285/285 286/286 287/287 288/288
v 0.5562500 0.4551883 0.3208541
vt 0.8125000 0.9375000
v 0.4437500 0.4551883 0.3208541
vt 0.9375000 0.9375000
v 0.4437500 0.3770633 0.3208541
vt 0.9375000 0.8125000
v 0.5562500 0.3770633 0.3208541
vt 0.8125000 0.8125000
f 289/289 290/290 291/291 292/292
v 0.4437500 0.4551883 0.4052291
vt 0.5625000 0.4375000
v 0.5562500 0.4551883 0.4052291
vt 0.6875000 0.4375000
v 0.5562500 0.3770633 0.4052291
vt 0.6875000 0.3125000
v 0.4437500 0.3770633 0.4052291
vt 0.5625000 0.3125000
f 293/293 294/294 295/295 296/296
v 0.4437500 0.4551883 0.3208541
vt 0.8125000 0.4375000
v 0.4437500 0.4551883 0.4052291
vt 0.9375000 0.4375000
v 0.4437500 0.3770633 0.4052291
vt 0.9375000 0.3125000
v 0.4437500 0.3770633 0.3208541
vt 0.8125000 0.3125000
f 297/297 298/298 299/299 300/300
v 0.5562500 0.4551883 0.4052291
vt 0.3125000 0.4375000
v 0.5562500 0.4551883 0.3208541
vt 0.4375000 0.4375000
v 0.5562500 0.3770633 0.3208541
vt 0.4375000 0.3125000
v 0.5562500 0.3770633 0.4052291
vt 0.3125000 0.3125000
f 301/301 302/302 303/303 304/304
v 0.4437500 0.3770633 0.3208541
vt 0.8125000 0.4375000
v 0.4437500 0.3770633 0.4052291
vt 0.9375000 0.4375000
v 0.5562500 0.3770633 0.4052291
vt 0.9375000 0.3125000
v 0.5562500 0.3770633 0.3208541
vt 0.8125000 0.3125000
f 305/305 306/306 307/307 308/308
v 0.4437500 0.4551883 0.3208541
vt 0.3125000 0.4375000
v 0.5562500 0.4551883 0.3208541
vt 0.4375000 0.4375000
v 0.5562500 0.4551883 0.4052291
vt 0.4375000 0.3125000
v 0.4437500 0.4551883 0.4052291
vt 0.3125000 0.3125000
f 309/309 310/310 311/311 312/312
v 0.4831250 0.4476883 0.3171041
vt 0.8125000 0.4375000
v 0.4581250 0.4476883 0.3171041
vt 0.9375000 0.4375000
v 0.4581250 0.3839383 0.3171041
vt 0.9375000 0.3125000
v 0.4831250 0.3839383 0.3171041
vt 0.8125000 0.3125000
f 313/313 314/314 315/315 316/316
v 0.4581250 0.4476883 0.3227291
vt 0.8125000 0.4375000
v 0.4831250 0.4476883 0.3227291
vt 0.9375000 0.4375000
v 0.4831250 0.3839383 0.3227291
vt 0.9375000 0.3125000
v 0.4581250 0.3839383 0.3227291
vt 0.8125000 0.3125000
f 317/317 318/318 319/319 320/320
v 0.4581250 0.4476883 0.3171041
vt 0.8125000 0.4375000
v 0.4581250 0.4476883 0.3227291
vt 0.9375000 0.4375000
v 0.4581250 0.3839383 0.3227291
vt 0.9375000 0.3125000
v 0.4581250 0.3839383 0.3171041
vt 0.8125000 0.3125000
f 321/321 322/322 323/323 324/324
v 0.4831250 0.4476883 0.3227291
vt 0.8125000 0.4375000
v 0.4831250 0.4476883 0.3171041
vt 0.9375000 0.4375000
v 0.4831250 0.3839383 0.3171041
vt 0.9375000 0.3125000
v 0.4831250 0.3839383 0.3227291
vt 0.8125000 0.3125000
f 325/325 326/326 327/327 328/328
v 0.4581250 0.3839383 0.3171041
vt 0.8125000 0.4375000
v 0.4581250 0.3839383 0.3227291
vt 0.9375000 0.4375000
v 0.4831250 0.3839383 0.3227291
vt 0.9375000 0.3125000
v 0.4831250 0.3839383 0.3171041
vt 0.8125000 0.3125000
f 329/329 330/330 331/331 332/332
v 0.4581250 0.4476883 0.3171041
vt 0.8125000 0.4375000
v 0.4831250 0.4476883 0.3171041
vt 0.9375000 0.4375000
v 0.4831250 0.4476883 0.3227291
vt 0.9375000 0.3125000
v 0.4581250 0.4476883 0.3227291
vt 0.8125000 0.3125000
f 333/333 334/334 335/335 336/336
v 0.5581250 0.3833133 0.3189791
vt 0.8125000 0.4375000
v 0.4418750 0.3833133 0.3189791
vt 0.9375000 0.4375000
v 0.4418750 0.3726883 0.3189791
vt 0.9375000 0.3125000
v 0.5581250 0.3726883 0.3189791
vt 0.8125000 0.3125000
f 337/337 338/338 339/339 340/340
v 0.4418750 0.3833133 0.4077291
vt 0.5625000 0.4375000
v 0.5581250 0.3833133 0.4077291
vt 0.6875000 0.4375000
v 0.5581250 0.3726883 0.4077291
vt 0.6875000 0.3125000
v 0.4418750 0.3726883 0.4077291
vt 0.5625000 0.3125000
f 341/341 342/342 343/343 344/344
v 0.4418750 0.3833133 0.3189791
vt 0.5625000 0.4375000
v 0.4418750 0.3833133 0.4077291
vt 0.6875000 0.4375000
v 0.4418750 0.3726883 0.4077291
vt 0.6875000 0.3125000
v 0.4418750 0.3726883 0.3189791
vt 0.5625000 0.3125000
f 345/345 346/346 347/347 348/348
v 0.5581250 0.3833133 0.4077291
vt 0.5625000 0.4375000
v 0.5581250 0.3833133 0.3189791
vt 0.6875000 0.4375000
v 0.5581250 0.3726883 0.3189791
vt 0.6875000 0.3125000
v 0.5581250 0.3726883 0.4077291
vt 0.5625000 0.3125000
f 349/349 350/350 351/351 352/352
v 0.4418750 0.3726883 0.3189791
vt 0.8125000 0.4375000
v 0.4418750 0.3726883 0.4077291
vt 0.9375000 0.4375000
v 0.5581250 0.3726883 0.4077291
vt 0.9375000 0.3125000
v 0.5581250 0.3726883 0.3189791
vt 0.8125000 0.3125000
f 353/353 354/354 355/355 356/356
v 0.4418750 0.3833133 0.3189791
vt 0.5625000 0.4375000
v 0.5581250 0.3833133 0.3189791
vt 0.6875000 0.4375000
v 0.5581250 0.3833133 0.4077291
vt 0.6875000 0.3125000
v 0.4418750 0.3833133 0.4077291
vt 0.5625000 0.3125000
f 357/357 358/358 359/359 360/360
v 0.5299829 0.5146782 0.3299166
vt 0.8125000 0.6875000
v 0.4598153 0.5023058 0.3299166
vt 0.9375000 0.6875000
v 0.4700171 0.4444483 0.3299166
vt 0.9375000 0.5625000
v 0.5401847 0.4568208 0.3299166
vt 0.8125000 0.5625000
f 361/361 362/362 363/363 364/364
v 0.4598153 0.5023058 0.3955416
vt 0.5625000 0.6875000
v 0.5299829 0.5146782 0.3955416
vt 0.6875000 0.6875000
v 0.5401847 0.4568208 0.3955416
vt 0.6875000 0.5625000
v 0.4700171 0.4444483 0.3955416
vt 0.5625000 0.5625000
f 365/365 366/366 367/367 368/368
v 0.4598153 0.5023058 0.3299166
vt 0.0625000 0.9375000
v 0.4598153 0.5023058 0.3955416
vt 0.1875000 0.9375000
v 0.4700171 0.4444483 0.3955416
vt 0.1875000 0.8125000
v 0.4700171 0.4444483 0.3299166
vt 0.0625000 0.8125000
f 369/369 370/370 371/371 372/372
v 0.5299829 0.5146782 0.3955416
vt 0.0625000 0.6875000
v 0.5299829 0.5146782 0.3299166
vt 0.1875000 0.6875000
v 0.5401847 0.4568208 0.3299166
vt 0.1875000 0.5625000
v 0.5401847 0.4568208 0.3955416
vt 0.0625000 0.5625000
f 373/373 374/374 375/375 376/376
v 0.4700171 0.4444483 0.3299166
vt 0.0625000 0.9375000
v 0.4700171 0.4444483 0.3955416
vt 0.1875000 0.9375000
v 0.5401847 0.4568208 0.3955416
vt 0.1875000 0.8125000
v 0.5401847 0.4568208 0.3299166
vt 0.0625000 0.8125000
f 377/377 378/378 379/379 380/380
v 0.4598153 0.5023058 0.3299166
vt 0.5625000 0.6875000
v 0.5299829 0.5146782 0.3299166
vt 0.6875000 0.6875000
v 0.5299829 0.5146782 0.3955416
vt 0.6875000 0.5625000
v 0.4598153 0.5023058 0.3955416
vt 0.5625000 0.5625000
f 381/381 382/382 383/383 384/384
v 0.5155437 0.5744969 0.3134025
vt 0.8125000 0.6875000
v 0.4237568 0.5464349 0.3338038
vt 0.9375000 0.6875000
v 0.4460502 0.4735166 0.3338038
vt 0.9375000 0.5625000
v 0.5378370 0.5015787 0.3134025
vt 0.8125000 0.5625000
f 385/385 386/386 387/387 388/388
v 0.4396630 0.5512979 0.4120556
vt 0.3125000 0.6875000
v 0.5314498 0.5793599 0.3916543
vt 0.4375000 0.6875000
v 0.5537432 0.5064417 0.3916543
vt 0.4375000 0.5625000
v 0.4619563 0.4783796 0.4120556
vt 0.3125000 0.5625000
f 389/389 390/390 391/391 392/392
v 0.4237568 0.5464349 0.3338038
vt 0.3125000 0.9375000
v 0.4396630 0.5512979 0.4120556
vt 0.4375000 0.9375000
v 0.4619563 0.4783796 0.4120556
vt 0.4375000 0.8125000
v 0.4460502 0.4735166 0.3338038
vt 0.3125000 0.8125000
f 393/393 394/394 395/395 396/396
v 0.5314498 0.5793599 0.3916543
vt 0.0625000 0.6875000
v 0.5155437 0.5744969 0.3134025
vt 0.1875000 0.6875000
v 0.5378370 0.5015787 0.3134025
vt 0.1875000 0.5625000
v 0.5537432 0.5064417 0.3916543
vt 0.0625000 0.5625000
f 397/397 398/398 399/399 400/400
v 0.4460502 0.4735166 0.3338038
vt 0.0625000 0.9375000
v 0.4619563 0.4783796 0.4120556
vt 0.1875000 0.9375000
v 0.5537432 0.5064417 0.3916543
vt 0.1875000 0.8125000
v 0.5378370 0.5015787 0.3134025
vt 0.0625000 0.8125000
f 401/401 402/402 403/403 404/404
v 0.4237568 0.5464349 0.3338038
vt 0.3125000 0.6875000
v 0.5155437 0.5744969 0.3134025
vt 0.4375000 0.6875000
v 0.5314498 0.5793599 0.3916543
vt 0.4375000 0.5625000
v 0.4396630 0.5512979 0.4120556
vt 0.3125000 0.5625000
f 405/405 406/406 407/407 408/408
v 0.5647193 0.5842277 0.3373567
vt 0.3125000 0.6875000
v 0.4927324 0.6133124 0.3208538
vt 0.4375000 0.6875000
v 0.4735338 0.5657942 0.3208538
vt 0.4375000 0.5625000
v 0.5455207 0.5367096 0.3373567
vt 0.3125000 0.5625000
f 409/409 410/410 411/411 412/412
v 0.4794793 0.6186670 0.3881014
vt 0.0625000 0.6875000
v 0.5514662 0.5895823 0.4046044
vt 0.1875000 0.6875000
v 0.5322676 0.5420642 0.4046044
vt 0.1875000 0.5625000
v 0.4602807 0.5711488 0.3881014
vt 0.0625000 0.5625000
f 413/413 414/414 415/415 416/416
v 0.4927324 0.6133124 0.3208538
vt 0.8125000 0.6875000
v 0.4794793 0.6186670 0.3881014
vt 0.9375000 0.6875000
v 0.4602807 0.5711488 0.3881014
vt 0.9375000 0.5625000
v 0.4735338 0.5657942 0.3208538
vt 0.8125000 0.5625000
f 417/417 418/418 419/419 420/420
v 0.5514662 0.5895823 0.4046044
vt 0.0625000 0.6875000
v 0.5647193 0.5842277 0.3373567
vt 0.1875000 0.6875000
v 0.5455207 0.5367096 0.3373567
vt 0.1875000 0.5625000
v 0.5322676 0.5420642 0.4046044
vt 0.0625000 0.5625000
f 421/421 422/422 423/423 424/424
v 0.4735338 0.5657942 0.3208538
vt 0.0625000 0.6875000
v 0.4602807 0.5711488 0.3881014
vt 0.1875000 0.6875000
v 0.5322676 0.5420642 0.4046044
vt 0.1875000 0.5625000
v 0.5455207 0.5367096 0.3373567
vt 0.0625000 0.5625000
f 425/425 426/426 427/427 428/428
v 0.4927324 0.6133124 0.3208538
vt 0.0625000 0.6875000
v 0.5647193 0.5842277 0.3373567
vt 0.1875000 0.6875000
v 0.5514662 0.5895823 0.4046044
vt 0.1875000 0.5625000
v 0.4794793 0.6186670 0.3881014
vt 0.0625000 0.5625000
f 429/429 430/430 431/431 432/432
v 0.5228862 0.6677945 0.3205001
vt 0.0625000 0.9375000
v 0.4495578 0.6425455 0.3341749
vt 0.1875000 0.9375000
v 0.4703128 0.5822687 0.3341749
vt 0.1875000 0.8125000
v 0.5436412 0.6075177 0.3205001
vt 0.0625000 0.8125000
f 433/433 434/434 435/435 436/436
v 0.4613588 0.6466089 0.4049580
vt 0.5625000 0.6875000
v 0.5346872 0.6718579 0.3912832
vt 0.6875000 0.6875000
v 0.5554422 0.6115811 0.3912832
vt 0.6875000 0.5625000
v 0.4821138 0.5863321 0.4049580
vt 0.5625000 0.5625000
f 437/437 438/438 439/439 440/440
v 0.4495578 0.6425455 0.3341749
vt 0.3125000 0.9375000
v 0.4613588 0.6466089 0.4049580
vt 0.4375000 0.9375000
v 0.4821138 0.5863321 0.4049580
vt 0.4375000 0.8125000
v 0.4703128 0.5822687 0.3341749
vt 0.3125000 0.8125000
f 441/441 442/442 443/443 444/444
v 0.5346872 0.6718579 0.3912832
vt 0.0625000 0.6875000
v 0.5228862 0.6677945 0.3205001
vt 0.1875000 0.6875000
v 0.5436412 0.6075177 0.3205001
vt 0.1875000 0.5625000
v 0.5554422 0.6115811 0.3912832
vt 0.0625000 0.5625000
f 445/445 446/446 447/447 448/448
v 0.4703128 0.5822687 0.3341749
vt 0.5625000 0.6875000
v 0.4821138 0.5863321 0.4049580
vt 0.6875000 0.6875000
v 0.5554422 0.6115811 0.3912832
vt 0.6875000 0.5625000
v 0.5436412 0.6075177 0.3205001
vt 0.5625000 0.5625000
f 449/449 450/450 451/451 452/452
v 0.4495578 0.6425455 0.3341749
vt 0.5625000 0.6875000
v 0.5228862 0.6677945 0.3205001
vt 0.6875000 0.6875000
v 0.5346872 0.6718579 0.3912832
vt 0.6875000 0.5625000
v 0.4613588 0.6466089 0.4049580
vt 0.5625000 0.5625000
f 453/453 454/454 455/455 456/456
v 0.5523103 0.6865967 0.3376873
vt 0.5625000 0.6875000
v 0.4834429 0.7076516 0.3249893
vt 0.6875000 0.6875000
v 0.4682761 0.6580433 0.3249893
vt 0.6875000 0.5625000
v 0.5371435 0.6369884 0.3376873
vt 0.5625000 0.5625000
f 457/457 458/458 459/459 460/460
v 0.4728565 0.7108882 0.3877708
vt 0.3125000 0.6875000
v 0.5417239 0.6898333 0.4004688
vt 0.4375000 0.6875000
v 0.5265571 0.6402250 0.4004688
vt 0.4375000 0.5625000
v 0.4576897 0.6612798 0.3877708
vt 0.3125000 0.5625000
f 461/461 462/462 463/463 464/464
v 0.4834429 0.7076516 0.3249893
vt 0.0625000 0.9375000
v 0.4728565 0.7108882 0.3877708
vt 0.1875000 0.9375000
v 0.4576897 0.6612798 0.3877708
vt 0.1875000 0.8125000
v 0.4682761 0.6580433 0.3249893
vt 0.0625000 0.8125000
f 465/465 466/466 467/467 468/468
v 0.5417239 0.6898333 0.4004688
vt 0.0625000 0.6875000
v 0.5523103 0.6865967 0.3376873
vt 0.1875000 0.6875000
v 0.5371435 0.6369884 0.3376873
vt 0.1875000 0.5625000
v 0.5265571 0.6402250 0.4004688
vt 0.0625000 0.5625000
f 469/469 470/470 471/471 472/472
v 0.4682761 0.6580433 0.3249893
vt 0.3125000 0.6875000
v 0.4576897 0.6612798 0.3877708
vt 0.4375000 0.6875000
v 0.5265571 0.6402250 0.4004688
vt 0.4375000 0.5625000
v 0.5371435 0.6369884 0.3376873
vt 0.3125000 0.5625000
f 473/473 474/474 475/475 476/476
v 0.4834429 0.7076516 0.3249893
vt 0.3125000 0.6875000
v 0.5523103 0.6865967 0.3376873
vt 0.4375000 0.6875000
v 0.5417239 0.6898333 0.4004688
vt 0.4375000 0.5625000
v 0.4728565 0.7108882 0.3877708
vt 0.3125000 0.5625000
f 477/477 478/478 479/479 480/480
v 0.5181809 0.7512109 0.3271781
vt 0.0625000 0.9375000
v 0.4487645 0.7426876 0.3370072
vt 0.1875000 0.9375000
v 0.4557720 0.6856162 0.3370072
vt 0.1875000 0.8125000
v 0.5251884 0.6941395 0.3271781
vt 0.0625000 0.8125000
f 481/481 482/482 483/483 484/484
v 0.4573116 0.7437371 0.3982800
vt 0.5625000 0.6875000
v 0.5267280 0.7522603 0.3884509
vt 0.6875000 0.6875000
v 0.5337355 0.6951889 0.3884509
vt 0.6875000 0.5625000
v 0.4643191 0.6866657 0.3982800
vt 0.5625000 0.5625000
f 485/485 486/486 487/487 488/488
v 0.4487645 0.7426876 0.3370072
vt 0.3125000 0.9375000
v 0.4573116 0.7437371 0.3982800
vt 0.4375000 0.9375000
v 0.4643191 0.6866657 0.3982800
vt 0.4375000 0.8125000
v 0.4557720 0.6856162 0.3370072
vt 0.3125000 0.8125000
f 489/489 490/490 491/491 492/492
v 0.5267280 0.7522603 0.3884509
vt 0.0625000 0.6875000
v 0.5181809 0.7512109 0.3271781
vt 0.1875000 0.6875000
v 0.5251884 0.6941395 0.3271781
vt 0.1875000 0.5625000
v 0.5337355 0.6951889 0.3884509
vt 0.0625000 0.5625000
f 493/493 494/494 495/495 496/496
v 0.4557720 0.6856162 0.3370072
vt 0.5625000 0.6875000
v 0.4643191 0.6866657 0.3982800
vt 0.6875000 0.6875000
v 0.5337355 0.6951889 0.3884509
vt 0.6875000 0.5625000
v 0.5251884 0.6941395 0.3271781
vt 0.5625000 0.5625000
f 497/497 498/498 499/499 500/500
v 0.4487645 0.7426876 0.3370072
vt 0.5625000 0.6875000
v 0.5181809 0.7512109 0.3271781
vt 0.6875000 0.6875000
v 0.5267280 0.7522603 0.3884509
vt 0.6875000 0.5625000
v 0.4573116 0.7437371 0.3982800
vt 0.5625000 0.5625000
f 501/501 502/502 503/503 504/504
v 0.5346102 0.8004141 0.3355469
vt 0.3125000 0.6875000
v 0.4695882 0.7714644 0.3255438
vt 0.4375000 0.6875000
v 0.4886539 0.7286419 0.3255438
vt 0.4375000 0.5625000
v 0.5536760 0.7575916 0.3355469
vt 0.3125000 0.5625000
f 505/505 506/506 507/507 508/508
v 0.4613240 0.7677849 0.3899113
vt 0.0625000 0.6875000
v 0.5263461 0.7967346 0.3999143
vt 0.1875000 0.6875000
v 0.5454118 0.7539122 0.3999143
vt 0.1875000 0.5625000
v 0.4803898 0.7249625 0.3899113
vt 0.0625000 0.5625000
f 509/509 510/510 511/511 512/512
v 0.4695882 0.7714644 0.3255438
vt 0.5625000 0.6875000
v 0.4613240 0.7677849 0.3899113
vt 0.6875000 0.6875000
v 0.4803898 0.7249625 0.3899113
vt 0.6875000 0.5625000
v 0.4886539 0.7286419 0.3255438
vt 0.5625000 0.5625000
f 513/513 514/514 515/515 516/516
v 0.5263461 0.7967346 0.3999143
vt 0.0625000 0.6875000
v 0.5346102 0.8004141 0.3355469
vt 0.1875000 0.6875000
v 0.5536760 0.7575916 0.3355469
vt 0.1875000 0.5625000
v 0.5454118 0.7539122 0.3999143
vt 0.0625000 0.5625000
f 517/517 518/518 519/519 520/520
v 0.4886539 0.7286419 0.3255438
vt 0.0625000 0.6875000
v 0.4803898 0.7249625 0.3899113
vt 0.1875000 0.6875000
v 0.5454118 0.7539122 0.3999143
vt 0.1875000 0.5625000
v 0.5536760 0.7575916 0.3355469
vt 0.0625000 0.5625000
f 521/521 522/522 523/523 524/524
v 0.4695882 0.7714644 0.3255438
vt 0.0625000 0.6875000
v 0.5346102 0.8004141 0.3355469
vt 0.1875000 0.6875000
v 0.5263461 0.7967346 0.3999143
vt 0.1875000 0.5625000
v 0.4613240 0.7677849 0.3899113
vt 0.0625000 0.5625000
f 525/525 526/526 527/527 528/528
v 0.5203814 0.8497668 0.3320274
vt 0.0625000 0.9375000
v 0.4624245 0.8446962 0.3402038
vt 0.1875000 0.9375000
v 0.4684165 0.7762078 0.3402038
vt 0.1875000 0.8125000
v 0.5263734 0.7812784 0.3320274
vt 0.0625000 0.8125000
f 529/529 530/530 531/531 532/532
v 0.4698766 0.8453482 0.3934307
vt 0.5625000 0.6875000
v 0.5278335 0.8504187 0.3852543
vt 0.6875000 0.6875000
v 0.5338255 0.7819304 0.3852543
vt 0.6875000 0.5625000
v 0.4758686 0.7768598 0.3934307
vt 0.5625000 0.5625000
f 533/533 534/534 535/535 536/536
v 0.4624245 0.8446962 0.3402038
vt 0.3125000 0.9375000
v 0.4698766 0.8453482 0.3934307
vt 0.4375000 0.9375000
v 0.4758686 0.7768598 0.3934307
vt 0.4375000 0.8125000
v 0.4684165 0.7762078 0.3402038
vt 0.3125000 0.8125000
f 537/537 538/538 539/539 540/540
v 0.5278335 0.8504187 0.3852543
vt 0.0625000 0.6875000
v 0.5203814 0.8497668 0.3320274
vt 0.1875000 0.6875000
v 0.5263734 0.7812784 0.3320274
vt 0.1875000 0.5625000
v 0.5338255 0.7819304 0.3852543
vt 0.0625000 0.5625000
f 541/541 542/542 543/543 544/544
v 0.4684165 0.7762078 0.3402038
vt 0.5625000 0.6875000
v 0.4758686 0.7768598 0.3934307
vt 0.6875000 0.6875000
v 0.5338255 0.7819304 0.3852543
vt 0.6875000 0.5625000
v 0.5263734 0.7812784 0.3320274
vt 0.5625000 0.5625000
f 545/545 546/546 547/547 548/548
v 0.4624245 0.8446962 0.3402038
vt 0.8125000 0.6875000
v 0.5203814 0.8497668 0.3320274
vt 0.9375000 0.6875000
v 0.5278335 0.8504187 0.3852543
vt 0.9375000 0.5625000
v 0.4698766 0.8453482 0.3934307
vt 0.8125000 0.5625000
f 549/549 550/550 551/551 552/552
v 0.5127903 0.8639084 0.3394778
vt 0.0625000 0.9375000
v 0.4754900 0.8488382 0.3451317
vt 0.1875000 0.9375000
v 0.4843869 0.8268175 0.3451317
vt 0.1875000 0.8125000
v 0.5216872 0.8418878 0.3394778
vt 0.0625000 0.8125000
f 553/553 554/554 555/555 556/556
v 0.4808128 0.8509887 0.3859803
vt 0.5625000 0.6875000
v 0.5181131 0.8660590 0.3803264
vt 0.6875000 0.6875000
v 0.5270100 0.8440384 0.3803264
vt 0.6875000 0.5625000
v 0.4897097 0.8289681 0.3859803
vt 0.5625000 0.5625000
f 557/557 558/558 559/559 560/560
v 0.4754900 0.8488382 0.3451317
vt 0.3125000 0.9375000
v 0.4808128 0.8509887 0.3859803
vt 0.4375000 0.9375000
v 0.4897097 0.8289681 0.3859803
vt 0.4375000 0.8125000
v 0.4843869 0.8268175 0.3451317
vt 0.3125000 0.8125000
f 561/561 562/562 563/563 564/564
v 0.5181131 0.8660590 0.3803264
vt 0.0625000 0.6875000
v 0.5127903 0.8639084 0.3394778
vt 0.1875000 0.6875000
v 0.5216872 0.8418878 0.3394778
vt 0.1875000 0.5625000
v 0.5270100 0.8440384 0.3803264
vt 0.0625000 0.5625000
f 565/565 566/566 567/567 568/568
v 0.4843869 0.8268175 0.3451317
vt 0.5625000 0.6875000
v 0.4897097 0.8289681 0.3859803
vt 0.6875000 0.6875000
v 0.5270100 0.8440384 0.3803264
vt 0.6875000 0.5625000
v 0.5216872 0.8418878 0.3394778
vt 0.5625000 0.5625000
f 569/569 570/570 571/571 572/572
v 0.4754900 0.8488382 0.3451317
vt 0.5625000 0.6875000
v 0.5127903 0.8639084 0.3394778
vt 0.6875000 0.6875000
v 0.5181131 0.8660590 0.3803264
vt 0.6875000 0.5625000
v 0.4808128 0.8509887 0.3859803
vt 0.5625000 0.5625000
f 573/573 574/574 575/575 576/576
v 0.4734440 0.5472263 0.3146041
vt 0.0625000 0.9375000
v 0.4453526 0.5386379 0.3146041
vt 0.1875000 0.9375000
v 0.4610675 0.4872365 0.3146041
vt 0.1875000 0.8125000
v 0.4891590 0.4958250 0.3146041
vt 0.0625000 0.8125000
f 577/577 578/578 579/579 580/580
v 0.4453526 0.5386379 0.3227291
vt 0.0625000 0.9375000
v 0.4734440 0.5472263 0.3227291
vt 0.1875000 0.9375000
v 0.4891590 0.4958250 0.3227291
vt 0.1875000 0.8125000
v 0.4610675 0.4872365 0.3227291
vt 0.0625000 0.8125000
f 581/581 582/582 583/583 584/584
v 0.4453526 0.5386379 0.3146041
vt 0.0625000 0.9375000
v 0.4453526 0.5386379 0.3227291
vt 0.1875000 0.9375000
v 0.4610675 0.4872365 0.3227291
vt 0.1875000 0.8125000
v 0.4610675 0.4872365 0.3146041
vt 0.0625000 0.8125000
f 585/585 586/586 587/587 588/588
v 0.4734440 0.5472263 0.3227291
vt 0.0625000 0.9375000
v 0.4734440 0.5472263 0.3146041
vt 0.1875000 0.9375000
v 0.4891590 0.4958250 0.3146041
vt 0.1875000 0.8125000
v 0.4891590 0.4958250 0.3227291
vt 0.0625000 0.8125000
f 589/589 590/590 591/591 592/592
v 0.4610675 0.4872365 0.3146041
vt 0.0625000 0.9375000
v 0.4610675 0.4872365 0.3227291
vt 0.1875000 0.9375000
v 0.4891590 0.4958250 0.3227291
vt 0.1875000 0.8125000
v 0.4891590 0.4958250 0.3146041
vt 0.0625000 0.8125000
f 593/593 594/594 595/595 596/596
v 0.4453526 0.5386379 0.3146041
vt 0.0625000 0.9375000
v 0.4734440 0.5472263 0.3146041
vt 0.1875000 0.9375000
v 0.4734440 0.5472263 0.3227291
vt 0.1875000 0.8125000
v 0.4453526 0.5386379 0.3227291
vt 0.0625000 0.8125000
f 597/597 598/598 599/599 600/600
v 0.5476298 0.5891618 0.3202291
vt 0.8125000 0.6875000
v 0.4665012 0.6219399 0.3202291
vt 0.9375000 0.6875000
v 0.4573702 0.5993398 0.3202291
vt 0.9375000 0.5625000
v 0.5384988 0.5665617 0.3202291
vt 0.8125000 0.5625000
f 601/601 602/602 603/603 604/604
v 0.4665012 0.6219399 0.3352291
vt 0.5625000 0.6875000
v 0.5476298 0.5891618 0.3352291
vt 0.6875000 0.6875000
v 0.5384988 0.5665617 0.3352291
vt 0.6875000 0.5625000
v 0.4573702 0.5993398 0.3352291
vt 0.5625000 0.5625000
f 605/605 606/606 607/607 608/608
v 0.4665012 0.6219399 0.3202291
vt 0.5625000 0.6875000
v 0.4665012 0.6219399 0.3352291
vt 0.6875000 0.6875000
v 0.4573702 0.5993398 0.3352291
vt 0.6875000 0.5625000
v 0.4573702 0.5993398 0.3202291
vt 0.5625000 0.5625000
f 609/609 610/610 611/611 612/612
v 0.5476298 0.5891618 0.3352291
vt 0.5625000 0.6875000
v 0.5476298 0.5891618 0.3202291
vt 0.6875000 0.6875000
v 0.5384988 0.5665617 0.3202291
vt 0.6875000 0.5625000
v 0.5384988 0.5665617 0.3352291
vt 0.5625000 0.5625000
f 613/613 614/614 615/615 616/616
v 0.4573702 0.5993398 0.3202291
vt 0.0625000 0.9375000
v 0.4573702 0.5993398 0.3352291
vt 0.1875000 0.9375000
v 0.5384988 0.5665617 0.3352291
vt 0.1875000 0.8125000
v 0.5384988 0.5665617 0.3202291
vt 0.0625000 0.8125000
f 617/617 618/618 619/619 620/620
v 0.4665012 0.6219399 0.3202291
vt 0.5625000 0.6875000
v 0.5476298 0.5891618 0.3202291
vt 0.6875000 0.6875000
v 0.5476298 0.5891618 0.3352291
vt 0.6875000 0.5625000
v 0.4665012 0.6219399 0.3352291
vt 0.5625000 0.5625000
f 621/621 622/622 623/623 624/624
v 0.4796049 0.7381477 0.3252291
vt 0.3125000 0.9375000
v 0.4591336 0.7356341 0.3252291
vt 0.4375000 0.9375000
v 0.4647701 0.6897289 0.3252291
vt 0.4375000 0.8125000
v 0.4852414 0.6922424 0.3252291
vt 0.3125000 0.8125000
f 625/625 626/626 627/627 628/628
v 0.4591336 0.7356341 0.3364791
vt 0.3125000 0.9375000
v 0.4796049 0.7381477 0.3364791
vt 0.4375000 0.9375000
v 0.4852414 0.6922424 0.3364791
vt 0.4375000 0.8125000
v 0.4647701 0.6897289 0.3364791
vt 0.3125000 0.8125000
f 629/629 630/630 631/631 632/632
v 0.4591336 0.7356341 0.3252291
vt 0.3125000 0.9375000
v 0.4591336 0.7356341 0.3364791
vt 0.4375000 0.9375000
v 0.4647701 0.6897289 0.3364791
vt 0.4375000 0.8125000
v 0.4647701 0.6897289 0.3252291
vt 0.3125000 0.8125000
f 633/633 634/634 635/635 636/636
v 0.4796049 0.7381477 0.3364791
vt 0.3125000 0.9375000
v 0.4796049 0.7381477 0.3252291
vt 0.4375000 0.9375000
v 0.4852414 0.6922424 0.3252291
vt 0.4375000 0.8125000
v 0.4852414 0.6922424 0.3364791
vt 0.3125000 0.8125000
f 637/637 638/638 639/639 640/640
v 0.4647701 0.6897289 0.3252291
vt 0.3125000 0.9375000
v 0.4647701 0.6897289 0.3364791
vt 0.4375000 0.9375000
v 0.4852414 0.6922424 0.3364791
vt 0.4375000 0.8125000
v 0.4852414 0.6922424 0.3252291
vt 0.3125000 0.8125000
f 641/641 642/642 643/643 644/644
v 0.4591336 0.7356341 0.3252291
vt 0.3125000 0.9375000
v 0.4796049 0.7381477 0.3252291
vt 0.4375000 0.9375000
v 0.4796049 0.7381477 0.3364791
vt 0.4375000 0.8125000
v 0.4591336 0.7356341 0.3364791
vt 0.3125000 0.8125000
f 645/645 646/646 647/647 648/648
