# Generated from blockbench/amulets/Luau_Lei/Luau_Lei.bbmodel; do not hand-edit.
mtllib luau_lei.mtl
usemtl amulet
v 0.7336951 0.5351116 0.4528520
vt 0.0312500 0.2187500
v 0.7041433 0.5491016 0.4649049
vt 0.2187500 0.2187500
v 0.7041433 0.4566780 0.5721823
vt 0.2187500 0.0312500
v 0.7336951 0.4426880 0.5601294
vt 0.0312500 0.0312500
f 1/1 2/2 3/3 4/4
v 0.7200409 0.5683762 0.4815108
vt 0.0312500 0.2187500
v 0.7495927 0.5543862 0.4694579
vt 0.2187500 0.2187500
v 0.7495927 0.4619626 0.5767352
vt 0.2187500 0.0312500
v 0.7200409 0.4759526 0.5887882
vt 0.0312500 0.0312500
f 5/5 6/6 7/7 8/8
v 0.7041433 0.5491016 0.4649049
vt 0.0312500 0.2187500
v 0.7200409 0.5683762 0.4815108
vt 0.2187500 0.2187500
v 0.7200409 0.4759526 0.5887882
vt 0.2187500 0.0312500
v 0.7041433 0.4566780 0.5721823
vt 0.0312500 0.0312500
f 9/9 10/10 11/11 12/12
v 0.7495927 0.5543862 0.4694579
vt 0.5312500 0.2187500
v 0.7336951 0.5351116 0.4528520
vt 0.7187500 0.2187500
v 0.7336951 0.4426880 0.5601294
vt 0.7187500 0.0312500
v 0.7495927 0.4619626 0.5767352
vt 0.5312500 0.0312500
f 13/13 14/14 15/15 16/16
v 0.7041433 0.4566780 0.5721823
vt 0.2812500 0.2187500
v 0.7200409 0.4759526 0.5887882
vt 0.4687500 0.2187500
v 0.7495927 0.4619626 0.5767352
vt 0.4687500 0.0312500
v 0.7336951 0.4426880 0.5601294
vt 0.2812500 0.0312500
f 17/17 18/18 19/19 20/20
v 0.7041433 0.5491016 0.4649049
vt 0.7812500 0.2187500
v 0.7336951 0.5351116 0.4528520
vt 0.9687500 0.2187500
v 0.7495927 0.5543862 0.4694579
vt 0.9687500 0.0312500
v 0.7200409 0.5683762 0.4815108
vt 0.7812500 0.0312500
f 21/21 22/22 23/23 24/24
v 0.7987091 0.5043335 0.4263355
vt 0.0312500 0.2187500
v 0.7691573 0.5183235 0.4383885
vt 0.2187500 0.2187500
v 0.7691573 0.4258999 0.5456659
vt 0.2187500 0.0312500
v 0.7987091 0.4119099 0.5336129
vt 0.0312500 0.0312500
f 25/25 26/26 27/27 28/28
v 0.7850549 0.5375982 0.4549943
vt 0.0312500 0.2187500
v 0.8146067 0.5236082 0.4429414
vt 0.2187500 0.2187500
v 0.8146067 0.4311846 0.5502188
vt 0.2187500 0.0312500
v 0.7850549 0.4451746 0.5622717
vt 0.0312500 0.0312500
f 29/29 30/30 31/31 32/32
v 0.7691573 0.5183235 0.4383885
vt 0.0312500 0.2187500
v 0.7850549 0.5375982 0.4549943
vt 0.2187500 0.2187500
v 0.7850549 0.4451746 0.5622717
vt 0.2187500 0.0312500
v 0.7691573 0.4258999 0.5456659
vt 0.0312500 0.0312500
f 33/33 34/34 35/35 36/36
v 0.8146067 0.5236082 0.4429414
vt 0.5312500 0.2187500
v 0.7987091 0.5043335 0.4263355
vt 0.7187500 0.2187500
v 0.7987091 0.4119099 0.5336129
vt 0.7187500 0.0312500
v 0.8146067 0.4311846 0.5502188
vt 0.5312500 0.0312500
f 37/37 38/38 39/39 40/40
v 0.7691573 0.4258999 0.5456659
vt 0.2812500 0.2187500
v 0.7850549 0.4451746 0.5622717
vt 0.4687500 0.2187500
v 0.8146067 0.4311846 0.5502188
vt 0.4687500 0.0312500
v 0.7987091 0.4119099 0.5336129
vt 0.2812500 0.0312500
f 41/41 42/42 43/43 44/44
v 0.7691573 0.5183235 0.4383885
vt 0.7812500 0.2187500
v 0.7987091 0.5043335 0.4263355
vt 0.9687500 0.2187500
v 0.8146067 0.5236082 0.4429414
vt 0.9687500 0.0312500
v 0.7850549 0.5375982 0.4549943
vt 0.7812500 0.0312500
f 45/45 46/46 47/47 48/48
v 0.7691573 0.4475617 0.5205227
vt 0.0312500 0.2187500
v 0.7336951 0.4643497 0.5349862
vt 0.2187500 0.2187500
v 0.7336951 0.4426880 0.5601294
vt 0.2187500 0.0312500
v 0.7691573 0.4258999 0.5456659
vt 0.0312500 0.0312500
f 49/49 50/50 51/51 52/52
v 0.7495927 0.4836244 0.5515921
vt 0.0312500 0.2187500
v 0.7850549 0.4668364 0.5371286
vt 0.2187500 0.2187500
v 0.7850549 0.4451746 0.5622717
vt 0.2187500 0.0312500
v 0.7495927 0.4619626 0.5767352
vt 0.0312500 0.0312500
f 53/53 54/54 55/55 56/56
v 0.7336951 0.4643497 0.5349862
vt 0.0312500 0.2187500
v 0.7495927 0.4836244 0.5515921
vt 0.2187500 0.2187500
v 0.7495927 0.4619626 0.5767352
vt 0.2187500 0.0312500
v 0.7336951 0.4426880 0.5601294
vt 0.0312500 0.0312500
f 57/57 58/58 59/59 60/60
v 0.7850549 0.4668364 0.5371286
vt 0.5312500 0.2187500
v 0.7691573 0.4475617 0.5205227
vt 0.7187500 0.2187500
v 0.7691573 0.4258999 0.5456659
vt 0.7187500 0.0312500
v 0.7850549 0.4451746 0.5622717
vt 0.5312500 0.0312500
f 61/61 62/62 63/63 64/64
v 0.7336951 0.4426880 0.5601294
vt 0.2812500 0.2187500
v 0.7495927 0.4619626 0.5767352
vt 0.4687500 0.2187500
v 0.7850549 0.4451746 0.5622717
vt 0.4687500 0.0312500
v 0.7691573 0.4258999 0.5456659
vt 0.2812500 0.0312500
f 65/65 66/66 67/67 68/68
v 0.7336951 0.4643497 0.5349862
vt 0.7812500 0.2187500
v 0.7691573 0.4475617 0.5205227
vt 0.9687500 0.2187500
v 0.7850549 0.4668364 0.5371286
vt 0.9687500 0.0312500
v 0.7495927 0.4836244 0.5515921
vt 0.7812500 0.0312500
f 69/69 70/70 71/71 72/72
v 0.7691573 0.5183235 0.4383885
vt 0.0312500 0.2187500
v 0.7336951 0.5351116 0.4528520
vt 0.2187500 0.2187500
v 0.7336951 0.5134498 0.4779951
vt 0.2187500 0.0312500
v 0.7691573 0.4966617 0.4635316
vt 0.0312500 0.0312500
f 73/73 74/74 75/75 76/76
v 0.7495927 0.5543862 0.4694579
vt 0.0312500 0.2187500
v 0.7850549 0.5375982 0.4549943
vt 0.2187500 0.2187500
v 0.7850549 0.5159364 0.4801375
vt 0.2187500 0.0312500
v 0.7495927 0.5327244 0.4946010
vt 0.0312500 0.0312500
f 77/77 78/78 79/79 80/80
v 0.7336951 0.5351116 0.4528520
vt 0.0312500 0.2187500
v 0.7495927 0.5543862 0.4694579
vt 0.2187500 0.2187500
v 0.7495927 0.5327244 0.4946010
vt 0.2187500 0.0312500
v 0.7336951 0.5134498 0.4779951
vt 0.0312500 0.0312500
f 81/81 82/82 83/83 84/84
v 0.7850549 0.5375982 0.4549943
vt 0.5312500 0.2187500
v 0.7691573 0.5183235 0.4383885
vt 0.7187500 0.2187500
v 0.7691573 0.4966617 0.4635316
vt 0.7187500 0.0312500
v 0.7850549 0.5159364 0.4801375
vt 0.5312500 0.0312500
f 85/85 86/86 87/87 88/88
v 0.7336951 0.5134498 0.4779951
vt 0.2812500 0.2187500
v 0.7495927 0.5327244 0.4946010
vt 0.4687500 0.2187500
v 0.7850549 0.5159364 0.4801375
vt 0.4687500 0.0312500
v 0.7691573 0.4966617 0.4635316
vt 0.2812500 0.0312500
f 89/89 90/90 91/91 92/92
v 0.7336951 0.5351116 0.4528520
vt 0.7812500 0.2187500
v 0.7691573 0.5183235 0.4383885
vt 0.9687500 0.2187500
v 0.7850549 0.5375982 0.4549943
vt 0.9687500 0.0312500
v 0.7495927 0.5543862 0.4694579
vt 0.7812500 0.0312500
f 93/93 94/94 95/95 96/96
v 0.7568857 0.4504133 0.5172130
vt 0.0312500 0.2187500
v 0.7294543 0.4435980 0.4968323
vt 0.2187500 0.2187500
v 0.6767845 0.3578059 0.5964123
vt 0.2187500 0.0312500
v 0.7042160 0.3646213 0.6167930
vt 0.0312500 0.0312500
f 97/97 98/98 99/99 100/100
v 0.7146974 0.4667323 0.5089582
vt 0.0312500 0.2187500
v 0.7421288 0.4735477 0.5293389
vt 0.2187500 0.2187500
v 0.6894591 0.3877556 0.6289189
vt 0.2187500 0.0312500
v 0.6620276 0.3809403 0.6085382
vt 0.0312500 0.0312500
f 101/101 102/102 103/103 104/104
v 0.7294543 0.4435980 0.4968323
vt 0.0312500 0.2187500
v 0.7146974 0.4667323 0.5089582
vt 0.2187500 0.2187500
v 0.6620276 0.3809403 0.6085382
vt 0.2187500 0.0312500
v 0.6767845 0.3578059 0.5964123
vt 0.0312500 0.0312500
f 105/105 106/106 107/107 108/108
v 0.7421288 0.4735477 0.5293389
vt 0.5312500 0.2187500
v 0.7568857 0.4504133 0.5172130
vt 0.7187500 0.2187500
v 0.7042160 0.3646213 0.6167930
vt 0.7187500 0.0312500
v 0.6894591 0.3877556 0.6289189
vt 0.5312500 0.0312500
f 109/109 110/110 111/111 112/112
v 0.6767845 0.3578059 0.5964123
vt 0.2812500 0.2187500
v 0.6620276 0.3809403 0.6085382
vt 0.4687500 0.2187500
v 0.6894591 0.3877556 0.6289189
vt 0.4687500 0.0312500
v 0.7042160 0.3646213 0.6167930
vt 0.2812500 0.0312500
f 113/113 114/114 115/115 116/116
v 0.7294543 0.4435980 0.4968323
vt 0.7812500 0.2187500
v 0.7568857 0.4504133 0.5172130
vt 0.9687500 0.2187500
v 0.7421288 0.4735477 0.5293389
vt 0.9687500 0.0312500
v 0.7146974 0.4667323 0.5089582
vt 0.7812500 0.0312500
f 117/117 118/118 119/119 120/120
v 0.8172349 0.4654071 0.5620505
vt 0.0312500 0.2187500
v 0.7898034 0.4585918 0.5416698
vt 0.2187500 0.2187500
v 0.7371337 0.3727997 0.6412498
vt 0.2187500 0.0312500
v 0.7645651 0.3796151 0.6616305
vt 0.0312500 0.0312500
f 121/121 122/122 123/123 124/124
v 0.7750465 0.4817261 0.5537957
vt 0.0312500 0.2187500
v 0.8024780 0.4885414 0.5741764
vt 0.2187500 0.2187500
v 0.7498082 0.4027494 0.6737564
vt 0.2187500 0.0312500
v 0.7223768 0.3959340 0.6533757
vt 0.0312500 0.0312500
f 125/125 126/126 127/127 128/128
v 0.7898034 0.4585918 0.5416698
vt 0.0312500 0.2187500
v 0.7750465 0.4817261 0.5537957
vt 0.2187500 0.2187500
v 0.7223768 0.3959340 0.6533757
vt 0.2187500 0.0312500
v 0.7371337 0.3727997 0.6412498
vt 0.0312500 0.0312500
f 129/129 130/130 131/131 132/132
v 0.8024780 0.4885414 0.5741764
vt 0.5312500 0.2187500
v 0.8172349 0.4654071 0.5620505
vt 0.7187500 0.2187500
v 0.7645651 0.3796151 0.6616305
vt 0.7187500 0.0312500
v 0.7498082 0.4027494 0.6737564
vt 0.5312500 0.0312500
f 133/133 134/134 135/135 136/136
v 0.7371337 0.3727997 0.6412498
vt 0.2812500 0.2187500
v 0.7223768 0.3959340 0.6533757
vt 0.4687500 0.2187500
v 0.7498082 0.4027494 0.6737564
vt 0.4687500 0.0312500
v 0.7645651 0.3796151 0.6616305
vt 0.2812500 0.0312500
f 137/137 138/138 139/139 140/140
v 0.7898034 0.4585918 0.5416698
vt 0.7812500 0.2187500
v 0.8172349 0.4654071 0.5620505
vt 0.9687500 0.2187500
v 0.8024780 0.4885414 0.5741764
vt 0.9687500 0.0312500
v 0.7750465 0.4817261 0.5537957
vt 0.7812500 0.0312500
f 141/141 142/142 143/143 144/144
v 0.7494782 0.3929072 0.6179108
vt 0.0312500 0.2187500
v 0.7165604 0.3847288 0.5934539
vt 0.2187500 0.2187500
v 0.7042160 0.3646213 0.6167930
vt 0.2187500 0.0312500
v 0.7371337 0.3727997 0.6412498
vt 0.0312500 0.0312500
f 145/145 146/146 147/147 148/148
v 0.7018035 0.4078631 0.6055798
vt 0.0312500 0.2187500
v 0.7347213 0.4160416 0.6300367
vt 0.2187500 0.2187500
v 0.7223768 0.3959340 0.6533757
vt 0.2187500 0.0312500
v 0.6894591 0.3877556 0.6289189
vt 0.0312500 0.0312500
f 149/149 150/150 151/151 152/152
v 0.7165604 0.3847288 0.5934539
vt 0.0312500 0.2187500
v 0.7018035 0.4078631 0.6055798
vt 0.2187500 0.2187500
v 0.6894591 0.3877556 0.6289189
vt 0.2187500 0.0312500
v 0.7042160 0.3646213 0.6167930
vt 0.0312500 0.0312500
f 153/153 154/154 155/155 156/156
v 0.7347213 0.4160416 0.6300367
vt 0.5312500 0.2187500
v 0.7494782 0.3929072 0.6179108
vt 0.7187500 0.2187500
v 0.7371337 0.3727997 0.6412498
vt 0.7187500 0.0312500
v 0.7223768 0.3959340 0.6533757
vt 0.5312500 0.0312500
f 157/157 158/158 159/159 160/160
v 0.7042160 0.3646213 0.6167930
vt 0.2812500 0.2187500
v 0.6894591 0.3877556 0.6289189
vt 0.4687500 0.2187500
v 0.7223768 0.3959340 0.6533757
vt 0.4687500 0.0312500
v 0.7371337 0.3727997 0.6412498
vt 0.2812500 0.0312500
f 161/161 162/162 163/163 164/164
v 0.7165604 0.3847288 0.5934539
vt 0.7812500 0.2187500
v 0.7494782 0.3929072 0.6179108
vt 0.9687500 0.2187500
v 0.7347213 0.4160416 0.6300367
vt 0.9687500 0.0312500
v 0.7018035 0.4078631 0.6055798
vt 0.7812500 0.0312500
f 165/165 166/166 167/167 168/168
v 0.7898034 0.4585918 0.5416698
vt 0.0312500 0.2187500
v 0.7568857 0.4504133 0.5172130
vt 0.2187500 0.2187500
v 0.7445412 0.4303058 0.5405520
vt 0.2187500 0.0312500
v 0.7774590 0.4384843 0.5650089
vt 0.0312500 0.0312500
f 169/169 170/170 171/171 172/172
v 0.7421288 0.4735477 0.5293389
vt 0.0312500 0.2187500
v 0.7750465 0.4817261 0.5537957
vt 0.2187500 0.2187500
v 0.7627021 0.4616186 0.5771348
vt 0.2187500 0.0312500
v 0.7297843 0.4534401 0.5526779
vt 0.0312500 0.0312500
f 173/173 174/174 175/175 176/176
v 0.7568857 0.4504133 0.5172130
vt 0.0312500 0.2187500
v 0.7421288 0.4735477 0.5293389
vt 0.2187500 0.2187500
v 0.7297843 0.4534401 0.5526779
vt 0.2187500 0.0312500
v 0.7445412 0.4303058 0.5405520
vt 0.0312500 0.0312500
f 177/177 178/178 179/179 180/180
v 0.7750465 0.4817261 0.5537957
vt 0.5312500 0.2187500
v 0.7898034 0.4585918 0.5416698
vt 0.7187500 0.2187500
v 0.7774590 0.4384843 0.5650089
vt 0.7187500 0.0312500
v 0.7627021 0.4616186 0.5771348
vt 0.5312500 0.0312500
f 181/181 182/182 183/183 184/184
v 0.7445412 0.4303058 0.5405520
vt 0.2812500 0.2187500
v 0.7297843 0.4534401 0.5526779
vt 0.4687500 0.2187500
v 0.7627021 0.4616186 0.5771348
vt 0.4687500 0.0312500
v 0.7774590 0.4384843 0.5650089
vt 0.2812500 0.0312500
f 185/185 186/186 187/187 188/188
v 0.7568857 0.4504133 0.5172130
vt 0.7812500 0.2187500
v 0.7898034 0.4585918 0.5416698
vt 0.9687500 0.2187500
v 0.7750465 0.4817261 0.5537957
vt 0.9687500 0.0312500
v 0.7421288 0.4735477 0.5293389
vt 0.7812500 0.0312500
f 189/189 190/190 191/191 192/192
v 0.7141760 0.4100237 0.5980434
vt 0.0312500 0.4687500
v 0.6929364 0.4374251 0.5945295
vt 0.2187500 0.4687500
v 0.5944823 0.3709982 0.6716322
vt 0.2187500 0.2812500
v 0.6157219 0.3435968 0.6751460
vt 0.0312500 0.2812500
f 193/193 194/194 195/195 196/196
v 0.7043624 0.4494850 0.6195096
vt 0.0312500 0.4687500
v 0.7256019 0.4220836 0.6230235
vt 0.2187500 0.4687500
v 0.6271478 0.3556567 0.7001262
vt 0.2187500 0.2812500
v 0.6059083 0.3830581 0.6966123
vt 0.0312500 0.2812500
f 197/197 198/198 199/199 200/200
v 0.6929364 0.4374251 0.5945295
vt 0.0312500 0.4687500
v 0.7043624 0.4494850 0.6195096
vt 0.2187500 0.4687500
v 0.6059083 0.3830581 0.6966123
vt 0.2187500 0.2812500
v 0.5944823 0.3709982 0.6716322
vt 0.0312500 0.2812500
f 201/201 202/202 203/203 204/204
v 0.7256019 0.4220836 0.6230235
vt 0.5312500 0.4687500
v 0.7141760 0.4100237 0.5980434
vt 0.7187500 0.4687500
v 0.6157219 0.3435968 0.6751460
vt 0.7187500 0.2812500
v 0.6271478 0.3556567 0.7001262
vt 0.5312500 0.2812500
f 205/205 206/206 207/207 208/208
v 0.5944823 0.3709982 0.6716322
vt 0.2812500 0.4687500
v 0.6059083 0.3830581 0.6966123
vt 0.4687500 0.4687500
v 0.6271478 0.3556567 0.7001262
vt 0.4687500 0.2812500
v 0.6157219 0.3435968 0.6751460
vt 0.2812500 0.2812500
f 209/209 210/210 211/211 212/212
v 0.6929364 0.4374251 0.5945295
vt 0.7812500 0.4687500
v 0.7141760 0.4100237 0.5980434
vt 0.9687500 0.4687500
v 0.7256019 0.4220836 0.6230235
vt 0.9687500 0.2812500
v 0.7043624 0.4494850 0.6195096
vt 0.7812500 0.2812500
f 213/213 214/214 215/215 216/216
v 0.7609030 0.3497405 0.6057739
vt 0.0312500 0.4687500
v 0.7396634 0.3771419 0.6022601
vt 0.2187500 0.4687500
v 0.6412093 0.3107151 0.6793627
vt 0.2187500 0.2812500
v 0.6624489 0.2833136 0.6828766
vt 0.0312500 0.2812500
f 217/217 218/218 219/219 220/220
v 0.7510894 0.3892018 0.6272402
vt 0.0312500 0.4687500
v 0.7723289 0.3618004 0.6307541
vt 0.2187500 0.4687500
v 0.6738748 0.2953735 0.7078567
vt 0.2187500 0.2812500
v 0.6526353 0.3227750 0.7043428
vt 0.0312500 0.2812500
f 221/221 222/222 223/223 224/224
v 0.7396634 0.3771419 0.6022601
vt 0.0312500 0.4687500
v 0.7510894 0.3892018 0.6272402
vt 0.2187500 0.4687500
v 0.6526353 0.3227750 0.7043428
vt 0.2187500 0.2812500
v 0.6412093 0.3107151 0.6793627
vt 0.0312500 0.2812500
f 225/225 226/226 227/227 228/228
v 0.7723289 0.3618004 0.6307541
vt 0.5312500 0.4687500
v 0.7609030 0.3497405 0.6057739
vt 0.7187500 0.4687500
v 0.6624489 0.2833136 0.6828766
vt 0.7187500 0.2812500
v 0.6738748 0.2953735 0.7078567
vt 0.5312500 0.2812500
f 229/229 230/230 231/231 232/232
v 0.6412093 0.3107151 0.6793627
vt 0.2812500 0.4687500
v 0.6526353 0.3227750 0.7043428
vt 0.4687500 0.4687500
v 0.6738748 0.2953735 0.7078567
vt 0.4687500 0.2812500
v 0.6624489 0.2833136 0.6828766
vt 0.2812500 0.2812500
f 233/233 234/234 235/235 236/236
v 0.7396634 0.3771419 0.6022601
vt 0.7812500 0.4687500
v 0.7609030 0.3497405 0.6057739
vt 0.9687500 0.4687500
v 0.7723289 0.3618004 0.6307541
vt 0.9687500 0.2812500
v 0.7510894 0.3892018 0.6272402
vt 0.7812500 0.2812500
f 237/237 238/238 239/239 240/240
v 0.6642845 0.3262839 0.6612918
vt 0.0312500 0.4687500
v 0.6387970 0.3591656 0.6570751
vt 0.2187500 0.4687500
v 0.6157219 0.3435968 0.6751460
vt 0.2187500 0.2812500
v 0.6412093 0.3107151 0.6793627
vt 0.0312500 0.2812500
f 241/241 242/242 243/243 244/244
v 0.6502230 0.3712255 0.6820552
vt 0.0312500 0.4687500
v 0.6757104 0.3383438 0.6862719
vt 0.2187500 0.4687500
v 0.6526353 0.3227750 0.7043428
vt 0.2187500 0.2812500
v 0.6271478 0.3556567 0.7001262
vt 0.0312500 0.2812500
f 245/245 246/246 247/247 248/248
v 0.6387970 0.3591656 0.6570751
vt 0.0312500 0.4687500
v 0.6502230 0.3712255 0.6820552
vt 0.2187500 0.4687500
v 0.6271478 0.3556567 0.7001262
vt 0.2187500 0.2812500
v 0.6157219 0.3435968 0.6751460
vt 0.0312500 0.2812500
f 249/249 250/250 251/251 252/252
v 0.6757104 0.3383438 0.6862719
vt 0.5312500 0.4687500
v 0.6642845 0.3262839 0.6612918
vt 0.7187500 0.4687500
v 0.6412093 0.3107151 0.6793627
vt 0.7187500 0.2812500
v 0.6526353 0.3227750 0.7043428
vt 0.5312500 0.2812500
f 253/253 254/254 255/255 256/256
v 0.6157219 0.3435968 0.6751460
vt 0.2812500 0.4687500
v 0.6271478 0.3556567 0.7001262
vt 0.4687500 0.4687500
v 0.6526353 0.3227750 0.7043428
vt 0.4687500 0.2812500
v 0.6412093 0.3107151 0.6793627
vt 0.2812500 0.2812500
f 257/257 258/258 259/259 260/260
v 0.6387970 0.3591656 0.6570751
vt 0.7812500 0.4687500
v 0.6642845 0.3262839 0.6612918
vt 0.9687500 0.4687500
v 0.6757104 0.3383438 0.6862719
vt 0.9687500 0.2812500
v 0.6502230 0.3712255 0.6820552
vt 0.7812500 0.2812500
f 261/261 262/262 263/263 264/264
v 0.7396634 0.3771419 0.6022601
vt 0.0312500 0.4687500
v 0.7141760 0.4100237 0.5980434
vt 0.2187500 0.4687500
v 0.6911008 0.3944549 0.6161143
vt 0.2187500 0.2812500
v 0.7165883 0.3615731 0.6203310
vt 0.0312500 0.2812500
f 265/265 266/266 267/267 268/268
v 0.7256019 0.4220836 0.6230235
vt 0.0312500 0.4687500
v 0.7510894 0.3892018 0.6272402
vt 0.2187500 0.4687500
v 0.7280142 0.3736330 0.6453111
vt 0.2187500 0.2812500
v 0.7025267 0.4065148 0.6410945
vt 0.0312500 0.2812500
f 269/269 270/270 271/271 272/272
v 0.7141760 0.4100237 0.5980434
vt 0.0312500 0.4687500
v 0.7256019 0.4220836 0.6230235
vt 0.2187500 0.4687500
v 0.7025267 0.4065148 0.6410945
vt 0.2187500 0.2812500
v 0.6911008 0.3944549 0.6161143
vt 0.0312500 0.2812500
f 273/273 274/274 275/275 276/276
v 0.7510894 0.3892018 0.6272402
vt 0.5312500 0.4687500
v 0.7396634 0.3771419 0.6022601
vt 0.7187500 0.4687500
v 0.7165883 0.3615731 0.6203310
vt 0.7187500 0.2812500
v 0.7280142 0.3736330 0.6453111
vt 0.5312500 0.2812500
f 277/277 278/278 279/279 280/280
v 0.6911008 0.3944549 0.6161143
vt 0.2812500 0.4687500
v 0.7025267 0.4065148 0.6410945
vt 0.4687500 0.4687500
v 0.7280142 0.3736330 0.6453111
vt 0.4687500 0.2812500
v 0.7165883 0.3615731 0.6203310
vt 0.2812500 0.2812500
f 281/281 282/282 283/283 284/284
v 0.7141760 0.4100237 0.5980434
vt 0.7812500 0.4687500
v 0.7396634 0.3771419 0.6022601
vt 0.9687500 0.4687500
v 0.7510894 0.3892018 0.6272402
vt 0.9687500 0.2812500
v 0.7256019 0.4220836 0.6230235
vt 0.7812500 0.2812500
f 285/285 286/286 287/287 288/288
v 0.6604933 0.3344918 0.6517648
vt 0.0312500 0.7187500
v 0.6488615 0.3382335 0.6191304
vt 0.2187500 0.7187500
v 0.5186916 0.3018550 0.6613555
vt 0.2187500 0.5312500
v 0.5303234 0.2981133 0.6939899
vt 0.0312500 0.5312500
f 289/289 290/290 291/291 292/292
v 0.6426042 0.3670471 0.6246643
vt 0.0312500 0.7187500
v 0.6542359 0.3633054 0.6572988
vt 0.2187500 0.7187500
v 0.5240660 0.3269269 0.6995238
vt 0.2187500 0.5312500
v 0.5124342 0.3306686 0.6668894
vt 0.0312500 0.5312500
f 293/293 294/294 295/295 296/296
v 0.6488615 0.3382335 0.6191304
vt 0.0312500 0.7187500
v 0.6426042 0.3670471 0.6246643
vt 0.2187500 0.7187500
v 0.5124342 0.3306686 0.6668894
vt 0.2187500 0.5312500
v 0.5186916 0.3018550 0.6613555
vt 0.0312500 0.5312500
f 297/297 298/298 299/299 300/300
v 0.6542359 0.3633054 0.6572988
vt 0.5312500 0.7187500
v 0.6604933 0.3344918 0.6517648
vt 0.7187500 0.7187500
v 0.5303234 0.2981133 0.6939899
vt 0.7187500 0.5312500
v 0.5240660 0.3269269 0.6995238
vt 0.5312500 0.5312500
f 301/301 302/302 303/303 304/304
v 0.5186916 0.3018550 0.6613555
vt 0.2812500 0.7187500
v 0.5124342 0.3306686 0.6668894
vt 0.4687500 0.7187500
v 0.5240660 0.3269269 0.6995238
vt 0.4687500 0.5312500
v 0.5303234 0.2981133 0.6939899
vt 0.2812500 0.5312500
f 305/305 306/306 307/307 308/308
v 0.6488615 0.3382335 0.6191304
vt 0.7812500 0.7187500
v 0.6604933 0.3344918 0.6517648
vt 0.9687500 0.7187500
v 0.6542359 0.3633054 0.6572988
vt 0.9687500 0.5312500
v 0.6426042 0.3670471 0.6246643
vt 0.7812500 0.5312500
f 309/309 310/310 311/311 312/312
v 0.6860833 0.3262601 0.7235606
vt 0.0312500 0.7187500
v 0.6744515 0.3300018 0.6909261
vt 0.2187500 0.7187500
v 0.5442816 0.2936233 0.7331512
vt 0.2187500 0.5312500
v 0.5559133 0.2898815 0.7657856
vt 0.0312500 0.5312500
f 313/313 314/314 315/315 316/316
v 0.6681941 0.3588153 0.6964601
vt 0.0312500 0.7187500
v 0.6798259 0.3550736 0.7290945
vt 0.2187500 0.7187500
v 0.5496560 0.3186951 0.7713196
vt 0.2187500 0.5312500
v 0.5380242 0.3224368 0.7386851
vt 0.0312500 0.5312500
f 317/317 318/318 319/319 320/320
v 0.6744515 0.3300018 0.6909261
vt 0.0312500 0.7187500
v 0.6681941 0.3588153 0.6964601
vt 0.2187500 0.7187500
v 0.5380242 0.3224368 0.7386851
vt 0.2187500 0.5312500
v 0.5442816 0.2936233 0.7331512
vt 0.0312500 0.5312500
f 321/321 322/322 323/323 324/324
v 0.6798259 0.3550736 0.7290945
vt 0.5312500 0.7187500
v 0.6860833 0.3262601 0.7235606
vt 0.7187500 0.7187500
v 0.5559133 0.2898815 0.7657856
vt 0.7187500 0.5312500
v 0.5496560 0.3186951 0.7713196
vt 0.5312500 0.5312500
f 325/325 326/326 327/327 328/328
v 0.5442816 0.2936233 0.7331512
vt 0.2812500 0.7187500
v 0.5380242 0.3224368 0.7386851
vt 0.4687500 0.7187500
v 0.5496560 0.3186951 0.7713196
vt 0.4687500 0.5312500
v 0.5559133 0.2898815 0.7657856
vt 0.2812500 0.5312500
f 329/329 330/330 331/331 332/332
v 0.6744515 0.3300018 0.6909261
vt 0.7812500 0.7187500
v 0.6860833 0.3262601 0.7235606
vt 0.9687500 0.7187500
v 0.6798259 0.3550736 0.7290945
vt 0.9687500 0.5312500
v 0.6681941 0.3588153 0.6964601
vt 0.7812500 0.5312500
f 333/333 334/334 335/335 336/336
v 0.5747901 0.3021495 0.7232547
vt 0.0312500 0.7187500
v 0.5608320 0.3066395 0.6840934
vt 0.2187500 0.7187500
v 0.5303234 0.2981133 0.6939899
vt 0.2187500 0.5312500
v 0.5442816 0.2936233 0.7331512
vt 0.0312500 0.5312500
f 337/337 338/338 339/339 340/340
v 0.5545746 0.3354531 0.6896273
vt 0.0312500 0.7187500
v 0.5685327 0.3309630 0.7287886
vt 0.2187500 0.7187500
v 0.5380242 0.3224368 0.7386851
vt 0.2187500 0.5312500
v 0.5240660 0.3269269 0.6995238
vt 0.0312500 0.5312500
f 341/341 342/342 343/343 344/344
v 0.5608320 0.3066395 0.6840934
vt 0.0312500 0.7187500
v 0.5545746 0.3354531 0.6896273
vt 0.2187500 0.7187500
v 0.5240660 0.3269269 0.6995238
vt 0.2187500 0.5312500
v 0.5303234 0.2981133 0.6939899
vt 0.0312500 0.5312500
f 345/345 346/346 347/347 348/348
v 0.5685327 0.3309630 0.7287886
vt 0.5312500 0.7187500
v 0.5747901 0.3021495 0.7232547
vt 0.7187500 0.7187500
v 0.5442816 0.2936233 0.7331512
vt 0.7187500 0.5312500
v 0.5380242 0.3224368 0.7386851
vt 0.5312500 0.5312500
f 349/349 350/350 351/351 352/352
v 0.5303234 0.2981133 0.6939899
vt 0.2812500 0.7187500
v 0.5240660 0.3269269 0.6995238
vt 0.4687500 0.7187500
v 0.5380242 0.3224368 0.7386851
vt 0.4687500 0.5312500
v 0.5442816 0.2936233 0.7331512
vt 0.2812500 0.5312500
f 353/353 354/354 355/355 356/356
v 0.5608320 0.3066395 0.6840934
vt 0.7812500 0.7187500
v 0.5747901 0.3021495 0.7232547
vt 0.9687500 0.7187500
v 0.5685327 0.3309630 0.7287886
vt 0.9687500 0.5312500
v 0.5545746 0.3354531 0.6896273
vt 0.7812500 0.5312500
f 357/357 358/358 359/359 360/360
v 0.6744515 0.3300018 0.6909261
vt 0.0312500 0.7187500
v 0.6604933 0.3344918 0.6517648
vt 0.2187500 0.7187500
v 0.6299848 0.3259656 0.6616613
vt 0.2187500 0.5312500
v 0.6439429 0.3214756 0.7008226
vt 0.0312500 0.5312500
f 361/361 362/362 363/363 364/364
v 0.6542359 0.3633054 0.6572988
vt 0.0312500 0.7187500
v 0.6681941 0.3588153 0.6964601
vt 0.2187500 0.7187500
v 0.6376855 0.3502891 0.7063566
vt 0.2187500 0.5312500
v 0.6237274 0.3547792 0.6671953
vt 0.0312500 0.5312500
f 365/365 366/366 367/367 368/368
v 0.6604933 0.3344918 0.6517648
vt 0.0312500 0.7187500
v 0.6542359 0.3633054 0.6572988
vt 0.2187500 0.7187500
v 0.6237274 0.3547792 0.6671953
vt 0.2187500 0.5312500
v 0.6299848 0.3259656 0.6616613
vt 0.0312500 0.5312500
f 369/369 370/370 371/371 372/372
v 0.6681941 0.3588153 0.6964601
vt 0.5312500 0.7187500
v 0.6744515 0.3300018 0.6909261
vt 0.7187500 0.7187500
v 0.6439429 0.3214756 0.7008226
vt 0.7187500 0.5312500
v 0.6376855 0.3502891 0.7063566
vt 0.5312500 0.5312500
f 373/373 374/374 375/375 376/376
v 0.6299848 0.3259656 0.6616613
vt 0.2812500 0.7187500
v 0.6237274 0.3547792 0.6671953
vt 0.4687500 0.7187500
v 0.6376855 0.3502891 0.7063566
vt 0.4687500 0.5312500
v 0.6439429 0.3214756 0.7008226
vt 0.2812500 0.5312500
f 377/377 378/378 379/379 380/380
v 0.6604933 0.3344918 0.6517648
vt 0.7812500 0.7187500
v 0.6744515 0.3300018 0.6909261
vt 0.9687500 0.7187500
v 0.6681941 0.3588153 0.6964601
vt 0.9687500 0.5312500
v 0.6542359 0.3633054 0.6572988
vt 0.7812500 0.5312500
f 381/381 382/382 383/383 384/384
v 0.5708000 0.3306612 0.6901604
vt 0.0312500 0.7187500
v 0.5708000 0.3639400 0.6798246
vt 0.2187500 0.7187500
v 0.4292000 0.3639400 0.6798246
vt 0.2187500 0.5312500
v 0.4292000 0.3306612 0.6901604
vt 0.0312500 0.5312500
f 385/385 386/386 387/387 388/388
v 0.5708000 0.3728382 0.7084746
vt 0.0312500 0.7187500
v 0.5708000 0.3395594 0.7188104
vt 0.2187500 0.7187500
v 0.4292000 0.3395594 0.7188104
vt 0.2187500 0.5312500
v 0.4292000 0.3728382 0.7084746
vt 0.0312500 0.5312500
f 389/389 390/390 391/391 392/392
v 0.5708000 0.3639400 0.6798246
vt 0.0312500 0.7187500
v 0.5708000 0.3728382 0.7084746
vt 0.2187500 0.7187500
v 0.4292000 0.3728382 0.7084746
vt 0.2187500 0.5312500
v 0.4292000 0.3639400 0.6798246
vt 0.0312500 0.5312500
f 393/393 394/394 395/395 396/396
v 0.5708000 0.3395594 0.7188104
vt 0.5312500 0.7187500
v 0.5708000 0.3306612 0.6901604
vt 0.7187500 0.7187500
v 0.4292000 0.3306612 0.6901604
vt 0.7187500 0.5312500
v 0.4292000 0.3395594 0.7188104
vt 0.5312500 0.5312500
f 397/397 398/398 399/399 400/400
v 0.4292000 0.3639400 0.6798246
vt 0.2812500 0.7187500
v 0.4292000 0.3728382 0.7084746
vt 0.4687500 0.7187500
v 0.4292000 0.3395594 0.7188104
vt 0.4687500 0.5312500
v 0.4292000 0.3306612 0.6901604
vt 0.2812500 0.5312500
f 401/401 402/402 403/403 404/404
v 0.5708000 0.3639400 0.6798246
vt 0.7812500 0.7187500
v 0.5708000 0.3306612 0.6901604
vt 0.9687500 0.7187500
v 0.5708000 0.3395594 0.7188104
vt 0.9687500 0.5312500
v 0.5708000 0.3728382 0.7084746
vt 0.7812500 0.5312500
f 405/405 406/406 407/407 408/408
v 0.5708000 0.2574480 0.7128991
vt 0.0312500 0.7187500
v 0.5708000 0.2907267 0.7025633
vt 0.2187500 0.7187500
v 0.4292000 0.2907267 0.7025633
vt 0.2187500 0.5312500
v 0.4292000 0.2574480 0.7128991
vt 0.0312500 0.5312500
f 409/409 410/410 411/411 412/412
v 0.5708000 0.2996249 0.7312133
vt 0.0312500 0.7187500
v 0.5708000 0.2663461 0.7415491
vt 0.2187500 0.7187500
v 0.4292000 0.2663461 0.7415491
vt 0.2187500 0.5312500
v 0.4292000 0.2996249 0.7312133
vt 0.0312500 0.5312500
f 413/413 414/414 415/415 416/416
v 0.5708000 0.2907267 0.7025633
vt 0.0312500 0.7187500
v 0.5708000 0.2996249 0.7312133
vt 0.2187500 0.7187500
v 0.4292000 0.2996249 0.7312133
vt 0.2187500 0.5312500
v 0.4292000 0.2907267 0.7025633
vt 0.0312500 0.5312500
f 417/417 418/418 419/419 420/420
v 0.5708000 0.2663461 0.7415491
vt 0.5312500 0.7187500
v 0.5708000 0.2574480 0.7128991
vt 0.7187500 0.7187500
v 0.4292000 0.2574480 0.7128991
vt 0.7187500 0.5312500
v 0.4292000 0.2663461 0.7415491
vt 0.5312500 0.5312500
f 421/421 422/422 423/423 424/424
v 0.4292000 0.2907267 0.7025633
vt 0.2812500 0.7187500
v 0.4292000 0.2996249 0.7312133
vt 0.4687500 0.7187500
v 0.4292000 0.2663461 0.7415491
vt 0.4687500 0.5312500
v 0.4292000 0.2574480 0.7128991
vt 0.2812500 0.5312500
f 425/425 426/426 427/427 428/428
v 0.5708000 0.2907267 0.7025633
vt 0.7812500 0.7187500
v 0.5708000 0.2574480 0.7128991
vt 0.9687500 0.7187500
v 0.5708000 0.2663461 0.7415491
vt 0.9687500 0.5312500
v 0.5708000 0.2996249 0.7312133
vt 0.7812500 0.5312500
f 429/429 430/430 431/431 432/432
v 0.4623875 0.2907267 0.7025633
vt 0.0312500 0.7187500
v 0.4623875 0.3306612 0.6901604
vt 0.2187500 0.7187500
v 0.4292000 0.3306612 0.6901604
vt 0.2187500 0.5312500
v 0.4292000 0.2907267 0.7025633
vt 0.0312500 0.5312500
f 433/433 434/434 435/435 436/436
v 0.4623875 0.3395594 0.7188104
vt 0.0312500 0.7187500
v 0.4623875 0.2996249 0.7312133
vt 0.2187500 0.7187500
v 0.4292000 0.2996249 0.7312133
vt 0.2187500 0.5312500
v 0.4292000 0.3395594 0.7188104
vt 0.0312500 0.5312500
f 437/437 438/438 439/439 440/440
v 0.4623875 0.3306612 0.6901604
vt 0.0312500 0.7187500
v 0.4623875 0.3395594 0.7188104
vt 0.2187500 0.7187500
v 0.4292000 0.3395594 0.7188104
vt 0.2187500 0.5312500
v 0.4292000 0.3306612 0.6901604
vt 0.0312500 0.5312500
f 441/441 442/442 443/443 444/444
v 0.4623875 0.2996249 0.7312133
vt 0.5312500 0.7187500
v 0.4623875 0.2907267 0.7025633
vt 0.7187500 0.7187500
v 0.4292000 0.2907267 0.7025633
vt 0.7187500 0.5312500
v 0.4292000 0.2996249 0.7312133
vt 0.5312500 0.5312500
f 445/445 446/446 447/447 448/448
v 0.4292000 0.3306612 0.6901604
vt 0.2812500 0.7187500
v 0.4292000 0.3395594 0.7188104
vt 0.4687500 0.7187500
v 0.4292000 0.2996249 0.7312133
vt 0.4687500 0.5312500
v 0.4292000 0.2907267 0.7025633
vt 0.2812500 0.5312500
f 449/449 450/450 451/451 452/452
v 0.4623875 0.3306612 0.6901604
vt 0.7812500 0.7187500
v 0.4623875 0.2907267 0.7025633
vt 0.9687500 0.7187500
v 0.4623875 0.2996249 0.7312133
vt 0.9687500 0.5312500
v 0.4623875 0.3395594 0.7188104
vt 0.7812500 0.5312500
f 453/453 454/454 455/455 456/456
v 0.5708000 0.2907267 0.7025633
vt 0.0312500 0.7187500
v 0.5708000 0.3306612 0.6901604
vt 0.2187500 0.7187500
v 0.5376125 0.3306612 0.6901604
vt 0.2187500 0.5312500
v 0.5376125 0.2907267 0.7025633
vt 0.0312500 0.5312500
f 457/457 458/458 459/459 460/460
v 0.5708000 0.3395594 0.7188104
vt 0.0312500 0.7187500
v 0.5708000 0.2996249 0.7312133
vt 0.2187500 0.7187500
v 0.5376125 0.2996249 0.7312133
vt 0.2187500 0.5312500
v 0.5376125 0.3395594 0.7188104
vt 0.0312500 0.5312500
f 461/461 462/462 463/463 464/464
v 0.5708000 0.3306612 0.6901604
vt 0.0312500 0.7187500
v 0.5708000 0.3395594 0.7188104
vt 0.2187500 0.7187500
v 0.5376125 0.3395594 0.7188104
vt 0.2187500 0.5312500
v 0.5376125 0.3306612 0.6901604
vt 0.0312500 0.5312500
f 465/465 466/466 467/467 468/468
v 0.5708000 0.2996249 0.7312133
vt 0.5312500 0.7187500
v 0.5708000 0.2907267 0.7025633
vt 0.7187500 0.7187500
v 0.5376125 0.2907267 0.7025633
vt 0.7187500 0.5312500
v 0.5376125 0.2996249 0.7312133
vt 0.5312500 0.5312500
f 469/469 470/470 471/471 472/472
v 0.5376125 0.3306612 0.6901604
vt 0.2812500 0.7187500
v 0.5376125 0.3395594 0.7188104
vt 0.4687500 0.7187500
v 0.5376125 0.2996249 0.7312133
vt 0.4687500 0.5312500
v 0.5376125 0.2907267 0.7025633
vt 0.2812500 0.5312500
f 473/473 474/474 475/475 476/476
v 0.5708000 0.3306612 0.6901604
vt 0.7812500 0.7187500
v 0.5708000 0.2907267 0.7025633
vt 0.9687500 0.7187500
v 0.5708000 0.2996249 0.7312133
vt 0.9687500 0.5312500
v 0.5708000 0.3395594 0.7188104
vt 0.7812500 0.5312500
f 477/477 478/478 479/479 480/480
v 0.4696766 0.2981133 0.6939899
vt 0.0312500 0.2187500
v 0.4813084 0.3018550 0.6613555
vt 0.2187500 0.2187500
v 0.3511385 0.3382335 0.6191304
vt 0.2187500 0.0312500
v 0.3395067 0.3344918 0.6517648
vt 0.0312500 0.0312500
f 481/481 482/482 483/483 484/484
v 0.4875658 0.3306686 0.6668894
vt 0.0312500 0.2187500
v 0.4759340 0.3269269 0.6995238
vt 0.2187500 0.2187500
v 0.3457641 0.3633054 0.6572988
vt 0.2187500 0.0312500
v 0.3573958 0.3670471 0.6246643
vt 0.0312500 0.0312500
f 485/485 486/486 487/487 488/488
v 0.4813084 0.3018550 0.6613555
vt 0.0312500 0.2187500
v 0.4875658 0.3306686 0.6668894
vt 0.2187500 0.2187500
v 0.3573958 0.3670471 0.6246643
vt 0.2187500 0.0312500
v 0.3511385 0.3382335 0.6191304
vt 0.0312500 0.0312500
f 489/489 490/490 491/491 492/492
v 0.4759340 0.3269269 0.6995238
vt 0.5312500 0.2187500
v 0.4696766 0.2981133 0.6939899
vt 0.7187500 0.2187500
v 0.3395067 0.3344918 0.6517648
vt 0.7187500 0.0312500
v 0.3457641 0.3633054 0.6572988
vt 0.5312500 0.0312500
f 493/493 494/494 495/495 496/496
v 0.3511385 0.3382335 0.6191304
vt 0.2812500 0.2187500
v 0.3573958 0.3670471 0.6246643
vt 0.4687500 0.2187500
v 0.3457641 0.3633054 0.6572988
vt 0.4687500 0.0312500
v 0.3395067 0.3344918 0.6517648
vt 0.2812500 0.0312500
f 497/497 498/498 499/499 500/500
v 0.4813084 0.3018550 0.6613555
vt 0.7812500 0.2187500
v 0.4696766 0.2981133 0.6939899
vt 0.9687500 0.2187500
v 0.4759340 0.3269269 0.6995238
vt 0.9687500 0.0312500
v 0.4875658 0.3306686 0.6668894
vt 0.7812500 0.0312500
f 501/501 502/502 503/503 504/504
v 0.4440867 0.2898815 0.7657856
vt 0.0312500 0.2187500
v 0.4557184 0.2936233 0.7331512
vt 0.2187500 0.2187500
v 0.3255485 0.3300018 0.6909261
vt 0.2187500 0.0312500
v 0.3139167 0.3262601 0.7235606
vt 0.0312500 0.0312500
f 505/505 506/506 507/507 508/508
v 0.4619758 0.3224368 0.7386851
vt 0.0312500 0.2187500
v 0.4503440 0.3186951 0.7713196
vt 0.2187500 0.2187500
v 0.3201741 0.3550736 0.7290945
vt 0.2187500 0.0312500
v 0.3318059 0.3588153 0.6964601
vt 0.0312500 0.0312500
f 509/509 510/510 511/511 512/512
v 0.4557184 0.2936233 0.7331512
vt 0.0312500 0.2187500
v 0.4619758 0.3224368 0.7386851
vt 0.2187500 0.2187500
v 0.3318059 0.3588153 0.6964601
vt 0.2187500 0.0312500
v 0.3255485 0.3300018 0.6909261
vt 0.0312500 0.0312500
f 513/513 514/514 515/515 516/516
v 0.4503440 0.3186951 0.7713196
vt 0.5312500 0.2187500
v 0.4440867 0.2898815 0.7657856
vt 0.7187500 0.2187500
v 0.3139167 0.3262601 0.7235606
vt 0.7187500 0.0312500
v 0.3201741 0.3550736 0.7290945
vt 0.5312500 0.0312500
f 517/517 518/518 519/519 520/520
v 0.3255485 0.3300018 0.6909261
vt 0.2812500 0.2187500
v 0.3318059 0.3588153 0.6964601
vt 0.4687500 0.2187500
v 0.3201741 0.3550736 0.7290945
vt 0.4687500 0.0312500
v 0.3139167 0.3262601 0.7235606
vt 0.2812500 0.0312500
f 521/521 522/522 523/523 524/524
v 0.4557184 0.2936233 0.7331512
vt 0.7812500 0.2187500
v 0.4440867 0.2898815 0.7657856
vt 0.9687500 0.2187500
v 0.4503440 0.3186951 0.7713196
vt 0.9687500 0.0312500
v 0.4619758 0.3224368 0.7386851
vt 0.7812500 0.0312500
f 525/525 526/526 527/527 528/528
v 0.3560571 0.3214756 0.7008226
vt 0.0312500 0.2187500
v 0.3700152 0.3259656 0.6616613
vt 0.2187500 0.2187500
v 0.3395067 0.3344918 0.6517648
vt 0.2187500 0.0312500
v 0.3255485 0.3300018 0.6909261
vt 0.0312500 0.0312500
f 529/529 530/530 531/531 532/532
v 0.3762726 0.3547792 0.6671953
vt 0.0312500 0.2187500
v 0.3623145 0.3502891 0.7063566
vt 0.2187500 0.2187500
v 0.3318059 0.3588153 0.6964601
vt 0.2187500 0.0312500
v 0.3457641 0.3633054 0.6572988
vt 0.0312500 0.0312500
f 533/533 534/534 535/535 536/536
v 0.3700152 0.3259656 0.6616613
vt 0.0312500 0.2187500
v 0.3762726 0.3547792 0.6671953
vt 0.2187500 0.2187500
v 0.3457641 0.3633054 0.6572988
vt 0.2187500 0.0312500
v 0.3395067 0.3344918 0.6517648
vt 0.0312500 0.0312500
f 537/537 538/538 539/539 540/540
v 0.3623145 0.3502891 0.7063566
vt 0.5312500 0.2187500
v 0.3560571 0.3214756 0.7008226
vt 0.7187500 0.2187500
v 0.3255485 0.3300018 0.6909261
vt 0.7187500 0.0312500
v 0.3318059 0.3588153 0.6964601
vt 0.5312500 0.0312500
f 541/541 542/542 543/543 544/544
v 0.3395067 0.3344918 0.6517648
vt 0.2812500 0.2187500
v 0.3457641 0.3633054 0.6572988
vt 0.4687500 0.2187500
v 0.3318059 0.3588153 0.6964601
vt 0.4687500 0.0312500
v 0.3255485 0.3300018 0.6909261
vt 0.2812500 0.0312500
f 545/545 546/546 547/547 548/548
v 0.3700152 0.3259656 0.6616613
vt 0.7812500 0.2187500
v 0.3560571 0.3214756 0.7008226
vt 0.9687500 0.2187500
v 0.3623145 0.3502891 0.7063566
vt 0.9687500 0.0312500
v 0.3762726 0.3547792 0.6671953
vt 0.7812500 0.0312500
f 549/549 550/550 551/551 552/552
v 0.4557184 0.2936233 0.7331512
vt 0.0312500 0.2187500
v 0.4696766 0.2981133 0.6939899
vt 0.2187500 0.2187500
v 0.4391680 0.3066395 0.6840934
vt 0.2187500 0.0312500
v 0.4252099 0.3021495 0.7232547
vt 0.0312500 0.0312500
f 553/553 554/554 555/555 556/556
v 0.4759340 0.3269269 0.6995238
vt 0.0312500 0.2187500
v 0.4619758 0.3224368 0.7386851
vt 0.2187500 0.2187500
v 0.4314673 0.3309630 0.7287886
vt 0.2187500 0.0312500
v 0.4454254 0.3354531 0.6896273
vt 0.0312500 0.0312500
f 557/557 558/558 559/559 560/560
v 0.4696766 0.2981133 0.6939899
vt 0.0312500 0.2187500
v 0.4759340 0.3269269 0.6995238
vt 0.2187500 0.2187500
v 0.4454254 0.3354531 0.6896273
vt 0.2187500 0.0312500
v 0.4391680 0.3066395 0.6840934
vt 0.0312500 0.0312500
f 561/561 562/562 563/563 564/564
v 0.4619758 0.3224368 0.7386851
vt 0.5312500 0.2187500
v 0.4557184 0.2936233 0.7331512
vt 0.7187500 0.2187500
v 0.4252099 0.3021495 0.7232547
vt 0.7187500 0.0312500
v 0.4314673 0.3309630 0.7287886
vt 0.5312500 0.0312500
f 565/565 566/566 567/567 568/568
v 0.4391680 0.3066395 0.6840934
vt 0.2812500 0.2187500
v 0.4454254 0.3354531 0.6896273
vt 0.4687500 0.2187500
v 0.4314673 0.3309630 0.7287886
vt 0.4687500 0.0312500
v 0.4252099 0.3021495 0.7232547
vt 0.2812500 0.0312500
f 569/569 570/570 571/571 572/572
v 0.4696766 0.2981133 0.6939899
vt 0.7812500 0.2187500
v 0.4557184 0.2936233 0.7331512
vt 0.9687500 0.2187500
v 0.4619758 0.3224368 0.7386851
vt 0.9687500 0.0312500
v 0.4759340 0.3269269 0.6995238
vt 0.7812500 0.0312500
f 573/573 574/574 575/575 576/576
v 0.3842781 0.3435968 0.6751460
vt 0.0312500 0.4687500
v 0.4055177 0.3709982 0.6716322
vt 0.2187500 0.4687500
v 0.3070636 0.4374251 0.5945295
vt 0.2187500 0.2812500
v 0.2858240 0.4100237 0.5980434
vt 0.0312500 0.2812500
f 577/577 578/578 579/579 580/580
v 0.3940917 0.3830581 0.6966123
vt 0.0312500 0.4687500
v 0.3728522 0.3556567 0.7001262
vt 0.2187500 0.4687500
v 0.2743981 0.4220836 0.6230235
vt 0.2187500 0.2812500
v 0.2956376 0.4494850 0.6195096
vt 0.0312500 0.2812500
f 581/581 582/582 583/583 584/584
v 0.4055177 0.3709982 0.6716322
vt 0.0312500 0.4687500
v 0.3940917 0.3830581 0.6966123
vt 0.2187500 0.4687500
v 0.2956376 0.4494850 0.6195096
vt 0.2187500 0.2812500
v 0.3070636 0.4374251 0.5945295
vt 0.0312500 0.2812500
f 585/585 586/586 587/587 588/588
v 0.3728522 0.3556567 0.7001262
vt 0.5312500 0.4687500
v 0.3842781 0.3435968 0.6751460
vt 0.7187500 0.4687500
v 0.2858240 0.4100237 0.5980434
vt 0.7187500 0.2812500
v 0.2743981 0.4220836 0.6230235
vt 0.5312500 0.2812500
f 589/589 590/590 591/591 592/592
v 0.3070636 0.4374251 0.5945295
vt 0.2812500 0.4687500
v 0.2956376 0.4494850 0.6195096
vt 0.4687500 0.4687500
v 0.2743981 0.4220836 0.6230235
vt 0.4687500 0.2812500
v 0.2858240 0.4100237 0.5980434
vt 0.2812500 0.2812500
f 593/593 594/594 595/595 596/596
v 0.4055177 0.3709982 0.6716322
vt 0.7812500 0.4687500
v 0.3842781 0.3435968 0.6751460
vt 0.9687500 0.4687500
v 0.3728522 0.3556567 0.7001262
vt 0.9687500 0.2812500
v 0.3940917 0.3830581 0.6966123
vt 0.7812500 0.2812500
f 597/597 598/598 599/599 600/600
v 0.3375511 0.2833136 0.6828766
vt 0.0312500 0.4687500
v 0.3587907 0.3107151 0.6793627
vt 0.2187500 0.4687500
v 0.2603366 0.3771419 0.6022601
vt 0.2187500 0.2812500
v 0.2390970 0.3497405 0.6057739
vt 0.0312500 0.2812500
f 601/601 602/602 603/603 604/604
v 0.3473647 0.3227750 0.7043428
vt 0.0312500 0.4687500
v 0.3261252 0.2953735 0.7078567
vt 0.2187500 0.4687500
v 0.2276711 0.3618004 0.6307541
vt 0.2187500 0.2812500
v 0.2489106 0.3892018 0.6272402
vt 0.0312500 0.2812500
f 605/605 606/606 607/607 608/608
v 0.3587907 0.3107151 0.6793627
vt 0.0312500 0.4687500
v 0.3473647 0.3227750 0.7043428
vt 0.2187500 0.4687500
v 0.2489106 0.3892018 0.6272402
vt 0.2187500 0.2812500
v 0.2603366 0.3771419 0.6022601
vt 0.0312500 0.2812500
f 609/609 610/610 611/611 612/612
v 0.3261252 0.2953735 0.7078567
vt 0.5312500 0.4687500
v 0.3375511 0.2833136 0.6828766
vt 0.7187500 0.4687500
v 0.2390970 0.3497405 0.6057739
vt 0.7187500 0.2812500
v 0.2276711 0.3618004 0.6307541
vt 0.5312500 0.2812500
f 613/613 614/614 615/615 616/616
v 0.2603366 0.3771419 0.6022601
vt 0.2812500 0.4687500
v 0.2489106 0.3892018 0.6272402
vt 0.4687500 0.4687500
v 0.2276711 0.3618004 0.6307541
vt 0.4687500 0.2812500
v 0.2390970 0.3497405 0.6057739
vt 0.2812500 0.2812500
f 617/617 618/618 619/619 620/620
v 0.3587907 0.3107151 0.6793627
vt 0.7812500 0.4687500
v 0.3375511 0.2833136 0.6828766
vt 0.9687500 0.4687500
v 0.3261252 0.2953735 0.7078567
vt 0.9687500 0.2812500
v 0.3473647 0.3227750 0.7043428
vt 0.7812500 0.2812500
f 621/621 622/622 623/623 624/624
v 0.2834117 0.3615731 0.6203310
vt 0.0312500 0.4687500
v 0.3088992 0.3944549 0.6161143
vt 0.2187500 0.4687500
v 0.2858240 0.4100237 0.5980434
vt 0.2187500 0.2812500
v 0.2603366 0.3771419 0.6022601
vt 0.0312500 0.2812500
f 625/625 626/626 627/627 628/628
v 0.2974733 0.4065148 0.6410945
vt 0.0312500 0.4687500
v 0.2719858 0.3736330 0.6453111
vt 0.2187500 0.4687500
v 0.2489106 0.3892018 0.6272402
vt 0.2187500 0.2812500
v 0.2743981 0.4220836 0.6230235
vt 0.0312500 0.2812500
f 629/629 630/630 631/631 632/632
v 0.3088992 0.3944549 0.6161143
vt 0.0312500 0.4687500
v 0.2974733 0.4065148 0.6410945
vt 0.2187500 0.4687500
v 0.2743981 0.4220836 0.6230235
vt 0.2187500 0.2812500
v 0.2858240 0.4100237 0.5980434
vt 0.0312500 0.2812500
f 633/633 634/634 635/635 636/636
v 0.2719858 0.3736330 0.6453111
vt 0.5312500 0.4687500
v 0.2834117 0.3615731 0.6203310
vt 0.7187500 0.4687500
v 0.2603366 0.3771419 0.6022601
vt 0.7187500 0.2812500
v 0.2489106 0.3892018 0.6272402
vt 0.5312500 0.2812500
f 637/637 638/638 639/639 640/640
v 0.2858240 0.4100237 0.5980434
vt 0.2812500 0.4687500
v 0.2743981 0.4220836 0.6230235
vt 0.4687500 0.4687500
v 0.2489106 0.3892018 0.6272402
vt 0.4687500 0.2812500
v 0.2603366 0.3771419 0.6022601
vt 0.2812500 0.2812500
f 641/641 642/642 643/643 644/644
v 0.3088992 0.3944549 0.6161143
vt 0.7812500 0.4687500
v 0.2834117 0.3615731 0.6203310
vt 0.9687500 0.4687500
v 0.2719858 0.3736330 0.6453111
vt 0.9687500 0.2812500
v 0.2974733 0.4065148 0.6410945
vt 0.7812500 0.2812500
f 645/645 646/646 647/647 648/648
v 0.3587907 0.3107151 0.6793627
vt 0.0312500 0.4687500
v 0.3842781 0.3435968 0.6751460
vt 0.2187500 0.4687500
v 0.3612030 0.3591656 0.6570751
vt 0.2187500 0.2812500
v 0.3357155 0.3262839 0.6612918
vt 0.0312500 0.2812500
f 649/649 650/650 651/651 652/652
v 0.3728522 0.3556567 0.7001262
vt 0.0312500 0.4687500
v 0.3473647 0.3227750 0.7043428
vt 0.2187500 0.4687500
v 0.3242896 0.3383438 0.6862719
vt 0.2187500 0.2812500
v 0.3497770 0.3712255 0.6820552
vt 0.0312500 0.2812500
f 653/653 654/654 655/655 656/656
v 0.3842781 0.3435968 0.6751460
vt 0.0312500 0.4687500
v 0.3728522 0.3556567 0.7001262
vt 0.2187500 0.4687500
v 0.3497770 0.3712255 0.6820552
vt 0.2187500 0.2812500
v 0.3612030 0.3591656 0.6570751
vt 0.0312500 0.2812500
f 657/657 658/658 659/659 660/660
v 0.3473647 0.3227750 0.7043428
vt 0.5312500 0.4687500
v 0.3587907 0.3107151 0.6793627
vt 0.7187500 0.4687500
v 0.3357155 0.3262839 0.6612918
vt 0.7187500 0.2812500
v 0.3242896 0.3383438 0.6862719
vt 0.5312500 0.2812500
f 661/661 662/662 663/663 664/664
v 0.3612030 0.3591656 0.6570751
vt 0.2812500 0.4687500
v 0.3497770 0.3712255 0.6820552
vt 0.4687500 0.4687500
v 0.3242896 0.3383438 0.6862719
vt 0.4687500 0.2812500
v 0.3357155 0.3262839 0.6612918
vt 0.2812500 0.2812500
f 665/665 666/666 667/667 668/668
v 0.3842781 0.3435968 0.6751460
vt 0.7812500 0.4687500
v 0.3587907 0.3107151 0.6793627
vt 0.9687500 0.4687500
v 0.3473647 0.3227750 0.7043428
vt 0.9687500 0.2812500
v 0.3728522 0.3556567 0.7001262
vt 0.7812500 0.2812500
f 669/669 670/670 671/671 672/672
v 0.2957840 0.3646213 0.6167930
vt 0.0312500 0.2187500
v 0.3232155 0.3578059 0.5964123
vt 0.2187500 0.2187500
v 0.2705457 0.4435980 0.4968323
vt 0.2187500 0.0312500
v 0.2431143 0.4504133 0.5172130
vt 0.0312500 0.0312500
f 673/673 674/674 675/675 676/676
v 0.3379724 0.3809403 0.6085382
vt 0.0312500 0.2187500
v 0.3105409 0.3877556 0.6289189
vt 0.2187500 0.2187500
v 0.2578712 0.4735477 0.5293389
vt 0.2187500 0.0312500
v 0.2853026 0.4667323 0.5089582
vt 0.0312500 0.0312500
f 677/677 678/678 679/679 680/680
v 0.3232155 0.3578059 0.5964123
vt 0.0312500 0.2187500
v 0.3379724 0.3809403 0.6085382
vt 0.2187500 0.2187500
v 0.2853026 0.4667323 0.5089582
vt 0.2187500 0.0312500
v 0.2705457 0.4435980 0.4968323
vt 0.0312500 0.0312500
f 681/681 682/682 683/683 684/684
v 0.3105409 0.3877556 0.6289189
vt 0.5312500 0.2187500
v 0.2957840 0.3646213 0.6167930
vt 0.7187500 0.2187500
v 0.2431143 0.4504133 0.5172130
vt 0.7187500 0.0312500
v 0.2578712 0.4735477 0.5293389
vt 0.5312500 0.0312500
f 685/685 686/686 687/687 688/688
v 0.2705457 0.4435980 0.4968323
vt 0.2812500 0.2187500
v 0.2853026 0.4667323 0.5089582
vt 0.4687500 0.2187500
v 0.2578712 0.4735477 0.5293389
vt 0.4687500 0.0312500
v 0.2431143 0.4504133 0.5172130
vt 0.2812500 0.0312500
f 689/689 690/690 691/691 692/692
v 0.3232155 0.3578059 0.5964123
vt 0.7812500 0.2187500
v 0.2957840 0.3646213 0.6167930
vt 0.9687500 0.2187500
v 0.3105409 0.3877556 0.6289189
vt 0.9687500 0.0312500
v 0.3379724 0.3809403 0.6085382
vt 0.7812500 0.0312500
f 693/693 694/694 695/695 696/696
v 0.2354349 0.3796151 0.6616305
vt 0.0312500 0.2187500
v 0.2628663 0.3727997 0.6412498
vt 0.2187500 0.2187500
v 0.2101966 0.4585918 0.5416698
vt 0.2187500 0.0312500
v 0.1827651 0.4654071 0.5620505
vt 0.0312500 0.0312500
f 697/697 698/698 699/699 700/700
v 0.2776232 0.3959340 0.6533757
vt 0.0312500 0.2187500
v 0.2501918 0.4027494 0.6737564
vt 0.2187500 0.2187500
v 0.1975220 0.4885414 0.5741764
vt 0.2187500 0.0312500
v 0.2249535 0.4817261 0.5537957
vt 0.0312500 0.0312500
f 701/701 702/702 703/703 704/704
v 0.2628663 0.3727997 0.6412498
vt 0.0312500 0.2187500
v 0.2776232 0.3959340 0.6533757
vt 0.2187500 0.2187500
v 0.2249535 0.4817261 0.5537957
vt 0.2187500 0.0312500
v 0.2101966 0.4585918 0.5416698
vt 0.0312500 0.0312500
f 705/705 706/706 707/707 708/708
v 0.2501918 0.4027494 0.6737564
vt 0.5312500 0.2187500
v 0.2354349 0.3796151 0.6616305
vt 0.7187500 0.2187500
v 0.1827651 0.4654071 0.5620505
vt 0.7187500 0.0312500
v 0.1975220 0.4885414 0.5741764
vt 0.5312500 0.0312500
f 709/709 710/710 711/711 712/712
v 0.2101966 0.4585918 0.5416698
vt 0.2812500 0.2187500
v 0.2249535 0.4817261 0.5537957
vt 0.4687500 0.2187500
v 0.1975220 0.4885414 0.5741764
vt 0.4687500 0.0312500
v 0.1827651 0.4654071 0.5620505
vt 0.2812500 0.0312500
f 713/713 714/714 715/715 716/716
v 0.2628663 0.3727997 0.6412498
vt 0.7812500 0.2187500
v 0.2354349 0.3796151 0.6616305
vt 0.9687500 0.2187500
v 0.2501918 0.4027494 0.6737564
vt 0.9687500 0.0312500
v 0.2776232 0.3959340 0.6533757
vt 0.7812500 0.0312500
f 717/717 718/718 719/719 720/720
v 0.2225410 0.4384843 0.5650089
vt 0.0312500 0.2187500
v 0.2554588 0.4303058 0.5405520
vt 0.2187500 0.2187500
v 0.2431143 0.4504133 0.5172130
vt 0.2187500 0.0312500
v 0.2101966 0.4585918 0.5416698
vt 0.0312500 0.0312500
f 721/721 722/722 723/723 724/724
v 0.2702157 0.4534401 0.5526779
vt 0.0312500 0.2187500
v 0.2372979 0.4616186 0.5771348
vt 0.2187500 0.2187500
v 0.2249535 0.4817261 0.5537957
vt 0.2187500 0.0312500
v 0.2578712 0.4735477 0.5293389
vt 0.0312500 0.0312500
f 725/725 726/726 727/727 728/728
v 0.2554588 0.4303058 0.5405520
vt 0.0312500 0.2187500
v 0.2702157 0.4534401 0.5526779
vt 0.2187500 0.2187500
v 0.2578712 0.4735477 0.5293389
vt 0.2187500 0.0312500
v 0.2431143 0.4504133 0.5172130
vt 0.0312500 0.0312500
f 729/729 730/730 731/731 732/732
v 0.2372979 0.4616186 0.5771348
vt 0.5312500 0.2187500
v 0.2225410 0.4384843 0.5650089
vt 0.7187500 0.2187500
v 0.2101966 0.4585918 0.5416698
vt 0.7187500 0.0312500
v 0.2249535 0.4817261 0.5537957
vt 0.5312500 0.0312500
f 733/733 734/734 735/735 736/736
v 0.2431143 0.4504133 0.5172130
vt 0.2812500 0.2187500
v 0.2578712 0.4735477 0.5293389
vt 0.4687500 0.2187500
v 0.2249535 0.4817261 0.5537957
vt 0.4687500 0.0312500
v 0.2101966 0.4585918 0.5416698
vt 0.2812500 0.0312500
f 737/737 738/738 739/739 740/740
v 0.2554588 0.4303058 0.5405520
vt 0.7812500 0.2187500
v 0.2225410 0.4384843 0.5650089
vt 0.9687500 0.2187500
v 0.2372979 0.4616186 0.5771348
vt 0.9687500 0.0312500
v 0.2702157 0.4534401 0.5526779
vt 0.7812500 0.0312500
f 741/741 742/742 743/743 744/744
v 0.2628663 0.3727997 0.6412498
vt 0.0312500 0.2187500
v 0.2957840 0.3646213 0.6167930
vt 0.2187500 0.2187500
v 0.2834396 0.3847288 0.5934539
vt 0.2187500 0.0312500
v 0.2505218 0.3929072 0.6179108
vt 0.0312500 0.0312500
f 745/745 746/746 747/747 748/748
v 0.3105409 0.3877556 0.6289189
vt 0.0312500 0.2187500
v 0.2776232 0.3959340 0.6533757
vt 0.2187500 0.2187500
v 0.2652787 0.4160416 0.6300367
vt 0.2187500 0.0312500
v 0.2981965 0.4078631 0.6055798
vt 0.0312500 0.0312500
f 749/749 750/750 751/751 752/752
v 0.2957840 0.3646213 0.6167930
vt 0.0312500 0.2187500
v 0.3105409 0.3877556 0.6289189
vt 0.2187500 0.2187500
v 0.2981965 0.4078631 0.6055798
vt 0.2187500 0.0312500
v 0.2834396 0.3847288 0.5934539
vt 0.0312500 0.0312500
f 753/753 754/754 755/755 756/756
v 0.2776232 0.3959340 0.6533757
vt 0.5312500 0.2187500
v 0.2628663 0.3727997 0.6412498
vt 0.7187500 0.2187500
v 0.2505218 0.3929072 0.6179108
vt 0.7187500 0.0312500
v 0.2652787 0.4160416 0.6300367
vt 0.5312500 0.0312500
f 757/757 758/758 759/759 760/760
v 0.2834396 0.3847288 0.5934539
vt 0.2812500 0.2187500
v 0.2981965 0.4078631 0.6055798
vt 0.4687500 0.2187500
v 0.2652787 0.4160416 0.6300367
vt 0.4687500 0.0312500
v 0.2505218 0.3929072 0.6179108
vt 0.2812500 0.0312500
f 761/761 762/762 763/763 764/764
v 0.2957840 0.3646213 0.6167930
vt 0.7812500 0.2187500
v 0.2628663 0.3727997 0.6412498
vt 0.9687500 0.2187500
v 0.2776232 0.3959340 0.6533757
vt 0.9687500 0.0312500
v 0.3105409 0.3877556 0.6289189
vt 0.7812500 0.0312500
f 765/765 766/766 767/767 768/768
v 0.2663049 0.4426880 0.5601294
vt 0.0312500 0.2187500
v 0.2958567 0.4566780 0.5721823
vt 0.2187500 0.2187500
v 0.2958567 0.5491016 0.4649049
vt 0.2187500 0.0312500
v 0.2663049 0.5351116 0.4528520
vt 0.0312500 0.0312500
f 769/769 770/770 771/771 772/772
v 0.2799591 0.4759526 0.5887882
vt 0.0312500 0.2187500
v 0.2504073 0.4619626 0.5767352
vt 0.2187500 0.2187500
v 0.2504073 0.5543862 0.4694579
vt 0.2187500 0.0312500
v 0.2799591 0.5683762 0.4815108
vt 0.0312500 0.0312500
f 773/773 774/774 775/775 776/776
v 0.2958567 0.4566780 0.5721823
vt 0.0312500 0.2187500
v 0.2799591 0.4759526 0.5887882
vt 0.2187500 0.2187500
v 0.2799591 0.5683762 0.4815108
vt 0.2187500 0.0312500
v 0.2958567 0.5491016 0.4649049
vt 0.0312500 0.0312500
f 777/777 778/778 779/779 780/780
v 0.2504073 0.4619626 0.5767352
vt 0.5312500 0.2187500
v 0.2663049 0.4426880 0.5601294
vt 0.7187500 0.2187500
v 0.2663049 0.5351116 0.4528520
vt 0.7187500 0.0312500
v 0.2504073 0.5543862 0.4694579
vt 0.5312500 0.0312500
f 781/781 782/782 783/783 784/784
v 0.2958567 0.5491016 0.4649049
vt 0.2812500 0.2187500
v 0.2799591 0.5683762 0.4815108
vt 0.4687500 0.2187500
v 0.2504073 0.5543862 0.4694579
vt 0.4687500 0.0312500
v 0.2663049 0.5351116 0.4528520
vt 0.2812500 0.0312500
f 785/785 786/786 787/787 788/788
v 0.2958567 0.4566780 0.5721823
vt 0.7812500 0.2187500
v 0.2663049 0.4426880 0.5601294
vt 0.9687500 0.2187500
v 0.2504073 0.4619626 0.5767352
vt 0.9687500 0.0312500
v 0.2799591 0.4759526 0.5887882
vt 0.7812500 0.0312500
f 789/789 790/790 791/791 792/792
v 0.2012909 0.4119099 0.5336129
vt 0.0312500 0.2187500
v 0.2308427 0.4258999 0.5456659
vt 0.2187500 0.2187500
v 0.2308427 0.5183235 0.4383885
vt 0.2187500 0.0312500
v 0.2012909 0.5043335 0.4263355
vt 0.0312500 0.0312500
f 793/793 794/794 795/795 796/796
v 0.2149451 0.4451746 0.5622717
vt 0.0312500 0.2187500
v 0.1853933 0.4311846 0.5502188
vt 0.2187500 0.2187500
v 0.1853933 0.5236082 0.4429414
vt 0.2187500 0.0312500
v 0.2149451 0.5375982 0.4549943
vt 0.0312500 0.0312500
f 797/797 798/798 799/799 800/800
v 0.2308427 0.4258999 0.5456659
vt 0.0312500 0.2187500
v 0.2149451 0.4451746 0.5622717
vt 0.2187500 0.2187500
v 0.2149451 0.5375982 0.4549943
vt 0.2187500 0.0312500
v 0.2308427 0.5183235 0.4383885
vt 0.0312500 0.0312500
f 801/801 802/802 803/803 804/804
v 0.1853933 0.4311846 0.5502188
vt 0.5312500 0.2187500
v 0.2012909 0.4119099 0.5336129
vt 0.7187500 0.2187500
v 0.2012909 0.5043335 0.4263355
vt 0.7187500 0.0312500
v 0.1853933 0.5236082 0.4429414
vt 0.5312500 0.0312500
f 805/805 806/806 807/807 808/808
v 0.2308427 0.5183235 0.4383885
vt 0.2812500 0.2187500
v 0.2149451 0.5375982 0.4549943
vt 0.4687500 0.2187500
v 0.1853933 0.5236082 0.4429414
vt 0.4687500 0.0312500
v 0.2012909 0.5043335 0.4263355
vt 0.2812500 0.0312500
f 809/809 810/810 811/811 812/812
v 0.2308427 0.4258999 0.5456659
vt 0.7812500 0.2187500
v 0.2012909 0.4119099 0.5336129
vt 0.9687500 0.2187500
v 0.1853933 0.4311846 0.5502188
vt 0.9687500 0.0312500
v 0.2149451 0.4451746 0.5622717
vt 0.7812500 0.0312500
f 813/813 814/814 815/815 816/816
v 0.2308427 0.4966617 0.4635316
vt 0.0312500 0.2187500
v 0.2663049 0.5134498 0.4779951
vt 0.2187500 0.2187500
v 0.2663049 0.5351116 0.4528520
vt 0.2187500 0.0312500
v 0.2308427 0.5183235 0.4383885
vt 0.0312500 0.0312500
f 817/817 818/818 819/819 820/820
v 0.2504073 0.5327244 0.4946010
vt 0.0312500 0.2187500
v 0.2149451 0.5159364 0.4801375
vt 0.2187500 0.2187500
v 0.2149451 0.5375982 0.4549943
vt 0.2187500 0.0312500
v 0.2504073 0.5543862 0.4694579
vt 0.0312500 0.0312500
f 821/821 822/822 823/823 824/824
v 0.2663049 0.5134498 0.4779951
vt 0.0312500 0.2187500
v 0.2504073 0.5327244 0.4946010
vt 0.2187500 0.2187500
v 0.2504073 0.5543862 0.4694579
vt 0.2187500 0.0312500
v 0.2663049 0.5351116 0.4528520
vt 0.0312500 0.0312500
f 825/825 826/826 827/827 828/828
v 0.2149451 0.5159364 0.4801375
vt 0.5312500 0.2187500
v 0.2308427 0.4966617 0.4635316
vt 0.7187500 0.2187500
v 0.2308427 0.5183235 0.4383885
vt 0.7187500 0.0312500
v 0.2149451 0.5375982 0.4549943
vt 0.5312500 0.0312500
f 829/829 830/830 831/831 832/832
v 0.2663049 0.5351116 0.4528520
vt 0.2812500 0.2187500
v 0.2504073 0.5543862 0.4694579
vt 0.4687500 0.2187500
v 0.2149451 0.5375982 0.4549943
vt 0.4687500 0.0312500
v 0.2308427 0.5183235 0.4383885
vt 0.2812500 0.0312500
f 833/833 834/834 835/835 836/836
v 0.2663049 0.5134498 0.4779951
vt 0.7812500 0.2187500
v 0.2308427 0.4966617 0.4635316
vt 0.9687500 0.2187500
v 0.2149451 0.5159364 0.4801375
vt 0.9687500 0.0312500
v 0.2504073 0.5327244 0.4946010
vt 0.7812500 0.0312500
f 837/837 838/838 839/839 840/840
v 0.2308427 0.4258999 0.5456659
vt 0.0312500 0.2187500
v 0.2663049 0.4426880 0.5601294
vt 0.2187500 0.2187500
v 0.2663049 0.4643497 0.5349862
vt 0.2187500 0.0312500
v 0.2308427 0.4475617 0.5205227
vt 0.0312500 0.0312500
f 841/841 842/842 843/843 844/844
v 0.2504073 0.4619626 0.5767352
vt 0.0312500 0.2187500
v 0.2149451 0.4451746 0.5622717
vt 0.2187500 0.2187500
v 0.2149451 0.4668364 0.5371286
vt 0.2187500 0.0312500
v 0.2504073 0.4836244 0.5515921
vt 0.0312500 0.0312500
f 845/845 846/846 847/847 848/848
v 0.2663049 0.4426880 0.5601294
vt 0.0312500 0.2187500
v 0.2504073 0.4619626 0.5767352
vt 0.2187500 0.2187500
v 0.2504073 0.4836244 0.5515921
vt 0.2187500 0.0312500
v 0.2663049 0.4643497 0.5349862
vt 0.0312500 0.0312500
f 849/849 850/850 851/851 852/852
v 0.2149451 0.4451746 0.5622717
vt 0.5312500 0.2187500
v 0.2308427 0.4258999 0.5456659
vt 0.7187500 0.2187500
v 0.2308427 0.4475617 0.5205227
vt 0.7187500 0.0312500
v 0.2149451 0.4668364 0.5371286
vt 0.5312500 0.0312500
f 853/853 854/854 855/855 856/856
v 0.2663049 0.4643497 0.5349862
vt 0.2812500 0.2187500
v 0.2504073 0.4836244 0.5515921
vt 0.4687500 0.2187500
v 0.2149451 0.4668364 0.5371286
vt 0.4687500 0.0312500
v 0.2308427 0.4475617 0.5205227
vt 0.2812500 0.0312500
f 857/857 858/858 859/859 860/860
v 0.2663049 0.4426880 0.5601294
vt 0.7812500 0.2187500
v 0.2308427 0.4258999 0.5456659
vt 0.9687500 0.2187500
v 0.2149451 0.4451746 0.5622717
vt 0.9687500 0.0312500
v 0.2504073 0.4619626 0.5767352
vt 0.7812500 0.0312500
f 861/861 862/862 863/863 864/864
v 0.2486006 0.4895772 0.4660963
vt 0.0312500 0.2187500
v 0.2851758 0.4613576 0.4611294
vt 0.2187500 0.2187500
v 0.3378456 0.5471496 0.3615493
vt 0.2187500 0.0312500
v 0.3012703 0.5753692 0.3665163
vt 0.0312500 0.0312500
f 865/865 866/866 867/867 868/868
v 0.2999327 0.4767726 0.4822152
vt 0.0312500 0.2187500
v 0.2633575 0.5049922 0.4871821
vt 0.2187500 0.2187500
v 0.3160272 0.5907842 0.3876021
vt 0.2187500 0.0312500
v 0.3526025 0.5625646 0.3826351
vt 0.0312500 0.0312500
f 869/869 870/870 871/871 872/872
v 0.2851758 0.4613576 0.4611294
vt 0.0312500 0.2187500
v 0.2999327 0.4767726 0.4822152
vt 0.2187500 0.2187500
v 0.3526025 0.5625646 0.3826351
vt 0.2187500 0.0312500
v 0.3378456 0.5471496 0.3615493
vt 0.0312500 0.0312500
f 873/873 874/874 875/875 876/876
v 0.2633575 0.5049922 0.4871821
vt 0.5312500 0.2187500
v 0.2486006 0.4895772 0.4660963
vt 0.7187500 0.2187500
v 0.3012703 0.5753692 0.3665163
vt 0.7187500 0.0312500
v 0.3160272 0.5907842 0.3876021
vt 0.5312500 0.0312500
f 877/877 878/878 879/879 880/880
v 0.3378456 0.5471496 0.3615493
vt 0.2812500 0.2187500
v 0.3526025 0.5625646 0.3826351
vt 0.4687500 0.2187500
v 0.3160272 0.5907842 0.3876021
vt 0.4687500 0.0312500
v 0.3012703 0.5753692 0.3665163
vt 0.2812500 0.0312500
f 881/881 882/882 883/883 884/884
v 0.2851758 0.4613576 0.4611294
vt 0.7812500 0.2187500
v 0.2486006 0.4895772 0.4660963
vt 0.9687500 0.2187500
v 0.2633575 0.5049922 0.4871821
vt 0.9687500 0.0312500
v 0.2999327 0.4767726 0.4822152
vt 0.7812500 0.0312500
f 885/885 886/886 887/887 888/888
v 0.1681350 0.5516603 0.4770236
vt 0.0312500 0.2187500
v 0.2047103 0.5234407 0.4720566
vt 0.2187500 0.2187500
v 0.2573800 0.6092327 0.3724766
vt 0.2187500 0.0312500
v 0.2208048 0.6374523 0.3774435
vt 0.0312500 0.0312500
f 889/889 890/890 891/891 892/892
v 0.2194672 0.5388557 0.4931424
vt 0.0312500 0.2187500
v 0.1828919 0.5670753 0.4981094
vt 0.2187500 0.2187500
v 0.2355617 0.6528673 0.3985293
vt 0.2187500 0.0312500
v 0.2721369 0.6246477 0.3935624
vt 0.0312500 0.0312500
f 893/893 894/894 895/895 896/896
v 0.2047103 0.5234407 0.4720566
vt 0.0312500 0.2187500
v 0.2194672 0.5388557 0.4931424
vt 0.2187500 0.2187500
v 0.2721369 0.6246477 0.3935624
vt 0.2187500 0.0312500
v 0.2573800 0.6092327 0.3724766
vt 0.0312500 0.0312500
f 897/897 898/898 899/899 900/900
v 0.1828919 0.5670753 0.4981094
vt 0.5312500 0.2187500
v 0.1681350 0.5516603 0.4770236
vt 0.7187500 0.2187500
v 0.2208048 0.6374523 0.3774435
vt 0.7187500 0.0312500
v 0.2355617 0.6528673 0.3985293
vt 0.5312500 0.0312500
f 901/901 902/902 903/903 904/904
v 0.2573800 0.6092327 0.3724766
vt 0.2812500 0.2187500
v 0.2721369 0.6246477 0.3935624
vt 0.4687500 0.2187500
v 0.2355617 0.6528673 0.3985293
vt 0.4687500 0.0312500
v 0.2208048 0.6374523 0.3774435
vt 0.2812500 0.0312500
f 905/905 906/906 907/907 908/908
v 0.2047103 0.5234407 0.4720566
vt 0.7812500 0.2187500
v 0.1681350 0.5516603 0.4770236
vt 0.9687500 0.2187500
v 0.1828919 0.5670753 0.4981094
vt 0.9687500 0.0312500
v 0.2194672 0.5388557 0.4931424
vt 0.7812500 0.0312500
f 909/909 910/910 911/911 912/912
v 0.2450356 0.5891252 0.3958157
vt 0.0312500 0.2187500
v 0.2889258 0.5552617 0.3898553
vt 0.2187500 0.2187500
v 0.3012703 0.5753692 0.3665163
vt 0.2187500 0.0312500
v 0.2573800 0.6092327 0.3724766
vt 0.0312500 0.0312500
f 913/913 914/914 915/915 916/916
v 0.3036827 0.5706767 0.4109412
vt 0.0312500 0.2187500
v 0.2597925 0.6045402 0.4169015
vt 0.2187500 0.2187500
v 0.2721369 0.6246477 0.3935624
vt 0.2187500 0.0312500
v 0.3160272 0.5907842 0.3876021
vt 0.0312500 0.0312500
f 917/917 918/918 919/919 920/920
v 0.2889258 0.5552617 0.3898553
vt 0.0312500 0.2187500
v 0.3036827 0.5706767 0.4109412
vt 0.2187500 0.2187500
v 0.3160272 0.5907842 0.3876021
vt 0.2187500 0.0312500
v 0.3012703 0.5753692 0.3665163
vt 0.0312500 0.0312500
f 921/921 922/922 923/923 924/924
v 0.2597925 0.6045402 0.4169015
vt 0.5312500 0.2187500
v 0.2450356 0.5891252 0.3958157
vt 0.7187500 0.2187500
v 0.2573800 0.6092327 0.3724766
vt 0.7187500 0.0312500
v 0.2721369 0.6246477 0.3935624
vt 0.5312500 0.0312500
f 925/925 926/926 927/927 928/928
v 0.3012703 0.5753692 0.3665163
vt 0.2812500 0.2187500
v 0.3160272 0.5907842 0.3876021
vt 0.4687500 0.2187500
v 0.2721369 0.6246477 0.3935624
vt 0.4687500 0.0312500
v 0.2573800 0.6092327 0.3724766
vt 0.2812500 0.0312500
f 929/929 930/930 931/931 932/932
v 0.2889258 0.5552617 0.3898553
vt 0.7812500 0.2187500
v 0.2450356 0.5891252 0.3958157
vt 0.9687500 0.2187500
v 0.2597925 0.6045402 0.4169015
vt 0.9687500 0.0312500
v 0.3036827 0.5706767 0.4109412
vt 0.7812500 0.0312500
f 933/933 934/934 935/935 936/936
v 0.2047103 0.5234407 0.4720566
vt 0.0312500 0.2187500
v 0.2486006 0.4895772 0.4660963
vt 0.2187500 0.2187500
v 0.2609450 0.5096847 0.4427572
vt 0.2187500 0.0312500
v 0.2170548 0.5435482 0.4487176
vt 0.0312500 0.0312500
f 937/937 938/938 939/939 940/940
v 0.2633575 0.5049922 0.4871821
vt 0.0312500 0.2187500
v 0.2194672 0.5388557 0.4931424
vt 0.2187500 0.2187500
v 0.2318117 0.5589632 0.4698034
vt 0.2187500 0.0312500
v 0.2757019 0.5250997 0.4638430
vt 0.0312500 0.0312500
f 941/941 942/942 943/943 944/944
v 0.2486006 0.4895772 0.4660963
vt 0.0312500 0.2187500
v 0.2633575 0.5049922 0.4871821
vt 0.2187500 0.2187500
v 0.2757019 0.5250997 0.4638430
vt 0.2187500 0.0312500
v 0.2609450 0.5096847 0.4427572
vt 0.0312500 0.0312500
f 945/945 946/946 947/947 948/948
v 0.2194672 0.5388557 0.4931424
vt 0.5312500 0.2187500
v 0.2047103 0.5234407 0.4720566
vt 0.7187500 0.2187500
v 0.2170548 0.5435482 0.4487176
vt 0.7187500 0.0312500
v 0.2318117 0.5589632 0.4698034
vt 0.5312500 0.0312500
f 949/949 950/950 951/951 952/952
v 0.2609450 0.5096847 0.4427572
vt 0.2812500 0.2187500
v 0.2757019 0.5250997 0.4638430
vt 0.4687500 0.2187500
v 0.2318117 0.5589632 0.4698034
vt 0.4687500 0.0312500
v 0.2170548 0.5435482 0.4487176
vt 0.2812500 0.0312500
f 953/953 954/954 955/955 956/956
v 0.2486006 0.4895772 0.4660963
vt 0.7812500 0.2187500
v 0.2047103 0.5234407 0.4720566
vt 0.9687500 0.2187500
v 0.2194672 0.5388557 0.4931424
vt 0.9687500 0.0312500
v 0.2633575 0.5049922 0.4871821
vt 0.7812500 0.0312500
f 957/957 958/958 959/959 960/960
v 0.2900719 0.5678916 0.4204619
vt 0.0312500 0.4687500
v 0.3183913 0.5686630 0.4572883
vt 0.2187500 0.4687500
v 0.4168454 0.6350899 0.3801857
vt 0.2187500 0.2812500
v 0.3885260 0.6343184 0.3433593
vt 0.0312500 0.2812500
f 961/961 962/962 963/963 964/964
v 0.3069654 0.5951524 0.4655199
vt 0.0312500 0.4687500
v 0.2786460 0.5943810 0.4286935
vt 0.2187500 0.4687500
v 0.3771001 0.6608078 0.3515909
vt 0.2187500 0.2812500
v 0.4054195 0.6615793 0.3884173
vt 0.0312500 0.2812500
f 965/965 966/966 967/967 968/968
v 0.3183913 0.5686630 0.4572883
vt 0.0312500 0.4687500
v 0.3069654 0.5951524 0.4655199
vt 0.2187500 0.4687500
v 0.4054195 0.6615793 0.3884173
vt 0.2187500 0.2812500
v 0.4168454 0.6350899 0.3801857
vt 0.0312500 0.2812500
f 969/969 970/970 971/971 972/972
v 0.2786460 0.5943810 0.4286935
vt 0.5312500 0.4687500
v 0.2900719 0.5678916 0.4204619
vt 0.7187500 0.4687500
v 0.3885260 0.6343184 0.3433593
vt 0.7187500 0.2812500
v 0.3771001 0.6608078 0.3515909
vt 0.5312500 0.2812500
f 973/973 974/974 975/975 976/976
v 0.4168454 0.6350899 0.3801857
vt 0.2812500 0.4687500
v 0.4054195 0.6615793 0.3884173
vt 0.4687500 0.4687500
v 0.3771001 0.6608078 0.3515909
vt 0.4687500 0.2812500
v 0.3885260 0.6343184 0.3433593
vt 0.2812500 0.2812500
f 977/977 978/978 979/979 980/980
v 0.3183913 0.5686630 0.4572883
vt 0.7812500 0.4687500
v 0.2900719 0.5678916 0.4204619
vt 0.9687500 0.4687500
v 0.2786460 0.5943810 0.4286935
vt 0.9687500 0.2812500
v 0.3069654 0.5951524 0.4655199
vt 0.7812500 0.2812500
f 981/981 982/982 983/983 984/984
v 0.2277692 0.5661943 0.3394440
vt 0.0312500 0.4687500
v 0.2560886 0.5669658 0.3762703
vt 0.2187500 0.4687500
v 0.3545428 0.6333927 0.2991677
vt 0.2187500 0.2812500
v 0.3262234 0.6326212 0.2623413
vt 0.0312500 0.2812500
f 985/985 986/986 987/987 988/988
v 0.2446627 0.5934552 0.3845019
vt 0.0312500 0.4687500
v 0.2163433 0.5926837 0.3476756
vt 0.2187500 0.4687500
v 0.3147974 0.6591106 0.2705729
vt 0.2187500 0.2812500
v 0.3431168 0.6598821 0.3073993
vt 0.0312500 0.2812500
f 989/989 990/990 991/991 992/992
v 0.2560886 0.5669658 0.3762703
vt 0.0312500 0.4687500
v 0.2446627 0.5934552 0.3845019
vt 0.2187500 0.4687500
v 0.3431168 0.6598821 0.3073993
vt 0.2187500 0.2812500
v 0.3545428 0.6333927 0.2991677
vt 0.0312500 0.2812500
f 993/993 994/994 995/995 996/996
v 0.2163433 0.5926837 0.3476756
vt 0.5312500 0.4687500
v 0.2277692 0.5661943 0.3394440
vt 0.7187500 0.4687500
v 0.3262234 0.6326212 0.2623413
vt 0.7187500 0.2812500
v 0.3147974 0.6591106 0.2705729
vt 0.5312500 0.2812500
f 997/997 998/998 999/999 1000/1000
v 0.3545428 0.6333927 0.2991677
vt 0.2812500 0.4687500
v 0.3431168 0.6598821 0.3073993
vt 0.4687500 0.4687500
v 0.3147974 0.6591106 0.2705729
vt 0.4687500 0.2812500
v 0.3262234 0.6326212 0.2623413
vt 0.2812500 0.2812500
f 1001/1001 1002/1002 1003/1003 1004/1004
v 0.2560886 0.5669658 0.3762703
vt 0.7812500 0.4687500
v 0.2277692 0.5661943 0.3394440
vt 0.9687500 0.4687500
v 0.2163433 0.5926837 0.3476756
vt 0.9687500 0.2812500
v 0.2446627 0.5934552 0.3845019
vt 0.7812500 0.2812500
f 1005/1005 1006/1006 1007/1007 1008/1008
v 0.3314676 0.6178239 0.3172386
vt 0.0312500 0.4687500
v 0.3654509 0.6187496 0.3614302
vt 0.2187500 0.4687500
v 0.3885260 0.6343184 0.3433593
vt 0.2187500 0.2812500
v 0.3545428 0.6333927 0.2991677
vt 0.0312500 0.2812500
f 1009/1009 1010/1010 1011/1011 1012/1012
v 0.3540249 0.6452390 0.3696618
vt 0.0312500 0.4687500
v 0.3200416 0.6443133 0.3254702
vt 0.2187500 0.4687500
v 0.3431168 0.6598821 0.3073993
vt 0.2187500 0.2812500
v 0.3771001 0.6608078 0.3515909
vt 0.0312500 0.2812500
f 1013/1013 1014/1014 1015/1015 1016/1016
v 0.3654509 0.6187496 0.3614302
vt 0.0312500 0.4687500
v 0.3540249 0.6452390 0.3696618
vt 0.2187500 0.4687500
v 0.3771001 0.6608078 0.3515909
vt 0.2187500 0.2812500
v 0.3885260 0.6343184 0.3433593
vt 0.0312500 0.2812500
f 1017/1017 1018/1018 1019/1019 1020/1020
v 0.3200416 0.6443133 0.3254702
vt 0.5312500 0.4687500
v 0.3314676 0.6178239 0.3172386
vt 0.7187500 0.4687500
v 0.3545428 0.6333927 0.2991677
vt 0.7187500 0.2812500
v 0.3431168 0.6598821 0.3073993
vt 0.5312500 0.2812500
f 1021/1021 1022/1022 1023/1023 1024/1024
v 0.3885260 0.6343184 0.3433593
vt 0.2812500 0.4687500
v 0.3771001 0.6608078 0.3515909
vt 0.4687500 0.4687500
v 0.3431168 0.6598821 0.3073993
vt 0.4687500 0.2812500
v 0.3545428 0.6333927 0.2991677
vt 0.2812500 0.2812500
f 1025/1025 1026/1026 1027/1027 1028/1028
v 0.3654509 0.6187496 0.3614302
vt 0.7812500 0.4687500
v 0.3314676 0.6178239 0.3172386
vt 0.9687500 0.4687500
v 0.3200416 0.6443133 0.3254702
vt 0.9687500 0.2812500
v 0.3540249 0.6452390 0.3696618
vt 0.7812500 0.2812500
f 1029/1029 1030/1030 1031/1031 1032/1032
v 0.2560886 0.5669658 0.3762703
vt 0.0312500 0.4687500
v 0.2900719 0.5678916 0.4204619
vt 0.2187500 0.4687500
v 0.3131471 0.5834604 0.4023910
vt 0.2187500 0.2812500
v 0.2791638 0.5825346 0.3581994
vt 0.0312500 0.2812500
f 1033/1033 1034/1034 1035/1035 1036/1036
v 0.2786460 0.5943810 0.4286935
vt 0.0312500 0.4687500
v 0.2446627 0.5934552 0.3845019
vt 0.2187500 0.4687500
v 0.2677379 0.6090240 0.3664310
vt 0.2187500 0.2812500
v 0.3017212 0.6099498 0.4106226
vt 0.0312500 0.2812500
f 1037/1037 1038/1038 1039/1039 1040/1040
v 0.2900719 0.5678916 0.4204619
vt 0.0312500 0.4687500
v 0.2786460 0.5943810 0.4286935
vt 0.2187500 0.4687500
v 0.3017212 0.6099498 0.4106226
vt 0.2187500 0.2812500
v 0.3131471 0.5834604 0.4023910
vt 0.0312500 0.2812500
f 1041/1041 1042/1042 1043/1043 1044/1044
v 0.2446627 0.5934552 0.3845019
vt 0.5312500 0.4687500
v 0.2560886 0.5669658 0.3762703
vt 0.7187500 0.4687500
v 0.2791638 0.5825346 0.3581994
vt 0.7187500 0.2812500
v 0.2677379 0.6090240 0.3664310
vt 0.5312500 0.2812500
f 1045/1045 1046/1046 1047/1047 1048/1048
v 0.3131471 0.5834604 0.4023910
vt 0.2812500 0.4687500
v 0.3017212 0.6099498 0.4106226
vt 0.4687500 0.4687500
v 0.2677379 0.6090240 0.3664310
vt 0.4687500 0.2812500
v 0.2791638 0.5825346 0.3581994
vt 0.2812500 0.2812500
f 1049/1049 1050/1050 1051/1051 1052/1052
v 0.2900719 0.5678916 0.4204619
vt 0.7812500 0.4687500
v 0.2560886 0.5669658 0.3762703
vt 0.9687500 0.4687500
v 0.2446627 0.5934552 0.3845019
vt 0.9687500 0.2812500
v 0.2786460 0.5943810 0.4286935
vt 0.7812500 0.2812500
f 1053/1053 1054/1054 1055/1055 1056/1056
v 0.3418330 0.6033873 0.3339952
vt 0.0312500 0.7187500
v 0.3573421 0.5610916 0.3453666
vt 0.2187500 0.7187500
v 0.4875120 0.5974701 0.3031415
vt 0.2187500 0.5312500
v 0.4720029 0.6397658 0.2917701
vt 0.0312500 0.5312500
f 1057/1057 1058/1058 1059/1059 1060/1060
v 0.3635995 0.5708273 0.3730444
vt 0.0312500 0.7187500
v 0.3480904 0.6131230 0.3616730
vt 0.2187500 0.7187500
v 0.4782603 0.6495015 0.3194479
vt 0.2187500 0.5312500
v 0.4937694 0.6072058 0.3308193
vt 0.0312500 0.5312500
f 1061/1061 1062/1062 1063/1063 1064/1064
v 0.3573421 0.5610916 0.3453666
vt 0.0312500 0.7187500
v 0.3635995 0.5708273 0.3730444
vt 0.2187500 0.7187500
v 0.4937694 0.6072058 0.3308193
vt 0.2187500 0.5312500
v 0.4875120 0.5974701 0.3031415
vt 0.0312500 0.5312500
f 1065/1065 1066/1066 1067/1067 1068/1068
v 0.3480904 0.6131230 0.3616730
vt 0.5312500 0.7187500
v 0.3418330 0.6033873 0.3339952
vt 0.7187500 0.7187500
v 0.4720029 0.6397658 0.2917701
vt 0.7187500 0.5312500
v 0.4782603 0.6495015 0.3194479
vt 0.5312500 0.5312500
f 1069/1069 1070/1070 1071/1071 1072/1072
v 0.4875120 0.5974701 0.3031415
vt 0.2812500 0.7187500
v 0.4937694 0.6072058 0.3308193
vt 0.4687500 0.7187500
v 0.4782603 0.6495015 0.3194479
vt 0.4687500 0.5312500
v 0.4720029 0.6397658 0.2917701
vt 0.2812500 0.5312500
f 1073/1073 1074/1074 1075/1075 1076/1076
v 0.3573421 0.5610916 0.3453666
vt 0.7812500 0.7187500
v 0.3418330 0.6033873 0.3339952
vt 0.9687500 0.7187500
v 0.3480904 0.6131230 0.3616730
vt 0.9687500 0.5312500
v 0.3635995 0.5708273 0.3730444
vt 0.7812500 0.5312500
f 1077/1077 1078/1078 1079/1079 1080/1080
v 0.3077131 0.6964378 0.3089782
vt 0.0312500 0.7187500
v 0.3232222 0.6541421 0.3203495
vt 0.2187500 0.7187500
v 0.4533921 0.6905206 0.2781245
vt 0.2187500 0.5312500
v 0.4378830 0.7328163 0.2667531
vt 0.0312500 0.5312500
f 1081/1081 1082/1082 1083/1083 1084/1084
v 0.3294796 0.6638779 0.3480273
vt 0.0312500 0.7187500
v 0.3139705 0.7061735 0.3366559
vt 0.2187500 0.7187500
v 0.4441404 0.7425520 0.2944309
vt 0.2187500 0.5312500
v 0.4596495 0.7002564 0.3058023
vt 0.0312500 0.5312500
f 1085/1085 1086/1086 1087/1087 1088/1088
v 0.3232222 0.6541421 0.3203495
vt 0.0312500 0.7187500
v 0.3294796 0.6638779 0.3480273
vt 0.2187500 0.7187500
v 0.4596495 0.7002564 0.3058023
vt 0.2187500 0.5312500
v 0.4533921 0.6905206 0.2781245
vt 0.0312500 0.5312500
f 1089/1089 1090/1090 1091/1091 1092/1092
v 0.3139705 0.7061735 0.3366559
vt 0.5312500 0.7187500
v 0.3077131 0.6964378 0.3089782
vt 0.7187500 0.7187500
v 0.4378830 0.7328163 0.2667531
vt 0.7187500 0.5312500
v 0.4441404 0.7425520 0.2944309
vt 0.5312500 0.5312500
f 1093/1093 1094/1094 1095/1095 1096/1096
v 0.4533921 0.6905206 0.2781245
vt 0.2812500 0.7187500
v 0.4596495 0.7002564 0.3058023
vt 0.4687500 0.7187500
v 0.4441404 0.7425520 0.2944309
vt 0.4687500 0.5312500
v 0.4378830 0.7328163 0.2667531
vt 0.2812500 0.5312500
f 1097/1097 1098/1098 1099/1099 1100/1100
v 0.3232222 0.6541421 0.3203495
vt 0.7812500 0.7187500
v 0.3077131 0.6964378 0.3089782
vt 0.9687500 0.7187500
v 0.3139705 0.7061735 0.3366559
vt 0.9687500 0.5312500
v 0.3294796 0.6638779 0.3480273
vt 0.7812500 0.5312500
f 1101/1101 1102/1102 1103/1103 1104/1104
v 0.4228835 0.6819944 0.2880210
vt 0.0312500 0.7187500
v 0.4414944 0.6312396 0.3016666
vt 0.2187500 0.7187500
v 0.4720029 0.6397658 0.2917701
vt 0.2187500 0.5312500
v 0.4533921 0.6905206 0.2781245
vt 0.0312500 0.5312500
f 1105/1105 1106/1106 1107/1107 1108/1108
v 0.4477518 0.6409753 0.3293444
vt 0.0312500 0.7187500
v 0.4291409 0.6917301 0.3156988
vt 0.2187500 0.7187500
v 0.4596495 0.7002564 0.3058023
vt 0.2187500 0.5312500
v 0.4782603 0.6495015 0.3194479
vt 0.0312500 0.5312500
f 1109/1109 1110/1110 1111/1111 1112/1112
v 0.4414944 0.6312396 0.3016666
vt 0.0312500 0.7187500
v 0.4477518 0.6409753 0.3293444
vt 0.2187500 0.7187500
v 0.4782603 0.6495015 0.3194479
vt 0.2187500 0.5312500
v 0.4720029 0.6397658 0.2917701
vt 0.0312500 0.5312500
f 1113/1113 1114/1114 1115/1115 1116/1116
v 0.4291409 0.6917301 0.3156988
vt 0.5312500 0.7187500
v 0.4228835 0.6819944 0.2880210
vt 0.7187500 0.7187500
v 0.4533921 0.6905206 0.2781245
vt 0.7187500 0.5312500
v 0.4596495 0.7002564 0.3058023
vt 0.5312500 0.5312500
f 1117/1117 1118/1118 1119/1119 1120/1120
v 0.4720029 0.6397658 0.2917701
vt 0.2812500 0.7187500
v 0.4782603 0.6495015 0.3194479
vt 0.4687500 0.7187500
v 0.4596495 0.7002564 0.3058023
vt 0.4687500 0.5312500
v 0.4533921 0.6905206 0.2781245
vt 0.2812500 0.5312500
f 1121/1121 1122/1122 1123/1123 1124/1124
v 0.4414944 0.6312396 0.3016666
vt 0.7812500 0.7187500
v 0.4228835 0.6819944 0.2880210
vt 0.9687500 0.7187500
v 0.4291409 0.6917301 0.3156988
vt 0.9687500 0.5312500
v 0.4477518 0.6409753 0.3293444
vt 0.7812500 0.5312500
f 1125/1125 1126/1126 1127/1127 1128/1128
v 0.3232222 0.6541421 0.3203495
vt 0.0312500 0.7187500
v 0.3418330 0.6033873 0.3339952
vt 0.2187500 0.7187500
v 0.3723416 0.6119135 0.3240987
vt 0.2187500 0.5312500
v 0.3537307 0.6626683 0.3104530
vt 0.0312500 0.5312500
f 1129/1129 1130/1130 1131/1131 1132/1132
v 0.3480904 0.6131230 0.3616730
vt 0.0312500 0.7187500
v 0.3294796 0.6638779 0.3480273
vt 0.2187500 0.7187500
v 0.3599881 0.6724041 0.3381308
vt 0.2187500 0.5312500
v 0.3785990 0.6216492 0.3517765
vt 0.0312500 0.5312500
f 1133/1133 1134/1134 1135/1135 1136/1136
v 0.3418330 0.6033873 0.3339952
vt 0.0312500 0.7187500
v 0.3480904 0.6131230 0.3616730
vt 0.2187500 0.7187500
v 0.3785990 0.6216492 0.3517765
vt 0.2187500 0.5312500
v 0.3723416 0.6119135 0.3240987
vt 0.0312500 0.5312500
f 1137/1137 1138/1138 1139/1139 1140/1140
v 0.3294796 0.6638779 0.3480273
vt 0.5312500 0.7187500
v 0.3232222 0.6541421 0.3203495
vt 0.7187500 0.7187500
v 0.3537307 0.6626683 0.3104530
vt 0.7187500 0.5312500
v 0.3599881 0.6724041 0.3381308
vt 0.5312500 0.5312500
f 1141/1141 1142/1142 1143/1143 1144/1144
v 0.3723416 0.6119135 0.3240987
vt 0.2812500 0.7187500
v 0.3785990 0.6216492 0.3517765
vt 0.4687500 0.7187500
v 0.3599881 0.6724041 0.3381308
vt 0.4687500 0.5312500
v 0.3537307 0.6626683 0.3104530
vt 0.2812500 0.5312500
f 1145/1145 1146/1146 1147/1147 1148/1148
v 0.3418330 0.6033873 0.3339952
vt 0.7812500 0.7187500
v 0.3232222 0.6541421 0.3203495
vt 0.9687500 0.7187500
v 0.3294796 0.6638779 0.3480273
vt 0.9687500 0.5312500
v 0.3480904 0.6131230 0.3616730
vt 0.7812500 0.5312500
f 1149/1149 1150/1150 1151/1151 1152/1152
v 0.4292000 0.6460785 0.3297093
vt 0.0312500 0.7187500
v 0.4292000 0.6390136 0.3756315
vt 0.2187500 0.7187500
v 0.5708000 0.6390136 0.3756315
vt 0.2187500 0.5312500
v 0.5708000 0.6460785 0.3297093
vt 0.0312500 0.5312500
f 1153/1153 1154/1154 1155/1155 1156/1156
v 0.4292000 0.6686647 0.3801933
vt 0.0312500 0.7187500
v 0.4292000 0.6757297 0.3342710
vt 0.2187500 0.7187500
v 0.5708000 0.6757297 0.3342710
vt 0.2187500 0.5312500
v 0.5708000 0.6686647 0.3801933
vt 0.0312500 0.5312500
f 1157/1157 1158/1158 1159/1159 1160/1160
v 0.4292000 0.6390136 0.3756315
vt 0.0312500 0.7187500
v 0.4292000 0.6686647 0.3801933
vt 0.2187500 0.7187500
v 0.5708000 0.6686647 0.3801933
vt 0.2187500 0.5312500
v 0.5708000 0.6390136 0.3756315
vt 0.0312500 0.5312500
f 1161/1161 1162/1162 1163/1163 1164/1164
v 0.4292000 0.6757297 0.3342710
vt 0.5312500 0.7187500
v 0.4292000 0.6460785 0.3297093
vt 0.7187500 0.7187500
v 0.5708000 0.6460785 0.3297093
vt 0.7187500 0.5312500
v 0.5708000 0.6757297 0.3342710
vt 0.5312500 0.5312500
f 1165/1165 1166/1166 1167/1167 1168/1168
v 0.5708000 0.6390136 0.3756315
vt 0.2812500 0.7187500
v 0.5708000 0.6686647 0.3801933
vt 0.4687500 0.7187500
v 0.5708000 0.6757297 0.3342710
vt 0.4687500 0.5312500
v 0.5708000 0.6460785 0.3297093
vt 0.2812500 0.5312500
f 1169/1169 1170/1170 1171/1171 1172/1172
v 0.4292000 0.6390136 0.3756315
vt 0.7812500 0.7187500
v 0.4292000 0.6460785 0.3297093
vt 0.9687500 0.7187500
v 0.4292000 0.6757297 0.3342710
vt 0.9687500 0.5312500
v 0.4292000 0.6686647 0.3801933
vt 0.7812500 0.5312500
f 1173/1173 1174/1174 1175/1175 1176/1176
v 0.4292000 0.6616214 0.2286804
vt 0.0312500 0.7187500
v 0.4292000 0.6545565 0.2746027
vt 0.2187500 0.7187500
v 0.5708000 0.6545565 0.2746027
vt 0.2187500 0.5312500
v 0.5708000 0.6616214 0.2286804
vt 0.0312500 0.5312500
f 1177/1177 1178/1178 1179/1179 1180/1180
v 0.4292000 0.6842076 0.2791644
vt 0.0312500 0.7187500
v 0.4292000 0.6912726 0.2332422
vt 0.2187500 0.7187500
v 0.5708000 0.6912726 0.2332422
vt 0.2187500 0.5312500
v 0.5708000 0.6842076 0.2791644
vt 0.0312500 0.5312500
f 1181/1181 1182/1182 1183/1183 1184/1184
v 0.4292000 0.6545565 0.2746027
vt 0.0312500 0.7187500
v 0.4292000 0.6842076 0.2791644
vt 0.2187500 0.7187500
v 0.5708000 0.6842076 0.2791644
vt 0.2187500 0.5312500
v 0.5708000 0.6545565 0.2746027
vt 0.0312500 0.5312500
f 1185/1185 1186/1186 1187/1187 1188/1188
v 0.4292000 0.6912726 0.2332422
vt 0.5312500 0.7187500
v 0.4292000 0.6616214 0.2286804
vt 0.7187500 0.7187500
v 0.5708000 0.6616214 0.2286804
vt 0.7187500 0.5312500
v 0.5708000 0.6912726 0.2332422
vt 0.5312500 0.5312500
f 1189/1189 1190/1190 1191/1191 1192/1192
v 0.5708000 0.6545565 0.2746027
vt 0.2812500 0.7187500
v 0.5708000 0.6842076 0.2791644
vt 0.4687500 0.7187500
v 0.5708000 0.6912726 0.2332422
vt 0.4687500 0.5312500
v 0.5708000 0.6616214 0.2286804
vt 0.2812500 0.5312500
f 1193/1193 1194/1194 1195/1195 1196/1196
v 0.4292000 0.6545565 0.2746027
vt 0.7812500 0.7187500
v 0.4292000 0.6616214 0.2286804
vt 0.9687500 0.7187500
v 0.4292000 0.6912726 0.2332422
vt 0.9687500 0.5312500
v 0.4292000 0.6842076 0.2791644
vt 0.7812500 0.5312500
f 1197/1197 1198/1198 1199/1199 1200/1200
v 0.5376125 0.6545565 0.2746027
vt 0.0312500 0.7187500
v 0.5376125 0.6460785 0.3297093
vt 0.2187500 0.7187500
v 0.5708000 0.6460785 0.3297093
vt 0.2187500 0.5312500
v 0.5708000 0.6545565 0.2746027
vt 0.0312500 0.5312500
f 1201/1201 1202/1202 1203/1203 1204/1204
v 0.5376125 0.6757297 0.3342710
vt 0.0312500 0.7187500
v 0.5376125 0.6842076 0.2791644
vt 0.2187500 0.7187500
v 0.5708000 0.6842076 0.2791644
vt 0.2187500 0.5312500
v 0.5708000 0.6757297 0.3342710
vt 0.0312500 0.5312500
f 1205/1205 1206/1206 1207/1207 1208/1208
v 0.5376125 0.6460785 0.3297093
vt 0.0312500 0.7187500
v 0.5376125 0.6757297 0.3342710
vt 0.2187500 0.7187500
v 0.5708000 0.6757297 0.3342710
vt 0.2187500 0.5312500
v 0.5708000 0.6460785 0.3297093
vt 0.0312500 0.5312500
f 1209/1209 1210/1210 1211/1211 1212/1212
v 0.5376125 0.6842076 0.2791644
vt 0.5312500 0.7187500
v 0.5376125 0.6545565 0.2746027
vt 0.7187500 0.7187500
v 0.5708000 0.6545565 0.2746027
vt 0.7187500 0.5312500
v 0.5708000 0.6842076 0.2791644
vt 0.5312500 0.5312500
f 1213/1213 1214/1214 1215/1215 1216/1216
v 0.5708000 0.6460785 0.3297093
vt 0.2812500 0.7187500
v 0.5708000 0.6757297 0.3342710
vt 0.4687500 0.7187500
v 0.5708000 0.6842076 0.2791644
vt 0.4687500 0.5312500
v 0.5708000 0.6545565 0.2746027
vt 0.2812500 0.5312500
f 1217/1217 1218/1218 1219/1219 1220/1220
v 0.5376125 0.6460785 0.3297093
vt 0.7812500 0.7187500
v 0.5376125 0.6545565 0.2746027
vt 0.9687500 0.7187500
v 0.5376125 0.6842076 0.2791644
vt 0.9687500 0.5312500
v 0.5376125 0.6757297 0.3342710
vt 0.7812500 0.5312500
f 1221/1221 1222/1222 1223/1223 1224/1224
v 0.4292000 0.6545565 0.2746027
vt 0.0312500 0.7187500
v 0.4292000 0.6460785 0.3297093
vt 0.2187500 0.7187500
v 0.4623875 0.6460785 0.3297093
vt 0.2187500 0.5312500
v 0.4623875 0.6545565 0.2746027
vt 0.0312500 0.5312500
f 1225/1225 1226/1226 1227/1227 1228/1228
v 0.4292000 0.6757297 0.3342710
vt 0.0312500 0.7187500
v 0.4292000 0.6842076 0.2791644
vt 0.2187500 0.7187500
v 0.4623875 0.6842076 0.2791644
vt 0.2187500 0.5312500
v 0.4623875 0.6757297 0.3342710
vt 0.0312500 0.5312500
f 1229/1229 1230/1230 1231/1231 1232/1232
v 0.4292000 0.6460785 0.3297093
vt 0.0312500 0.7187500
v 0.4292000 0.6757297 0.3342710
vt 0.2187500 0.7187500
v 0.4623875 0.6757297 0.3342710
vt 0.2187500 0.5312500
v 0.4623875 0.6460785 0.3297093
vt 0.0312500 0.5312500
f 1233/1233 1234/1234 1235/1235 1236/1236
v 0.4292000 0.6842076 0.2791644
vt 0.5312500 0.7187500
v 0.4292000 0.6545565 0.2746027
vt 0.7187500 0.7187500
v 0.4623875 0.6545565 0.2746027
vt 0.7187500 0.5312500
v 0.4623875 0.6842076 0.2791644
vt 0.5312500 0.5312500
f 1237/1237 1238/1238 1239/1239 1240/1240
v 0.4623875 0.6460785 0.3297093
vt 0.2812500 0.7187500
v 0.4623875 0.6757297 0.3342710
vt 0.4687500 0.7187500
v 0.4623875 0.6842076 0.2791644
vt 0.4687500 0.5312500
v 0.4623875 0.6545565 0.2746027
vt 0.2812500 0.5312500
f 1241/1241 1242/1242 1243/1243 1244/1244
v 0.4292000 0.6460785 0.3297093
vt 0.7812500 0.7187500
v 0.4292000 0.6545565 0.2746027
vt 0.9687500 0.7187500
v 0.4292000 0.6842076 0.2791644
vt 0.9687500 0.5312500
v 0.4292000 0.6757297 0.3342710
vt 0.7812500 0.5312500
f 1245/1245 1246/1246 1247/1247 1248/1248
v 0.5279971 0.6397658 0.2917701
vt 0.0312500 0.2187500
v 0.5124880 0.5974701 0.3031415
vt 0.2187500 0.2187500
v 0.6426579 0.5610916 0.3453666
vt 0.2187500 0.0312500
v 0.6581670 0.6033873 0.3339952
vt 0.0312500 0.0312500
f 1249/1249 1250/1250 1251/1251 1252/1252
v 0.5062306 0.6072058 0.3308193
vt 0.0312500 0.2187500
v 0.5217397 0.6495015 0.3194479
vt 0.2187500 0.2187500
v 0.6519096 0.6131230 0.3616730
vt 0.2187500 0.0312500
v 0.6364005 0.5708273 0.3730444
vt 0.0312500 0.0312500
f 1253/1253 1254/1254 1255/1255 1256/1256
v 0.5124880 0.5974701 0.3031415
vt 0.0312500 0.2187500
v 0.5062306 0.6072058 0.3308193
vt 0.2187500 0.2187500
v 0.6364005 0.5708273 0.3730444
vt 0.2187500 0.0312500
v 0.6426579 0.5610916 0.3453666
vt 0.0312500 0.0312500
f 1257/1257 1258/1258 1259/1259 1260/1260
v 0.5217397 0.6495015 0.3194479
vt 0.5312500 0.2187500
v 0.5279971 0.6397658 0.2917701
vt 0.7187500 0.2187500
v 0.6581670 0.6033873 0.3339952
vt 0.7187500 0.0312500
v 0.6519096 0.6131230 0.3616730
vt 0.5312500 0.0312500
f 1261/1261 1262/1262 1263/1263 1264/1264
v 0.6426579 0.5610916 0.3453666
vt 0.2812500 0.2187500
v 0.6364005 0.5708273 0.3730444
vt 0.4687500 0.2187500
v 0.6519096 0.6131230 0.3616730
vt 0.4687500 0.0312500
v 0.6581670 0.6033873 0.3339952
vt 0.2812500 0.0312500
f 1265/1265 1266/1266 1267/1267 1268/1268
v 0.5124880 0.5974701 0.3031415
vt 0.7812500 0.2187500
v 0.5279971 0.6397658 0.2917701
vt 0.9687500 0.2187500
v 0.5217397 0.6495015 0.3194479
vt 0.9687500 0.0312500
v 0.5062306 0.6072058 0.3308193
vt 0.7812500 0.0312500
f 1269/1269 1270/1270 1271/1271 1272/1272
v 0.5621170 0.7328163 0.2667531
vt 0.0312500 0.2187500
v 0.5466079 0.6905206 0.2781245
vt 0.2187500 0.2187500
v 0.6767778 0.6541421 0.3203495
vt 0.2187500 0.0312500
v 0.6922869 0.6964378 0.3089782
vt 0.0312500 0.0312500
f 1273/1273 1274/1274 1275/1275 1276/1276
v 0.5403505 0.7002564 0.3058023
vt 0.0312500 0.2187500
v 0.5558596 0.7425520 0.2944309
vt 0.2187500 0.2187500
v 0.6860295 0.7061735 0.3366559
vt 0.2187500 0.0312500
v 0.6705204 0.6638779 0.3480273
vt 0.0312500 0.0312500
f 1277/1277 1278/1278 1279/1279 1280/1280
v 0.5466079 0.6905206 0.2781245
vt 0.0312500 0.2187500
v 0.5403505 0.7002564 0.3058023
vt 0.2187500 0.2187500
v 0.6705204 0.6638779 0.3480273
vt 0.2187500 0.0312500
v 0.6767778 0.6541421 0.3203495
vt 0.0312500 0.0312500
f 1281/1281 1282/1282 1283/1283 1284/1284
v 0.5558596 0.7425520 0.2944309
vt 0.5312500 0.2187500
v 0.5621170 0.7328163 0.2667531
vt 0.7187500 0.2187500
v 0.6922869 0.6964378 0.3089782
vt 0.7187500 0.0312500
v 0.6860295 0.7061735 0.3366559
vt 0.5312500 0.0312500
f 1285/1285 1286/1286 1287/1287 1288/1288
v 0.6767778 0.6541421 0.3203495
vt 0.2812500 0.2187500
v 0.6705204 0.6638779 0.3480273
vt 0.4687500 0.2187500
v 0.6860295 0.7061735 0.3366559
vt 0.4687500 0.0312500
v 0.6922869 0.6964378 0.3089782
vt 0.2812500 0.0312500
f 1289/1289 1290/1290 1291/1291 1292/1292
v 0.5466079 0.6905206 0.2781245
vt 0.7812500 0.2187500
v 0.5621170 0.7328163 0.2667531
vt 0.9687500 0.2187500
v 0.5558596 0.7425520 0.2944309
vt 0.9687500 0.0312500
v 0.5403505 0.7002564 0.3058023
vt 0.7812500 0.0312500
f 1293/1293 1294/1294 1295/1295 1296/1296
v 0.6462693 0.6626683 0.3104530
vt 0.0312500 0.2187500
v 0.6276584 0.6119135 0.3240987
vt 0.2187500 0.2187500
v 0.6581670 0.6033873 0.3339952
vt 0.2187500 0.0312500
v 0.6767778 0.6541421 0.3203495
vt 0.0312500 0.0312500
f 1297/1297 1298/1298 1299/1299 1300/1300
v 0.6214010 0.6216492 0.3517765
vt 0.0312500 0.2187500
v 0.6400119 0.6724041 0.3381308
vt 0.2187500 0.2187500
v 0.6705204 0.6638779 0.3480273
vt 0.2187500 0.0312500
v 0.6519096 0.6131230 0.3616730
vt 0.0312500 0.0312500
f 1301/1301 1302/1302 1303/1303 1304/1304
v 0.6276584 0.6119135 0.3240987
vt 0.0312500 0.2187500
v 0.6214010 0.6216492 0.3517765
vt 0.2187500 0.2187500
v 0.6519096 0.6131230 0.3616730
vt 0.2187500 0.0312500
v 0.6581670 0.6033873 0.3339952
vt 0.0312500 0.0312500
f 1305/1305 1306/1306 1307/1307 1308/1308
v 0.6400119 0.6724041 0.3381308
vt 0.5312500 0.2187500
v 0.6462693 0.6626683 0.3104530
vt 0.7187500 0.2187500
v 0.6767778 0.6541421 0.3203495
vt 0.7187500 0.0312500
v 0.6705204 0.6638779 0.3480273
vt 0.5312500 0.0312500
f 1309/1309 1310/1310 1311/1311 1312/1312
v 0.6581670 0.6033873 0.3339952
vt 0.2812500 0.2187500
v 0.6519096 0.6131230 0.3616730
vt 0.4687500 0.2187500
v 0.6705204 0.6638779 0.3480273
vt 0.4687500 0.0312500
v 0.6767778 0.6541421 0.3203495
vt 0.2812500 0.0312500
f 1313/1313 1314/1314 1315/1315 1316/1316
v 0.6276584 0.6119135 0.3240987
vt 0.7812500 0.2187500
v 0.6462693 0.6626683 0.3104530
vt 0.9687500 0.2187500
v 0.6400119 0.6724041 0.3381308
vt 0.9687500 0.0312500
v 0.6214010 0.6216492 0.3517765
vt 0.7812500 0.0312500
f 1317/1317 1318/1318 1319/1319 1320/1320
v 0.5466079 0.6905206 0.2781245
vt 0.0312500 0.2187500
v 0.5279971 0.6397658 0.2917701
vt 0.2187500 0.2187500
v 0.5585056 0.6312396 0.3016666
vt 0.2187500 0.0312500
v 0.5771165 0.6819944 0.2880210
vt 0.0312500 0.0312500
f 1321/1321 1322/1322 1323/1323 1324/1324
v 0.5217397 0.6495015 0.3194479
vt 0.0312500 0.2187500
v 0.5403505 0.7002564 0.3058023
vt 0.2187500 0.2187500
v 0.5708591 0.6917301 0.3156988
vt 0.2187500 0.0312500
v 0.5522482 0.6409753 0.3293444
vt 0.0312500 0.0312500
f 1325/1325 1326/1326 1327/1327 1328/1328
v 0.5279971 0.6397658 0.2917701
vt 0.0312500 0.2187500
v 0.5217397 0.6495015 0.3194479
vt 0.2187500 0.2187500
v 0.5522482 0.6409753 0.3293444
vt 0.2187500 0.0312500
v 0.5585056 0.6312396 0.3016666
vt 0.0312500 0.0312500
f 1329/1329 1330/1330 1331/1331 1332/1332
v 0.5403505 0.7002564 0.3058023
vt 0.5312500 0.2187500
v 0.5466079 0.6905206 0.2781245
vt 0.7187500 0.2187500
v 0.5771165 0.6819944 0.2880210
vt 0.7187500 0.0312500
v 0.5708591 0.6917301 0.3156988
vt 0.5312500 0.0312500
f 1333/1333 1334/1334 1335/1335 1336/1336
v 0.5585056 0.6312396 0.3016666
vt 0.2812500 0.2187500
v 0.5522482 0.6409753 0.3293444
vt 0.4687500 0.2187500
v 0.5708591 0.6917301 0.3156988
vt 0.4687500 0.0312500
v 0.5771165 0.6819944 0.2880210
vt 0.2812500 0.0312500
f 1337/1337 1338/1338 1339/1339 1340/1340
v 0.5279971 0.6397658 0.2917701
vt 0.7812500 0.2187500
v 0.5466079 0.6905206 0.2781245
vt 0.9687500 0.2187500
v 0.5403505 0.7002564 0.3058023
vt 0.9687500 0.0312500
v 0.5217397 0.6495015 0.3194479
vt 0.7812500 0.0312500
f 1341/1341 1342/1342 1343/1343 1344/1344
v 0.6114740 0.6343184 0.3433593
vt 0.0312500 0.4687500
v 0.5831546 0.6350899 0.3801857
vt 0.2187500 0.4687500
v 0.6816087 0.5686630 0.4572883
vt 0.2187500 0.2812500
v 0.7099281 0.5678916 0.4204619
vt 0.0312500 0.2812500
f 1345/1345 1346/1346 1347/1347 1348/1348
v 0.5945805 0.6615793 0.3884173
vt 0.0312500 0.4687500
v 0.6228999 0.6608078 0.3515909
vt 0.2187500 0.4687500
v 0.7213540 0.5943810 0.4286935
vt 0.2187500 0.2812500
v 0.6930346 0.5951524 0.4655199
vt 0.0312500 0.2812500
f 1349/1349 1350/1350 1351/1351 1352/1352
v 0.5831546 0.6350899 0.3801857
vt 0.0312500 0.4687500
v 0.5945805 0.6615793 0.3884173
vt 0.2187500 0.4687500
v 0.6930346 0.5951524 0.4655199
vt 0.2187500 0.2812500
v 0.6816087 0.5686630 0.4572883
vt 0.0312500 0.2812500
f 1353/1353 1354/1354 1355/1355 1356/1356
v 0.6228999 0.6608078 0.3515909
vt 0.5312500 0.4687500
v 0.6114740 0.6343184 0.3433593
vt 0.7187500 0.4687500
v 0.7099281 0.5678916 0.4204619
vt 0.7187500 0.2812500
v 0.7213540 0.5943810 0.4286935
vt 0.5312500 0.2812500
f 1357/1357 1358/1358 1359/1359 1360/1360
v 0.6816087 0.5686630 0.4572883
vt 0.2812500 0.4687500
v 0.6930346 0.5951524 0.4655199
vt 0.4687500 0.4687500
v 0.7213540 0.5943810 0.4286935
vt 0.4687500 0.2812500
v 0.7099281 0.5678916 0.4204619
vt 0.2812500 0.2812500
f 1361/1361 1362/1362 1363/1363 1364/1364
v 0.5831546 0.6350899 0.3801857
vt 0.7812500 0.4687500
v 0.6114740 0.6343184 0.3433593
vt 0.9687500 0.4687500
v 0.6228999 0.6608078 0.3515909
vt 0.9687500 0.2812500
v 0.5945805 0.6615793 0.3884173
vt 0.7812500 0.2812500
f 1365/1365 1366/1366 1367/1367 1368/1368
v 0.6737766 0.6326212 0.2623413
vt 0.0312500 0.4687500
v 0.6454572 0.6333927 0.2991677
vt 0.2187500 0.4687500
v 0.7439114 0.5669658 0.3762703
vt 0.2187500 0.2812500
v 0.7722308 0.5661943 0.3394440
vt 0.0312500 0.2812500
f 1369/1369 1370/1370 1371/1371 1372/1372
v 0.6568832 0.6598821 0.3073993
vt 0.0312500 0.4687500
v 0.6852026 0.6591106 0.2705729
vt 0.2187500 0.4687500
v 0.7836567 0.5926837 0.3476756
vt 0.2187500 0.2812500
v 0.7553373 0.5934552 0.3845019
vt 0.0312500 0.2812500
f 1373/1373 1374/1374 1375/1375 1376/1376
v 0.6454572 0.6333927 0.2991677
vt 0.0312500 0.4687500
v 0.6568832 0.6598821 0.3073993
vt 0.2187500 0.4687500
v 0.7553373 0.5934552 0.3845019
vt 0.2187500 0.2812500
v 0.7439114 0.5669658 0.3762703
vt 0.0312500 0.2812500
f 1377/1377 1378/1378 1379/1379 1380/1380
v 0.6852026 0.6591106 0.2705729
vt 0.5312500 0.4687500
v 0.6737766 0.6326212 0.2623413
vt 0.7187500 0.4687500
v 0.7722308 0.5661943 0.3394440
vt 0.7187500 0.2812500
v 0.7836567 0.5926837 0.3476756
vt 0.5312500 0.2812500
f 1381/1381 1382/1382 1383/1383 1384/1384
v 0.7439114 0.5669658 0.3762703
vt 0.2812500 0.4687500
v 0.7553373 0.5934552 0.3845019
vt 0.4687500 0.4687500
v 0.7836567 0.5926837 0.3476756
vt 0.4687500 0.2812500
v 0.7722308 0.5661943 0.3394440
vt 0.2812500 0.2812500
f 1385/1385 1386/1386 1387/1387 1388/1388
v 0.6454572 0.6333927 0.2991677
vt 0.7812500 0.4687500
v 0.6737766 0.6326212 0.2623413
vt 0.9687500 0.4687500
v 0.6852026 0.6591106 0.2705729
vt 0.9687500 0.2812500
v 0.6568832 0.6598821 0.3073993
vt 0.7812500 0.2812500
f 1389/1389 1390/1390 1391/1391 1392/1392
v 0.7208362 0.5825346 0.3581994
vt 0.0312500 0.4687500
v 0.6868529 0.5834604 0.4023910
vt 0.2187500 0.4687500
v 0.7099281 0.5678916 0.4204619
vt 0.2187500 0.2812500
v 0.7439114 0.5669658 0.3762703
vt 0.0312500 0.2812500
f 1393/1393 1394/1394 1395/1395 1396/1396
v 0.6982788 0.6099498 0.4106226
vt 0.0312500 0.4687500
v 0.7322621 0.6090240 0.3664310
vt 0.2187500 0.4687500
v 0.7553373 0.5934552 0.3845019
vt 0.2187500 0.2812500
v 0.7213540 0.5943810 0.4286935
vt 0.0312500 0.2812500
f 1397/1397 1398/1398 1399/1399 1400/1400
v 0.6868529 0.5834604 0.4023910
vt 0.0312500 0.4687500
v 0.6982788 0.6099498 0.4106226
vt 0.2187500 0.4687500
v 0.7213540 0.5943810 0.4286935
vt 0.2187500 0.2812500
v 0.7099281 0.5678916 0.4204619
vt 0.0312500 0.2812500
f 1401/1401 1402/1402 1403/1403 1404/1404
v 0.7322621 0.6090240 0.3664310
vt 0.5312500 0.4687500
v 0.7208362 0.5825346 0.3581994
vt 0.7187500 0.4687500
v 0.7439114 0.5669658 0.3762703
vt 0.7187500 0.2812500
v 0.7553373 0.5934552 0.3845019
vt 0.5312500 0.2812500
f 1405/1405 1406/1406 1407/1407 1408/1408
v 0.7099281 0.5678916 0.4204619
vt 0.2812500 0.4687500
v 0.7213540 0.5943810 0.4286935
vt 0.4687500 0.4687500
v 0.7553373 0.5934552 0.3845019
vt 0.4687500 0.2812500
v 0.7439114 0.5669658 0.3762703
vt 0.2812500 0.2812500
f 1409/1409 1410/1410 1411/1411 1412/1412
v 0.6868529 0.5834604 0.4023910
vt 0.7812500 0.4687500
v 0.7208362 0.5825346 0.3581994
vt 0.9687500 0.4687500
v 0.7322621 0.6090240 0.3664310
vt 0.9687500 0.2812500
v 0.6982788 0.6099498 0.4106226
vt 0.7812500 0.2812500
f 1413/1413 1414/1414 1415/1415 1416/1416
v 0.6454572 0.6333927 0.2991677
vt 0.0312500 0.4687500
v 0.6114740 0.6343184 0.3433593
vt 0.2187500 0.4687500
v 0.6345491 0.6187496 0.3614302
vt 0.2187500 0.2812500
v 0.6685324 0.6178239 0.3172386
vt 0.0312500 0.2812500
f 1417/1417 1418/1418 1419/1419 1420/1420
v 0.6228999 0.6608078 0.3515909
vt 0.0312500 0.4687500
v 0.6568832 0.6598821 0.3073993
vt 0.2187500 0.4687500
v 0.6799584 0.6443133 0.3254702
vt 0.2187500 0.2812500
v 0.6459751 0.6452390 0.3696618
vt 0.0312500 0.2812500
f 1421/1421 1422/1422 1423/1423 1424/1424
v 0.6114740 0.6343184 0.3433593
vt 0.0312500 0.4687500
v 0.6228999 0.6608078 0.3515909
vt 0.2187500 0.4687500
v 0.6459751 0.6452390 0.3696618
vt 0.2187500 0.2812500
v 0.6345491 0.6187496 0.3614302
vt 0.0312500 0.2812500
f 1425/1425 1426/1426 1427/1427 1428/1428
v 0.6568832 0.6598821 0.3073993
vt 0.5312500 0.4687500
v 0.6454572 0.6333927 0.2991677
vt 0.7187500 0.4687500
v 0.6685324 0.6178239 0.3172386
vt 0.7187500 0.2812500
v 0.6799584 0.6443133 0.3254702
vt 0.5312500 0.2812500
f 1429/1429 1430/1430 1431/1431 1432/1432
v 0.6345491 0.6187496 0.3614302
vt 0.2812500 0.4687500
v 0.6459751 0.6452390 0.3696618
vt 0.4687500 0.4687500
v 0.6799584 0.6443133 0.3254702
vt 0.4687500 0.2812500
v 0.6685324 0.6178239 0.3172386
vt 0.2812500 0.2812500
f 1433/1433 1434/1434 1435/1435 1436/1436
v 0.6114740 0.6343184 0.3433593
vt 0.7812500 0.4687500
v 0.6454572 0.6333927 0.2991677
vt 0.9687500 0.4687500
v 0.6568832 0.6598821 0.3073993
vt 0.9687500 0.2812500
v 0.6228999 0.6608078 0.3515909
vt 0.7812500 0.2812500
f 1437/1437 1438/1438 1439/1439 1440/1440
v 0.6987297 0.5753692 0.3665163
vt 0.0312500 0.7187500
v 0.6621544 0.5471496 0.3615493
vt 0.2187500 0.7187500
v 0.7148242 0.4613576 0.4611294
vt 0.2187500 0.5312500
v 0.7513994 0.4895772 0.4660963
vt 0.0312500 0.5312500
f 1441/1441 1442/1442 1443/1443 1444/1444
v 0.6473975 0.5625646 0.3826351
vt 0.0312500 0.7187500
v 0.6839728 0.5907842 0.3876021
vt 0.2187500 0.7187500
v 0.7366425 0.5049922 0.4871821
vt 0.2187500 0.5312500
v 0.7000673 0.4767726 0.4822152
vt 0.0312500 0.5312500
f 1445/1445 1446/1446 1447/1447 1448/1448
v 0.6621544 0.5471496 0.3615493
vt 0.0312500 0.7187500
v 0.6473975 0.5625646 0.3826351
vt 0.2187500 0.7187500
v 0.7000673 0.4767726 0.4822152
vt 0.2187500 0.5312500
v 0.7148242 0.4613576 0.4611294
vt 0.0312500 0.5312500
f 1449/1449 1450/1450 1451/1451 1452/1452
v 0.6839728 0.5907842 0.3876021
vt 0.5312500 0.7187500
v 0.6987297 0.5753692 0.3665163
vt 0.7187500 0.7187500
v 0.7513994 0.4895772 0.4660963
vt 0.7187500 0.5312500
v 0.7366425 0.5049922 0.4871821
vt 0.5312500 0.5312500
f 1453/1453 1454/1454 1455/1455 1456/1456
v 0.7148242 0.4613576 0.4611294
vt 0.2812500 0.7187500
v 0.7000673 0.4767726 0.4822152
vt 0.4687500 0.7187500
v 0.7366425 0.5049922 0.4871821
vt 0.4687500 0.5312500
v 0.7513994 0.4895772 0.4660963
vt 0.2812500 0.5312500
f 1457/1457 1458/1458 1459/1459 1460/1460
v 0.6621544 0.5471496 0.3615493
vt 0.7812500 0.7187500
v 0.6987297 0.5753692 0.3665163
vt 0.9687500 0.7187500
v 0.6839728 0.5907842 0.3876021
vt 0.9687500 0.5312500
v 0.6473975 0.5625646 0.3826351
vt 0.7812500 0.5312500
f 1461/1461 1462/1462 1463/1463 1464/1464
v 0.7791952 0.6374523 0.3774435
vt 0.0312500 0.7187500
v 0.7426200 0.6092327 0.3724766
vt 0.2187500 0.7187500
v 0.7952897 0.5234407 0.4720566
vt 0.2187500 0.5312500
v 0.8318650 0.5516603 0.4770236
vt 0.0312500 0.5312500
f 1465/1465 1466/1466 1467/1467 1468/1468
v 0.7278631 0.6246477 0.3935624
vt 0.0312500 0.7187500
v 0.7644383 0.6528673 0.3985293
vt 0.2187500 0.7187500
v 0.8171081 0.5670753 0.4981094
vt 0.2187500 0.5312500
v 0.7805328 0.5388557 0.4931424
vt 0.0312500 0.5312500
f 1469/1469 1470/1470 1471/1471 1472/1472
v 0.7426200 0.6092327 0.3724766
vt 0.0312500 0.7187500
v 0.7278631 0.6246477 0.3935624
vt 0.2187500 0.7187500
v 0.7805328 0.5388557 0.4931424
vt 0.2187500 0.5312500
v 0.7952897 0.5234407 0.4720566
vt 0.0312500 0.5312500
f 1473/1473 1474/1474 1475/1475 1476/1476
v 0.7644383 0.6528673 0.3985293
vt 0.5312500 0.7187500
v 0.7791952 0.6374523 0.3774435
vt 0.7187500 0.7187500
v 0.8318650 0.5516603 0.4770236
vt 0.7187500 0.5312500
v 0.8171081 0.5670753 0.4981094
vt 0.5312500 0.5312500
f 1477/1477 1478/1478 1479/1479 1480/1480
v 0.7952897 0.5234407 0.4720566
vt 0.2812500 0.7187500
v 0.7805328 0.5388557 0.4931424
vt 0.4687500 0.7187500
v 0.8171081 0.5670753 0.4981094
vt 0.4687500 0.5312500
v 0.8318650 0.5516603 0.4770236
vt 0.2812500 0.5312500
f 1481/1481 1482/1482 1483/1483 1484/1484
v 0.7426200 0.6092327 0.3724766
vt 0.7812500 0.7187500
v 0.7791952 0.6374523 0.3774435
vt 0.9687500 0.7187500
v 0.7644383 0.6528673 0.3985293
vt 0.9687500 0.5312500
v 0.7278631 0.6246477 0.3935624
vt 0.7812500 0.5312500
f 1485/1485 1486/1486 1487/1487 1488/1488
v 0.7829452 0.5435482 0.4487176
vt 0.0312500 0.7187500
v 0.7390550 0.5096847 0.4427572
vt 0.2187500 0.7187500
v 0.7513994 0.4895772 0.4660963
vt 0.2187500 0.5312500
v 0.7952897 0.5234407 0.4720566
vt 0.0312500 0.5312500
f 1489/1489 1490/1490 1491/1491 1492/1492
v 0.7242981 0.5250997 0.4638430
vt 0.0312500 0.7187500
v 0.7681883 0.5589632 0.4698034
vt 0.2187500 0.7187500
v 0.7805328 0.5388557 0.4931424
vt 0.2187500 0.5312500
v 0.7366425 0.5049922 0.4871821
vt 0.0312500 0.5312500
f 1493/1493 1494/1494 1495/1495 1496/1496
v 0.7390550 0.5096847 0.4427572
vt 0.0312500 0.7187500
v 0.7242981 0.5250997 0.4638430
vt 0.2187500 0.7187500
v 0.7366425 0.5049922 0.4871821
vt 0.2187500 0.5312500
v 0.7513994 0.4895772 0.4660963
vt 0.0312500 0.5312500
f 1497/1497 1498/1498 1499/1499 1500/1500
v 0.7681883 0.5589632 0.4698034
vt 0.5312500 0.7187500
v 0.7829452 0.5435482 0.4487176
vt 0.7187500 0.7187500
v 0.7952897 0.5234407 0.4720566
vt 0.7187500 0.5312500
v 0.7805328 0.5388557 0.4931424
vt 0.5312500 0.5312500
f 1501/1501 1502/1502 1503/1503 1504/1504
v 0.7513994 0.4895772 0.4660963
vt 0.2812500 0.7187500
v 0.7366425 0.5049922 0.4871821
vt 0.4687500 0.7187500
v 0.7805328 0.5388557 0.4931424
vt 0.4687500 0.5312500
v 0.7952897 0.5234407 0.4720566
vt 0.2812500 0.5312500
f 1505/1505 1506/1506 1507/1507 1508/1508
v 0.7390550 0.5096847 0.4427572
vt 0.7812500 0.7187500
v 0.7829452 0.5435482 0.4487176
vt 0.9687500 0.7187500
v 0.7681883 0.5589632 0.4698034
vt 0.9687500 0.5312500
v 0.7242981 0.5250997 0.4638430
vt 0.7812500 0.5312500
f 1509/1509 1510/1510 1511/1511 1512/1512
v 0.7426200 0.6092327 0.3724766
vt 0.0312500 0.7187500
v 0.6987297 0.5753692 0.3665163
vt 0.2187500 0.7187500
v 0.7110742 0.5552617 0.3898553
vt 0.2187500 0.5312500
v 0.7549644 0.5891252 0.3958157
vt 0.0312500 0.5312500
f 1513/1513 1514/1514 1515/1515 1516/1516
v 0.6839728 0.5907842 0.3876021
vt 0.0312500 0.7187500
v 0.7278631 0.6246477 0.3935624
vt 0.2187500 0.7187500
v 0.7402075 0.6045402 0.4169015
vt 0.2187500 0.5312500
v 0.6963173 0.5706767 0.4109412
vt 0.0312500 0.5312500
f 1517/1517 1518/1518 1519/1519 1520/1520
v 0.6987297 0.5753692 0.3665163
vt 0.0312500 0.7187500
v 0.6839728 0.5907842 0.3876021
vt 0.2187500 0.7187500
v 0.6963173 0.5706767 0.4109412
vt 0.2187500 0.5312500
v 0.7110742 0.5552617 0.3898553
vt 0.0312500 0.5312500
f 1521/1521 1522/1522 1523/1523 1524/1524
v 0.7278631 0.6246477 0.3935624
vt 0.5312500 0.7187500
v 0.7426200 0.6092327 0.3724766
vt 0.7187500 0.7187500
v 0.7549644 0.5891252 0.3958157
vt 0.7187500 0.5312500
v 0.7402075 0.6045402 0.4169015
vt 0.5312500 0.5312500
f 1525/1525 1526/1526 1527/1527 1528/1528
v 0.7110742 0.5552617 0.3898553
vt 0.2812500 0.7187500
v 0.6963173 0.5706767 0.4109412
vt 0.4687500 0.7187500
v 0.7402075 0.6045402 0.4169015
vt 0.4687500 0.5312500
v 0.7549644 0.5891252 0.3958157
vt 0.2812500 0.5312500
f 1529/1529 1530/1530 1531/1531 1532/1532
v 0.6987297 0.5753692 0.3665163
vt 0.7812500 0.7187500
v 0.7426200 0.6092327 0.3724766
vt 0.9687500 0.7187500
v 0.7278631 0.6246477 0.3935624
vt 0.9687500 0.5312500
v 0.6839728 0.5907842 0.3876021
vt 0.7812500 0.5312500
f 1533/1533 1534/1534 1535/1535 1536/1536
